SplineFontDB: 3.0
FontName: Sahel-Black
FullName: Sahel Black
FamilyName: Sahel Black
Weight: Black
Copyright: Copyright (c) 2016 by Saber Rastikerdar. All Rights Reserved.\nBased on DejaVu font.\nNon-Arabic(latin) glyphs and data are imported from Open Sans font under the Apache License, Version 2.0.
Version: 1.0.0-alpha3
ItalicAngle: 0
UnderlinePosition: -500
UnderlineWidth: 100
Ascent: 1638
Descent: 410
InvalidEm: 0
LayerCount: 2
Layer: 0 1 "Back" 1
Layer: 1 1 "Fore" 0
XUID: [1021 502 1027637223 8586941]
UniqueID: 4158718
UseUniqueID: 1
FSType: 0
OS2Version: 1
OS2_WeightWidthSlopeOnly: 0
OS2_UseTypoMetrics: 1
CreationTime: 1431850356
ModificationTime: 1470181653
PfmFamily: 17
TTFWeight: 900
TTFWidth: 5
LineGap: 0
VLineGap: 0
Panose: 2 11 6 3 3 8 4 2 2 4
OS2TypoAscent: 2350
OS2TypoAOffset: 0
OS2TypoDescent: -1200
OS2TypoDOffset: 0
OS2TypoLinegap: 0
OS2WinAscent: 2350
OS2WinAOffset: 0
OS2WinDescent: 1200
OS2WinDOffset: 0
HheadAscent: 2350
HheadAOffset: 0
HheadDescent: -1200
HheadDOffset: 0
OS2SubXSize: 1331
OS2SubYSize: 1433
OS2SubXOff: 0
OS2SubYOff: 286
OS2SupXSize: 1331
OS2SupYSize: 1433
OS2SupXOff: 0
OS2SupYOff: 983
OS2StrikeYSize: 102
OS2StrikeYPos: 530
OS2Vendor: 'PfEd'
OS2CodePages: 00000040.20080000
OS2UnicodeRanges: 00002000.80000000.00000008.00000000
Lookup: 1 9 0 "'fina' Terminal Forms in Arabic lookup 9" { "'fina' Terminal Forms in Arabic lookup 9 subtable"  } ['fina' ('arab' <'KUR ' 'SND ' 'URD ' 'dflt' > ) ]
Lookup: 1 9 0 "'medi' Medial Forms in Arabic lookup 11" { "'medi' Medial Forms in Arabic lookup 11 subtable"  } ['medi' ('arab' <'KUR ' 'SND ' 'URD ' 'dflt' > ) ]
Lookup: 1 9 0 "'init' Initial Forms in Arabic lookup 13" { "'init' Initial Forms in Arabic lookup 13 subtable"  } ['init' ('arab' <'KUR ' 'SND ' 'URD ' 'dflt' > ) ]
Lookup: 4 1 1 "'rlig' Required Ligatures in Arabic lookup 14" { "'rlig' Required Ligatures in Arabic lookup 14 subtable"  } ['rlig' ('arab' <'KUR ' 'dflt' > ) ]

StartChar: afii57388
Encoding: 1548 1548 2
Width: 805
VWidth: 3395
GlyphClass: 2
Flags: W
LayerCount: 2
Fore
SplineSet
417.251953125 404.2265625 m 1,0,1
 518.795898438 398.930664062 518.795898438 398.930664062 562.166992188 326.361328125 c 0,2,3
 598.7890625 268.87109375 598.7890625 268.87109375 599.15234375 208.252929688 c 0,4,5
 599.862304688 102.399414062 599.862304688 102.399414062 541.478515625 42.0771484375 c 0,6,7
 482.529296875 -19.2001953125 482.529296875 -19.2001953125 359.193359375 -8.5361328125 c 0,8,9
 148.665039062 8.533203125 148.665039062 8.533203125 170.424804688 268.506835938 c 0,10,11
 195.59765625 570.663085938 195.59765625 570.663085938 510.161132812 759.361328125 c 0,12,13
 547.595703125 781.861328125 547.595703125 781.861328125 579.400390625 781.211914062 c 0,14,15
 613.728515625 779.728515625 613.728515625 779.728515625 634.712890625 750.4921875 c 0,16,17
 659.595703125 715.728515625 659.595703125 715.728515625 579.130859375 642.149414062 c 0,18,19
 456.9296875 532.263671875 456.9296875 532.263671875 417.251953125 404.2265625 c 1,0,1
EndSplineSet
EndChar

StartChar: uni0615
Encoding: 1557 1557 3
Width: 0
VWidth: 3443
GlyphClass: 4
Flags: W
AnchorPoint: "Anchor-10" 770.381 1882.78 mark 0
AnchorPoint: "Anchor-9" 770.381 1882.78 mark 0
AnchorPoint: "Anchor-1" 770.381 2975.96 basemark 0
AnchorPoint: "Anchor-1" 770.381 1882.78 mark 0
LayerCount: 2
Fore
SplineSet
792.641601562 2199.6953125 m 1,0,1
 981 2203 981 2203 1018 2268.92856606 c 0,2,3
 1026 2283 1026 2283 1025.99316406 2298.8203125 c 0,4,5
 1026 2333 1026 2333 990 2333.22005814 c 0,6,7
 924 2333 924 2333 792.641601562 2199.6953125 c 1,0,1
1200.61035156 2196.57421875 m 0,8,9
 1123.03411434 1995.08860379 1123.03411434 1995.08860379 727.290039062 1994.84375 c 2,10,-1
 387.94140625 1994.63378906 l 1,11,-1
 300.638317403 2162 l 2,12,13
 281.040039062 2199.57128906 281.040039062 2199.57128906 321 2199.57128906 c 6,14,-1
 451.905273438 2199.57128906 l 1,15,-1
 451.905273438 2870.609375 l 1,16,-1
 658.31640625 2870.609375 l 1,17,-1
 658.31640625 2351.63964844 l 1,18,19
 840 2559 840 2559 999.706054688 2556.22265625 c 0,20,21
 1168.31248388 2553.03193469 1168.31248388 2553.03193469 1214.26953125 2401.38769531 c 0,22,23
 1243 2305 1243 2305 1200.61035156 2196.57421875 c 0,8,9
EndSplineSet
EndChar

StartChar: uni061B
Encoding: 1563 1563 4
Width: 808
VWidth: 3395
GlyphClass: 2
Flags: W
LayerCount: 2
Fore
SplineSet
427.408203125 994.98828125 m 1,0,1
 526 990 526 990 572.323242188 917.123046875 c 0,2,3
 609 860 609 860 609.307617188 799.014648438 c 0,4,5
 610 693 610 693 551.634765625 632.838867188 c 0,6,7
 493 572 493 572 369.348632812 582.225585938 c 0,8,9
 159 599 159 599 180.580078125 859.268554688 c 0,10,11
 202.720461519 1120.33029779 202.720461519 1120.33029779 444.023006954 1299 c 0,12,13
 544.540837808 1373.42727499 544.540837808 1373.42727499 589.5 1372 c 0,14,15
 621 1371 621 1371 638 1347 c 0,16,17
 667 1304 667 1304 589.287109375 1232.91113281 c 0,18,19
 467 1123 467 1123 427.408203125 994.98828125 c 1,0,1
170.46484375 233.598632812 m 128,-1,21
 170.46484375 330.665039062 170.46484375 330.665039062 238.731445312 398.930664062 c 128,-1,22
 306.997070312 467.197265625 306.997070312 467.197265625 404.063476562 467.197265625 c 128,-1,23
 501.129882812 467.197265625 501.129882812 467.197265625 569.395507812 398.930664062 c 128,-1,24
 637.662109375 330.665039062 637.662109375 330.665039062 637.662109375 233.598632812 c 128,-1,25
 637.662109375 136.532226562 637.662109375 136.532226562 569.395507812 68.2666015625 c 128,-1,26
 501.129882812 0 501.129882812 0 404.063476562 0 c 128,-1,27
 306.997070312 0 306.997070312 0 238.731445312 68.2666015625 c 128,-1,20
 170.46484375 136.532226562 170.46484375 136.532226562 170.46484375 233.598632812 c 128,-1,21
EndSplineSet
EndChar

StartChar: uni061F
Encoding: 1567 1567 5
Width: 1149
VWidth: 3386
GlyphClass: 2
Flags: W
LayerCount: 2
Fore
SplineSet
450.130859375 233.598632812 m 128,-1,1
 450.130859375 330.665039062 450.130859375 330.665039062 518.396484375 398.930664062 c 128,-1,2
 586.663085938 467.197265625 586.663085938 467.197265625 683.729492188 467.197265625 c 128,-1,3
 780.794921875 467.197265625 780.794921875 467.197265625 849.061523438 398.930664062 c 128,-1,4
 917.327148438 330.665039062 917.327148438 330.665039062 917.327148438 233.598632812 c 128,-1,5
 917.327148438 136.532226562 917.327148438 136.532226562 849.061523438 68.2666015625 c 128,-1,6
 780.794921875 0 780.794921875 0 683.729492188 0 c 128,-1,7
 586.663085938 0 586.663085938 0 518.396484375 68.2666015625 c 128,-1,0
 450.130859375 136.532226562 450.130859375 136.532226562 450.130859375 233.598632812 c 128,-1,1
536.530273438 671.241210938 m 2,8,-1
 536.530273438 681.204101562 l 2,9,10
 536.996495845 776.285363655 536.996495845 776.285363655 411.09375 854.217773438 c 6,11,-1
 307.240234375 918.501953125 l 6,12,13
 117 1036 117 1036 116.946289062 1251.66503906 c 4,14,15
 116 1503 116 1503 352.834960938 1626.17578125 c 4,16,17
 447 1675 447 1675 597.321289062 1675.49902344 c 4,18,19
 833 1675 833 1675 958.166992188 1499.85644531 c 4,20,21
 1032 1396 1032 1396 1033.43652344 1248.53710938 c 4,22,23
 1034 1175 1034 1175 1025.95898438 1131.32226562 c 5,24,-1
 840.189453125 1129.97558594 l 5,25,26
 835 1271 835 1271 746.059570312 1318.43847656 c 4,27,28
 707 1339 707 1339 638.9296875 1339.16015625 c 4,29,30
 543 1339 543 1339 502.227539062 1278.56152344 c 4,31,32
 485 1253 485 1253 484.209960938 1215.45898438 c 4,33,34
 482.00473748 1117.21106595 482.00473748 1117.21106595 598.321289062 1038.13574219 c 6,35,-1
 655.99609375 998.926757812 l 6,36,37
 835.461914062 876.68537176 835.461914062 876.68537176 835.461914062 687.0625 c 2,38,-1
 835.461914062 672.486328125 l 2,39,40
 834.997501678 624.743164062 834.997501678 624.743164062 778.12890625 624.743164062 c 2,41,-1
 602.620117188 624.743164062 l 2,42,43
 537 625 537 625 536.530273438 671.241210938 c 2,8,-1
EndSplineSet
EndChar

StartChar: uni0621
Encoding: 1569 1569 6
Width: 891
VWidth: 3747
GlyphClass: 2
Flags: W
AnchorPoint: "Anchor-7" 458.756 -167.488 basechar 0
AnchorPoint: "Anchor-10" 436.642 1235.47 basechar 0
LayerCount: 2
Fore
SplineSet
538.663085938 701.862304688 m 0,0,1
 345.59765625 701.862304688 345.59765625 701.862304688 347.248046875 606.561523438 c 0,2,3
 347.731445312 577.063476562 347.731445312 577.063476562 408.711914062 535.482421875 c 0,4,5
 433.063476562 519.463867188 433.063476562 519.463867188 488.544921875 489.829101562 c 1,6,7
 528.647460938 492.845703125 528.647460938 492.845703125 620.060546875 516.067382812 c 2,8,-1
 723.807617188 542.422851562 l 2,9,10
 784.90234375 557.942382812 784.90234375 557.942382812 802.127929688 549.330078125 c 4,11,12
 819.1953125 539.729492188 819.1953125 539.729492188 814.2578125 468.616210938 c 2,13,-1
 795.532226562 210.0625 l 1,14,-1
 84.2666015625 13.8662109375 l 1,15,-1
 114.1328125 380.797851562 l 1,16,-1
 213.447265625 407.6171875 l 1,17,18
 94.9326171875 543.997070312 94.9326171875 543.997070312 164.618164062 757.963867188 c 0,19,20
 216.532226562 916.260742188 216.532226562 916.260742188 361.500976562 963.078125 c 0,21,22
 513.063476562 1012.26074219 513.063476562 1012.26074219 667.873046875 943.552734375 c 0,23,24
 732.795898438 915.194335938 732.795898438 915.194335938 755.359375 892.53515625 c 1,25,26
 728.528320312 754.12890625 728.528320312 754.12890625 701.525390625 673.025390625 c 1,27,28
 617.595703125 701.862304688 617.595703125 701.862304688 538.663085938 701.862304688 c 0,0,1
EndSplineSet
EndChar

StartChar: uni0627
Encoding: 1575 1575 12
Width: 599
VWidth: 3713
GlyphClass: 2
Flags: W
AnchorPoint: "Anchor-10" 332.382 1744.85 basechar 0
AnchorPoint: "Anchor-7" 362.029 -195.043 basechar 0
LayerCount: 2
Fore
SplineSet
162.131835938 564.262695312 m 28,0,1
 143 1118 143 1118 86.890625 1457.53320312 c 5,2,-1
 411.73046875 1660.20703125 l 6,3,4
 461.084960938 1691.05273438 461.084960938 1691.05273438 465.703125 1613 c 4,5,6
 512.724609375 818.4296875 512.724609375 818.4296875 491.513671875 466.798828125 c 4,7,8
 473 148 473 148 417.16796875 70.576171875 c 4,9,10
 351.043945312 -20.939453125 351.043945312 -20.939453125 194.516601562 -14.86328125 c 6,11,-1
 174.014648438 -14.0673828125 l 5,12,-1
 162.131835938 564.262695312 l 28,0,1
EndSplineSet
Substitution2: "'fina' Terminal Forms in Arabic lookup 9 subtable" uniFE8E
EndChar

StartChar: uni062D
Encoding: 1581 1581 18
Width: 1367
VWidth: 3747
GlyphClass: 2
Flags: W
AnchorPoint: "Anchor-7" 475.069 -813.641 basechar 0
AnchorPoint: "Anchor-10" 620.639 1282.02 basechar 0
LayerCount: 2
Fore
SplineSet
422.965820312 739.239257812 m 0,0,1
 327 739 327 739 223.229492188 614.515625 c 1,2,-1
 69.0341796875 662.51953125 l 1,3,4
 132 884 132 884 196.786132812 975.567382812 c 0,5,6
 289 1105 289 1105 454.854492188 1105.75976562 c 0,7,8
 518 1106 518 1106 1017.93554688 957.670898438 c 0,9,10
 1118 928 1118 928 1249.2421875 928.001953125 c 0,11,12
 1258.36997721 927.999917489 1258.36997721 927.999917489 1267.93066406 928.150390625 c 2,13,-1
 1277.85839844 928.306640625 l 2,14,15
 1296.53268302 929.020358774 1296.53268302 929.020358774 1291.61425781 907.727539062 c 2,16,-1
 1207.77148438 544.755859375 l 1,17,18
 874 471 874 471 689.989257812 379.810546875 c 0,19,20
 348 211 348 211 340.692382812 -4.228515625 c 4,21,22
 340 -23 340 -23 342.962890625 -42.3388671875 c 4,23,24
 367 -254 367 -254 788.170898438 -251.796875 c 0,25,26
 931 -251 931 -251 1074.09472656 -233.498046875 c 0,27,28
 1234 -213 1234 -213 1241.23242188 -213.712890625 c 24,29,30
 1263 -216 1263 -216 1262.60546875 -242.649414062 c 0,31,32
 1256 -601 1256 -601 1209.32617188 -618.404296875 c 0,33,34
 1186 -627 1186 -627 1102.41308594 -635.024414062 c 0,35,36
 978 -647 978 -647 794.077148438 -647.38671875 c 0,37,38
 443 -647 443 -647 282.359375 -497.043945312 c 0,39,40
 122 -346 122 -346 121.922851562 -39.9970703125 c 4,41,42
 122 392 122 392 483.4375 616.014648438 c 0,43,44
 564 666 564 666 664.129882812 699.313476562 c 1,45,46
 492 739 492 739 422.965820312 739.239257812 c 0,0,1
EndSplineSet
Substitution2: "'fina' Terminal Forms in Arabic lookup 9 subtable" uniFEA2
Substitution2: "'medi' Medial Forms in Arabic lookup 11 subtable" uniFEA4
Substitution2: "'init' Initial Forms in Arabic lookup 13 subtable" uniFEA3
EndChar

StartChar: uni062F
Encoding: 1583 1583 20
Width: 1051
VWidth: 3745
GlyphClass: 2
Flags: W
AnchorPoint: "Anchor-10" 428.728 1486.38 basechar 0
AnchorPoint: "Anchor-7" 431.616 -195.827 basechar 0
LayerCount: 2
Fore
SplineSet
261.962890625 568.719726562 m 0,0,1
 261 495 261 495 497.852539062 495.565429688 c 0,2,3
 653 496 653 496 723.728515625 544.549804688 c 0,4,5
 739 555 739 555 737.010742188 563.927734375 c 0,6,7
 734 587 734 587 688.528320312 644.888671875 c 0,8,9
 587 770 587 770 333.331054688 949.327148438 c 1,10,-1
 459.720703125 1270.39160156 l 2,11,12
 478 1316 478 1316 516.788085938 1284.25878906 c 0,13,14
 834 1023 834 1023 927.4609375 798.487304688 c 0,15,16
 987 656 987 656 987.193359375 510.9296875 c 0,17,18
 987 366 987 366 929.015625 240.24609375 c 0,19,20
 819 2 819 2 464.383789062 1.947265625 c 4,21,22
 84 2 84 2 65.814453125 345.59765625 c 0,23,24
 59 478 59 478 109.895507812 632.474609375 c 1,25,-1
 263.328125 615.879882812 l 1,26,27
 262 602 262 602 261.962890625 568.719726562 c 0,0,1
EndSplineSet
Substitution2: "'fina' Terminal Forms in Arabic lookup 9 subtable" uniFEAA
EndChar

StartChar: uni0631
Encoding: 1585 1585 22
Width: 871
VWidth: 3752
GlyphClass: 2
Flags: W
AnchorPoint: "Anchor-7" 361.246 -706.137 basechar 0
AnchorPoint: "Anchor-10" 497.21 1115.21 basechar 0
LayerCount: 2
Fore
SplineSet
620.900390625 745.595703125 m 0,0,1
 724 612 724 612 764.970869067 451 c 0,2,3
 796.158197942 326.371702454 796.158197942 326.371702454 795.757132301 202 c 4,4,5
 795.20653544 31.2582007786 795.20653544 31.2582007786 735.122070312 -139 c 0,6,7
 613 -484 613 -484 206.393554688 -631.7265625 c 0,8,9
 178 -642 178 -642 167.823242188 -628.5234375 c 0,10,11
 -11 -369 -11 -369 -19.556640625 -339.661132812 c 0,12,13
 -29 -308 -29 -308 16.068359375 -289.311523438 c 0,14,15
 466 -103 466 -103 497.569335938 88.119140625 c 0,16,17
 516 202 516 202 335.463867188 470.397460938 c 1,18,19
 439 611 439 611 542.329101562 751.995117188 c 0,20,21
 578 801 578 801 620.900390625 745.595703125 c 0,0,1
EndSplineSet
PairPos2: "'kern' Horizontal Kerning lookup 15-1" uniFBFE dx=53 dy=0 dh=53 dv=0 dx=0 dy=0 dh=0 dv=0
PairPos2: "'kern' Horizontal Kerning lookup 15-1" uniFEF3 dx=53 dy=0 dh=53 dv=0 dx=0 dy=0 dh=0 dv=0
PairPos2: "'kern' Horizontal Kerning lookup 15-1" uniFB58 dx=53 dy=0 dh=53 dv=0 dx=0 dy=0 dh=0 dv=0
PairPos2: "'kern' Horizontal Kerning lookup 15-4" uni0621 dx=-196 dy=0 dh=-196 dv=0 dx=0 dy=0 dh=0 dv=0
PairPos2: "'kern' Horizontal Kerning lookup 15-3" uni0648 dx=-43 dy=0 dh=-43 dv=0 dx=0 dy=0 dh=0 dv=0
PairPos2: "'kern' Horizontal Kerning lookup 15-1" uni0632 dx=-43 dy=0 dh=-43 dv=0 dx=0 dy=0 dh=0 dv=0
PairPos2: "'kern' Horizontal Kerning lookup 15-1" uni0631 dx=-43 dy=0 dh=-43 dv=0 dx=0 dy=0 dh=0 dv=0
PairPos2: "'kern' Horizontal Kerning lookup 15-1" uni06CC dx=-43 dy=0 dh=-43 dv=0 dx=0 dy=0 dh=0 dv=0
PairPos2: "'kern' Horizontal Kerning lookup 15-1" uniFEEB dx=-128 dy=0 dh=-128 dv=0 dx=0 dy=0 dh=0 dv=0
PairPos2: "'kern' Horizontal Kerning lookup 15-1" uniFB7C dx=-115 dy=0 dh=-115 dv=0 dx=0 dy=0 dh=0 dv=0
PairPos2: "'kern' Horizontal Kerning lookup 15-1" uniFEDF dx=-128 dy=0 dh=-128 dv=0 dx=0 dy=0 dh=0 dv=0
PairPos2: "'kern' Horizontal Kerning lookup 15-1" uniFB90 dx=-196 dy=0 dh=-196 dv=0 dx=0 dy=0 dh=0 dv=0
PairPos2: "'kern' Horizontal Kerning lookup 15-1" uni06A9 dx=-196 dy=0 dh=-196 dv=0 dx=0 dy=0 dh=0 dv=0
PairPos2: "'kern' Horizontal Kerning lookup 15-1" uni0649 dx=-43 dy=0 dh=-43 dv=0 dx=0 dy=0 dh=0 dv=0
PairPos2: "'kern' Horizontal Kerning lookup 15-1" uni0647 dx=-128 dy=0 dh=-128 dv=0 dx=0 dy=0 dh=0 dv=0
PairPos2: "'kern' Horizontal Kerning lookup 15-1" uniFEE7 dx=-128 dy=0 dh=-128 dv=0 dx=0 dy=0 dh=0 dv=0
PairPos2: "'kern' Horizontal Kerning lookup 15-1" uniFEE3 dx=-128 dy=0 dh=-128 dv=0 dx=0 dy=0 dh=0 dv=0
PairPos2: "'kern' Horizontal Kerning lookup 15-1" uni0645 dx=-128 dy=0 dh=-128 dv=0 dx=0 dy=0 dh=0 dv=0
PairPos2: "'kern' Horizontal Kerning lookup 15-1" uni0644 dx=-43 dy=0 dh=-43 dv=0 dx=0 dy=0 dh=0 dv=0
PairPos2: "'kern' Horizontal Kerning lookup 15-1" uniFEDB dx=-196 dy=0 dh=-196 dv=0 dx=0 dy=0 dh=0 dv=0
PairPos2: "'kern' Horizontal Kerning lookup 15-1" uniFED7 dx=-128 dy=0 dh=-128 dv=0 dx=0 dy=0 dh=0 dv=0
PairPos2: "'kern' Horizontal Kerning lookup 15-1" uni0642 dx=-43 dy=0 dh=-43 dv=0 dx=0 dy=0 dh=0 dv=0
PairPos2: "'kern' Horizontal Kerning lookup 15-1" uniFED3 dx=-128 dy=0 dh=-128 dv=0 dx=0 dy=0 dh=0 dv=0
PairPos2: "'kern' Horizontal Kerning lookup 15-1" uni0641 dx=-128 dy=0 dh=-128 dv=0 dx=0 dy=0 dh=0 dv=0
PairPos2: "'kern' Horizontal Kerning lookup 15-1" uniFECF dx=-128 dy=0 dh=-128 dv=0 dx=0 dy=0 dh=0 dv=0
PairPos2: "'kern' Horizontal Kerning lookup 15-1" uniFECB dx=-128 dy=0 dh=-128 dv=0 dx=0 dy=0 dh=0 dv=0
PairPos2: "'kern' Horizontal Kerning lookup 15-1" uniFEC7 dx=-128 dy=0 dh=-128 dv=0 dx=0 dy=0 dh=0 dv=0
PairPos2: "'kern' Horizontal Kerning lookup 15-1" uni0638 dx=-128 dy=0 dh=-128 dv=0 dx=0 dy=0 dh=0 dv=0
PairPos2: "'kern' Horizontal Kerning lookup 15-1" uniFEC3 dx=-128 dy=0 dh=-128 dv=0 dx=0 dy=0 dh=0 dv=0
PairPos2: "'kern' Horizontal Kerning lookup 15-1" uni0637 dx=-128 dy=0 dh=-128 dv=0 dx=0 dy=0 dh=0 dv=0
PairPos2: "'kern' Horizontal Kerning lookup 15-1" uniFEBF dx=-128 dy=0 dh=-128 dv=0 dx=0 dy=0 dh=0 dv=0
PairPos2: "'kern' Horizontal Kerning lookup 15-1" uni0636 dx=-128 dy=0 dh=-128 dv=0 dx=0 dy=0 dh=0 dv=0
PairPos2: "'kern' Horizontal Kerning lookup 15-1" uniFEBB dx=-128 dy=0 dh=-128 dv=0 dx=0 dy=0 dh=0 dv=0
PairPos2: "'kern' Horizontal Kerning lookup 15-1" uni0635 dx=-128 dy=0 dh=-128 dv=0 dx=0 dy=0 dh=0 dv=0
PairPos2: "'kern' Horizontal Kerning lookup 15-1" uniFEB7 dx=-128 dy=0 dh=-128 dv=0 dx=0 dy=0 dh=0 dv=0
PairPos2: "'kern' Horizontal Kerning lookup 15-1" uni0634 dx=-128 dy=0 dh=-128 dv=0 dx=0 dy=0 dh=0 dv=0
PairPos2: "'kern' Horizontal Kerning lookup 15-1" uniFEB3 dx=-128 dy=0 dh=-128 dv=0 dx=0 dy=0 dh=0 dv=0
PairPos2: "'kern' Horizontal Kerning lookup 15-1" uni0633 dx=-128 dy=0 dh=-128 dv=0 dx=0 dy=0 dh=0 dv=0
PairPos2: "'kern' Horizontal Kerning lookup 15-1" uni0630 dx=-128 dy=0 dh=-128 dv=0 dx=0 dy=0 dh=0 dv=0
PairPos2: "'kern' Horizontal Kerning lookup 15-1" uni062F dx=-128 dy=0 dh=-128 dv=0 dx=0 dy=0 dh=0 dv=0
PairPos2: "'kern' Horizontal Kerning lookup 15-1" uniFEA7 dx=-128 dy=0 dh=-128 dv=0 dx=0 dy=0 dh=0 dv=0
PairPos2: "'kern' Horizontal Kerning lookup 15-1" uniFEA3 dx=-128 dy=0 dh=-128 dv=0 dx=0 dy=0 dh=0 dv=0
PairPos2: "'kern' Horizontal Kerning lookup 15-1" uniFE9F dx=-128 dy=0 dh=-128 dv=0 dx=0 dy=0 dh=0 dv=0
PairPos2: "'kern' Horizontal Kerning lookup 15-1" uniFE9B dx=-128 dy=0 dh=-128 dv=0 dx=0 dy=0 dh=0 dv=0
PairPos2: "'kern' Horizontal Kerning lookup 15-1" uni062B dx=-128 dy=0 dh=-128 dv=0 dx=0 dy=0 dh=0 dv=0
PairPos2: "'kern' Horizontal Kerning lookup 15-1" uniFE97 dx=-128 dy=0 dh=-128 dv=0 dx=0 dy=0 dh=0 dv=0
PairPos2: "'kern' Horizontal Kerning lookup 15-1" uni062A dx=-128 dy=0 dh=-128 dv=0 dx=0 dy=0 dh=0 dv=0
PairPos2: "'kern' Horizontal Kerning lookup 15-1" uni0629 dx=-128 dy=0 dh=-128 dv=0 dx=0 dy=0 dh=0 dv=0
PairPos2: "'kern' Horizontal Kerning lookup 15-1" uniFE91 dx=-53 dy=0 dh=-53 dv=0 dx=0 dy=0 dh=0 dv=0
PairPos2: "'kern' Horizontal Kerning lookup 15-1" uni0628 dx=-128 dy=0 dh=-128 dv=0 dx=0 dy=0 dh=0 dv=0
PairPos2: "'kern' Horizontal Kerning lookup 15-1" uni0627 dx=-196 dy=0 dh=-196 dv=0 dx=0 dy=0 dh=0 dv=0
PairPos2: "'kern' Horizontal Kerning lookup 15-1" uni0622 dx=-196 dy=0 dh=-196 dv=0 dx=0 dy=0 dh=0 dv=0
PairPos2: "'kern' Horizontal Kerning lookup 15-1" uniFB94 dx=-196 dy=0 dh=-196 dv=0 dx=0 dy=0 dh=0 dv=0
PairPos2: "'kern' Horizontal Kerning lookup 15-1" afii57509 dx=-196 dy=0 dh=-196 dv=0 dx=0 dy=0 dh=0 dv=0
PairPos2: "'kern' Horizontal Kerning lookup 15-1" uniFB56 dx=-128 dy=0 dh=-128 dv=0 dx=0 dy=0 dh=0 dv=0
PairPos2: "'kern' Horizontal Kerning lookup 15-1" afii57506 dx=-128 dy=0 dh=-128 dv=0 dx=0 dy=0 dh=0 dv=0
Substitution2: "'fina' Terminal Forms in Arabic lookup 9 subtable" uniFEAE
EndChar

StartChar: uni0633
Encoding: 1587 1587 24
Width: 2469
VWidth: 3752
GlyphClass: 2
Flags: W
AnchorPoint: "Anchor-7" 492.413 -775.066 basechar 0
AnchorPoint: "Anchor-10" 674.869 1010.76 basechar 0
LayerCount: 2
Fore
SplineSet
697.401367188 -567.462890625 m 4,0,1
 374 -567 374 -567 224.981445312 -405.92578125 c 0,2,3
 81 -252 81 -252 80 33 c 0,4,5
 79 286 79 286 203.59765625 549.060546875 c 1,6,-1
 380.661132812 499.107421875 l 1,7,8
 277 154 277 154 380.943359375 24.2216796875 c 0,9,10
 479 -97 479 -97 723.661132812 -95.935546875 c 0,11,12
 997 -94 997 -94 1107.68945312 42.5625 c 0,13,14
 1142 85 1142 85 1104.39941406 161.391601562 c 0,15,16
 1086 199 1086 199 941.727539062 411.73046875 c 1,17,-1
 1164.41015625 697.595703125 l 2,18,19
 1185.72757456 724.6542065 1185.72757456 724.6542065 1209.67578125 691.1953125 c 2,20,-1
 1267.9765625 609.741210938 l 2,21,22
 1350 495 1350 495 1473.85253906 497.793945312 c 8,23,24
 1593.98877859 500.999700564 1593.98877859 500.999700564 1612.23730469 643.225585938 c 2,25,-1
 1628.53613281 770.255859375 l 1,26,-1
 1787.21582031 770.255859375 l 1,27,-1
 1807.09570312 643.75390625 l 2,28,29
 1831 491 1831 491 1973.27246094 490.791992188 c 16,30,31
 2059 491 2059 491 2098.77148438 536.8203125 c 0,32,33
 2117 557 2117 557 2110.89355469 594.861328125 c 0,34,35
 2104.10941205 634.36293327 2104.10941205 634.36293327 2073.76953125 691.861328125 c 2,36,-1
 2023.7109375 786.729492188 l 1,37,-1
 2202.63476562 1009.18847656 l 2,38,39
 2230 1043 2230 1043 2252.27832031 1008.12207031 c 0,40,41
 2379 813 2379 813 2378.13378906 587.452148438 c 0,42,43
 2377 333 2377 333 2240.47753906 140.709960938 c 0,44,45
 2137 -5 2137 -5 1992.76953125 -4.138671875 c 8,46,47
 1843 -4 1843 -4 1705.25585938 172.688476562 c 1,48,49
 1580 -1 1580 -1 1478.05859375 -1.294921875 c 0,50,51
 1426 -1 1426 -1 1357.47265625 34.34375 c 1,52,53
 1332 -295 1332 -295 1129.25488281 -445.1953125 c 0,54,55
 965 -567 965 -567 697.401367188 -567.462890625 c 4,0,1
EndSplineSet
Substitution2: "'fina' Terminal Forms in Arabic lookup 9 subtable" uniFEB2
Substitution2: "'medi' Medial Forms in Arabic lookup 11 subtable" uniFEB4
Substitution2: "'init' Initial Forms in Arabic lookup 13 subtable" uniFEB3
EndChar

StartChar: uni0635
Encoding: 1589 1589 26
Width: 2656
VWidth: 3753
GlyphClass: 2
Flags: W
AnchorPoint: "Anchor-7" 394.28 -753.732 basechar 0
AnchorPoint: "Anchor-10" 674.869 1010.76 basechar 0
LayerCount: 2
Fore
SplineSet
697.401367188 -567.462890625 m 4,0,1
 375 -568 375 -568 224.981445312 -405.92578125 c 0,2,3
 81 -252 81 -252 80 33 c 0,4,5
 79 286 79 286 203.59765625 549.060546875 c 1,6,-1
 380.661132812 499.107421875 l 1,7,8
 277 154 277 154 380.943359375 24.2216796875 c 0,9,10
 479 -97 479 -97 723.661132812 -95.935546875 c 0,11,12
 997 -94 997 -94 1107.68945312 42.5625 c 0,13,14
 1142 85 1142 85 1104.39941406 161.391601562 c 0,15,16
 1086 199 1086 199 941.727539062 411.73046875 c 1,17,-1
 1160.25488281 692.262695312 l 2,18,19
 1185.73191922 724.659110422 1185.73191922 724.659110422 1208.0625 695.461914062 c 2,20,-1
 1271.17578125 612.94140625 l 2,21,22
 1360 497 1360 497 1461.16210938 498.990234375 c 1,23,24
 1579 647 1579 647 1630.37402344 702.991210938 c 0,25,26
 1949 1052 1949 1052 2252.71191406 1050.88769531 c 0,27,28
 2460 1050 2460 1050 2542.8671875 887.485351562 c 0,29,30
 2585 805 2585 805 2585.11230469 702.662109375 c 0,31,32
 2585 520 2585 520 2498.98535156 366.149414062 c 0,33,34
 2293.02599533 0.0462080195597 2293.02599533 0.0462080195597 1810.41503906 0.013671875 c 2,35,-1
 1607.61914062 0 l 2,36,37
 1463 -0 1463 -0 1357.47265625 34.34375 c 1,38,39
 1332 -295 1332 -295 1129.25488281 -445.1953125 c 0,40,41
 965 -567 965 -567 697.401367188 -567.462890625 c 4,0,1
1691.22167969 496.548828125 m 1,42,-1
 1932.92089844 496.548828125 l 2,43,44
 2257.83105469 497.028320312 2257.83105469 497.028320312 2321.58496094 543.228515625 c 0,45,46
 2340.65820312 556.756835938 2340.65820312 556.756835938 2336.33691406 583.42578125 c 0,47,48
 2318.2578125 692.22265625 2318.2578125 692.22265625 2129.85253906 691.2890625 c 0,49,50
 1955.59375 690.08984375 1955.59375 690.08984375 1758.36914062 548.94921875 c 0,51,52
 1730.52832031 529.0234375 1730.52832031 529.0234375 1691.22167969 496.548828125 c 1,42,-1
EndSplineSet
Substitution2: "'fina' Terminal Forms in Arabic lookup 9 subtable" uniFEBA
Substitution2: "'medi' Medial Forms in Arabic lookup 11 subtable" uniFEBC
Substitution2: "'init' Initial Forms in Arabic lookup 13 subtable" uniFEBB
EndChar

StartChar: uni0637
Encoding: 1591 1591 28
Width: 1655
VWidth: 3753
GlyphClass: 2
Flags: W
AnchorPoint: "Anchor-10" 522.374 1809.33 basechar 0
AnchorPoint: "Anchor-7" 761.973 -190.535 basechar 0
LayerCount: 2
Fore
SplineSet
679.622070312 494.455078125 m 1,0,-1
 921.321289062 494.455078125 l 2,1,2
 1246.23144531 494.934570312 1246.23144531 494.934570312 1309.98535156 541.134765625 c 0,3,4
 1329.05859375 554.663085938 1329.05859375 554.663085938 1324.73730469 581.33203125 c 0,5,6
 1306.65820312 690.12890625 1306.65820312 690.12890625 1118.25390625 689.1953125 c 0,7,8
 943.994140625 687.99609375 943.994140625 687.99609375 746.76953125 546.856445312 c 0,9,10
 718.928710938 526.9296875 718.928710938 526.9296875 679.622070312 494.455078125 c 1,0,-1
733.862304688 811.049804688 m 5,11,12
 1005 1049 1005 1049 1241.11230469 1048.79394531 c 4,13,14
 1447 1048 1447 1048 1531.26757812 885.391601562 c 4,15,16
 1574 802 1574 802 1573.81835938 695.1953125 c 4,17,18
 1573 517 1573 517 1487.38574219 364.055664062 c 0,19,20
 1281.97334593 -2.04750510608 1281.97334593 -2.04750510608 798.815429688 -2.080078125 c 2,21,-1
 596.01953125 -2.09375 l 2,22,-1
 299.203125 -0.7548828125 l 1,23,24
 145 166 145 166 70.3994140625 369.064453125 c 0,25,26
 24.1678025022 494.544556751 24.1678025022 494.544556751 173.862304688 494.588867188 c 2,27,-1
 437.79296875 494.666992188 l 1,28,29
 421 1150 421 1150 368.059570312 1456.72949219 c 1,30,-1
 680.529296875 1659.83984375 l 2,31,32
 734.516504508 1694.68790972 734.516504508 1694.68790972 734.463867188 1623.58984375 c 2,33,-1
 733.862304688 811.049804688 l 5,11,12
EndSplineSet
Substitution2: "'fina' Terminal Forms in Arabic lookup 9 subtable" uniFEC2
Substitution2: "'medi' Medial Forms in Arabic lookup 11 subtable" uniFEC4
Substitution2: "'init' Initial Forms in Arabic lookup 13 subtable" uniFEC3
EndChar

StartChar: uni0639
Encoding: 1593 1593 30
Width: 1271
VWidth: 3747
GlyphClass: 2
Flags: W
AnchorPoint: "Anchor-7" 438.803 -826.44 basechar 0
AnchorPoint: "Anchor-10" 726.718 1528.67 basechar 0
LayerCount: 2
Fore
SplineSet
745.504882812 -251.796875 m 0,0,1
 846 -251 846 -251 988.76171875 -233.498046875 c 0,2,3
 1149 -213 1149 -213 1155.90039062 -213.712890625 c 24,4,5
 1178 -216 1178 -216 1177.27246094 -242.649414062 c 0,6,7
 1170 -599 1170 -599 1123.99316406 -618.404296875 c 0,8,9
 1104 -627 1104 -627 1017.08007812 -635.024414062 c 0,10,11
 893 -647 893 -647 751.411132812 -647.38671875 c 8,12,13
 407 -648 407 -648 246.725585938 -497.250976562 c 0,14,15
 85 -346 85 -346 85.6572265625 -38.7568359375 c 0,16,17
 86 342 86 342 382.255859375 539.606445312 c 1,18,19
 220 710 220 710 277.098632812 935.810546875 c 0,20,21
 286 971 286 971 292.353515625 988.684570312 c 0,22,23
 330 1088 330 1088 401 1155.84863281 c 4,24,25
 509 1257 509 1257 661.338867188 1271.52246094 c 0,26,27
 916 1296 916 1296 1053.33789062 1118.29296875 c 1,28,-1
 991.099609375 913.662109375 l 1,29,30
 839 975 839 975 750.045898438 971.405273438 c 0,31,32
 603 967 603 967 516.5546875 903.259765625 c 0,33,34
 470 869 470 869 470.438476562 829.668945312 c 0,35,36
 471 765 471 765 634.70703125 678.009765625 c 0,37,38
 663 663 663 663 667.451171875 663.979492188 c 0,39,40
 766 676 766 676 944.884765625 706.795898438 c 1,41,-1
 1101.65332031 724.502929688 l 2,42,43
 1150 730 1150 730 1158.67578125 703.966796875 c 0,44,45
 1166.93246872 681.186321061 1166.93246872 681.186321061 1160.47070312 651.517578125 c 2,46,-1
 1093.03613281 341.896484375 l 1,47,48
 732 337 732 337 508.4765625 223.208984375 c 0,49,50
 288 111 288 111 306.78125 -53.79296875 c 0,51,52
 330 -255 330 -255 745.504882812 -251.796875 c 0,0,1
EndSplineSet
Substitution2: "'fina' Terminal Forms in Arabic lookup 9 subtable" uniFECA
Substitution2: "'medi' Medial Forms in Arabic lookup 11 subtable" uniFECC
Substitution2: "'init' Initial Forms in Arabic lookup 13 subtable" uniFECB
EndChar

StartChar: afii57440
Encoding: 1600 1600 32
Width: 245
VWidth: 3780
GlyphClass: 2
Flags: W
AnchorPoint: "Anchor-10" 127.433 1582.74 basechar 0
AnchorPoint: "Anchor-7" 129.767 -194.27 basechar 0
LayerCount: 2
Fore
SplineSet
-11.3662109375 0 m 1,0,-1
 -11.3662109375 494.930664062 l 1,1,-1
 258.340820312 494.930664062 l 1,2,-1
 258.340820312 0 l 1,3,-1
 -11.3662109375 0 l 1,0,-1
EndSplineSet
EndChar

StartChar: uni0643
Encoding: 1603 1603 35
Width: 2064
VWidth: 3713
GlyphClass: 2
Flags: W
AnchorPoint: "Anchor-10" 623.587 1633.45 basechar 0
AnchorPoint: "Anchor-7" 605.161 -175.19 basechar 0
LayerCount: 2
Fore
SplineSet
916.345703125 0 m 0,0,1
 490 0 490 0 302.755859375 102.430664062 c 0,2,3
 11 262 11 262 97.220703125 720.212890625 c 0,4,5
 123 858 123 858 191.454101562 994.09375 c 1,6,-1
 345.471679688 938.2109375 l 1,7,8
 288 726 288 726 341.830078125 647.635742188 c 0,9,10
 441 502 441 502 815.375 492.763671875 c 0,11,12
 1374 479 1374 479 1590.57128906 625.1171875 c 0,13,14
 1620 645 1620 645 1599.36230469 1039.35644531 c 0,15,16
 1582 1376 1582 1376 1570.63476562 1457.25195312 c 1,17,-1
 1903.85449219 1658.67773438 l 6,18,19
 1941.56445313 1681.67858157 1941.56445313 1681.67858157 1941.56445312 1617.18945312 c 6,20,-1
 1941.56445312 741.268554688 l 2,21,22
 1942 309 1942 309 1723.30859375 160.013671875 c 0,23,24
 1488 0 1488 0 916.345703125 0 c 0,0,1
1151.23339844 767.109375 m 0,25,26
 1002 666 1002 666 698.579101562 762.51171875 c 1,27,-1
 718.5859375 967.451171875 l 1,28,29
 868 914 868 914 963.1953125 914.49609375 c 0,30,31
 1035 915 1035 915 1075.58203125 932.038085938 c 0,32,33
 1104 944 1104 944 1106.55273438 963.125 c 1,34,35
 1100 984 1100 984 999.1328125 1005.84179688 c 0,36,37
 796 1050 796 1050 801.818359375 1243.54296875 c 0,38,39
 809 1452 809 1452 1146.58886719 1495.87304688 c 0,40,41
 1216 1505 1216 1505 1227.62792969 1487.36328125 c 0,42,43
 1243 1466 1243 1466 1222.75683594 1419.70605469 c 1,44,-1
 1179.82519531 1296.83789062 l 1,45,46
 942 1274 942 1274 941.956054688 1225.328125 c 0,47,48
 942 1206 942 1206 1034.06445312 1190.328125 c 0,49,50
 1126 1174 1126 1174 1168.37304688 1146.43652344 c 0,51,52
 1253 1090 1253 1090 1255.92285156 965.239257812 c 0,53,54
 1259 841 1259 841 1151.23339844 767.109375 c 0,25,26
EndSplineSet
Substitution2: "'fina' Terminal Forms in Arabic lookup 9 subtable" uniFEDA
Substitution2: "'medi' Medial Forms in Arabic lookup 11 subtable" uniFEDC
Substitution2: "'init' Initial Forms in Arabic lookup 13 subtable" uniFEDB
EndChar

StartChar: uni0644
Encoding: 1604 1604 36
Width: 1462
VWidth: 3753
GlyphClass: 2
Flags: W
AnchorPoint: "Anchor-10" 619.865 1522.54 basechar 0
AnchorPoint: "Anchor-7" 582.818 -819.482 basechar 0
LayerCount: 2
Fore
SplineSet
704.276367188 -517.120117188 m 4,0,1
 373 -516 373 -516 224.981445312 -355.526367188 c 0,2,3
 70 -189 70 -189 77.6962890625 86 c 24,4,5
 85 334 85 334 203.612304688 599.45703125 c 1,6,-1
 380.66796875 549.506835938 l 1,7,8
 276 200 276 200 380.264648438 73.2001953125 c 0,9,10
 480 -48 480 -48 712.952148438 -45.5361328125 c 0,11,12
 951 -44 951 -44 1040.31640625 103.75390625 c 0,13,14
 1075 161 1075 161 1066.71582031 266.936523438 c 1,15,16
 1027 886 1027 886 955.416015625 1464.65039062 c 1,17,-1
 1246 1642.22753906 l 2,18,19
 1317.67235664 1685.80080894 1317.67235664 1685.80080894 1319.56835938 1612 c 2,20,-1
 1342.59375 715.75 l 2,21,22
 1354 254 1354 254 1344.50195312 109.107421875 c 0,23,24
 1341 58 1341 58 1329.45800781 -5.8662109375 c 0,25,26
 1318 -69 1318 -69 1303.60058594 -113.259765625 c 0,27,28
 1244 -290 1244 -290 1110.49804688 -392.98046875 c 0,29,30
 950 -517 950 -517 704.276367188 -517.120117188 c 4,0,1
EndSplineSet
Substitution2: "'fina' Terminal Forms in Arabic lookup 9 subtable" uniFEDE
Substitution2: "'medi' Medial Forms in Arabic lookup 11 subtable" uniFEE0
Substitution2: "'init' Initial Forms in Arabic lookup 13 subtable" uniFEDF
EndChar

StartChar: uni0645
Encoding: 1605 1605 37
Width: 1253
VWidth: 3783
GlyphClass: 2
Flags: W
AnchorPoint: "Anchor-10" 642.993 1454.86 basechar 0
AnchorPoint: "Anchor-7" 322.265 -919.098 basechar 0
LayerCount: 2
Fore
SplineSet
370.572265625 95.486328125 m 1,0,-1
 385.454101562 -399.473632812 l 2,1,2
 389 -513 389 -513 259.278320312 -649 c 0,3,4
 240.607125457 -668.557283755 240.607125457 -668.557283755 219 -687.601102996 c 0,5,6
 108.701093691 -784.814979891 108.701093691 -784.814979891 104.926433774 -663 c 2,7,-1
 102.013671875 -569 l 0,8,-1
 90.63671875 -231.83203125 l 2,9,10
 78.8640321915 126.134306835 78.8640321915 126.134306835 118.061523438 274.493164062 c 0,11,12
 175 490 175 490 353.703125 563.305664062 c 1,13,14
 454 938 454 938 628.233398438 1014.07226562 c 0,15,16
 761 1072 761 1072 899.709960938 991.415039062 c 0,17,18
 1104 874 1104 874 1156.56835938 615.728515625 c 0,19,20
 1185 475 1185 475 1149.77050781 353.2734375 c 0,21,22
 1110 219 1110 219 1057.06054688 148.265625 c 0,23,24
 1004 78 1004 78 971.494140625 63.0205078125 c 0,25,26
 938 47 938 47 905.1875 54.1796875 c 0,27,28
 486 147 486 147 370.572265625 95.486328125 c 1,0,-1
931.943359375 531.497070312 m 1,29,30
 921.594726562 606.9296875 921.594726562 606.9296875 845.12890625 677.443359375 c 0,31,32
 693.329101562 818.127929688 693.329101562 818.127929688 572.778320312 620.1953125 c 0,33,34
 558.9296875 597.330078125 558.9296875 597.330078125 549.029296875 573.71875 c 1,35,36
 728.528320312 563.196289062 728.528320312 563.196289062 810.288085938 547.961914062 c 0,37,38
 901.328125 531.196289062 901.328125 531.196289062 931.943359375 531.497070312 c 1,29,30
EndSplineSet
Substitution2: "'init' Initial Forms in Arabic lookup 13 subtable" uniFEE3
Substitution2: "'medi' Medial Forms in Arabic lookup 11 subtable" uniFEE4
Substitution2: "'fina' Terminal Forms in Arabic lookup 9 subtable" uniFEE2
EndChar

StartChar: uni0647
Encoding: 1607 1607 39
Width: 942
VWidth: 3746
GlyphClass: 2
Flags: W
AnchorPoint: "Anchor-10" 396.569 1288.81 basechar 0
AnchorPoint: "Anchor-7" 452.886 -195.5 basechar 0
LayerCount: 2
Fore
SplineSet
411.143554688 681.3046875 m 5,0,1
 280.53125 523.3671875 280.53125 523.3671875 322.099609375 480.587890625 c 4,2,3
 358.397460938 443.154296875 358.397460938 443.154296875 475.942382812 444.290039062 c 4,4,5
 626.129882812 445.16015625 626.129882812 445.16015625 645.311523438 515.793945312 c 4,6,7
 651.729492188 540.412109375 651.729492188 540.412109375 627.388671875 570.76171875 c 4,8,9
 589.86328125 619.623046875 589.86328125 619.623046875 428.806640625 675.203125 c 4,10,11
 421.331054688 677.77734375 421.331054688 677.77734375 411.143554688 681.3046875 c 5,0,1
876.616210938 513.616210938 m 4,12,13
 879.994140625 267.688476562 879.994140625 267.688476562 762.028320312 126.057617188 c 4,14,15
 654.9296875 -2.02734375 654.9296875 -2.02734375 467.197265625 1.984375 c 132,-1,16
 279.46484375 5.9951171875 279.46484375 5.9951171875 183.108398438 111.965820312 c 4,17,18
 75.732421875 229.587890625 75.732421875 229.587890625 74.6650390625 416.802734375 c 4,19,20
 73.599609375 707.857421875 73.599609375 707.857421875 317.375976562 1033.65722656 c 4,21,22
 359.46484375 1089.87011719 359.46484375 1089.87011719 418.420898438 1067.13671875 c 4,23,24
 785.413085938 924.884765625 785.413085938 924.884765625 853.040039062 666.982421875 c 4,25,26
 874.661132812 583.526367188 874.661132812 583.526367188 876.616210938 513.616210938 c 4,12,13
EndSplineSet
Substitution2: "'fina' Terminal Forms in Arabic lookup 9 subtable" uniFEEA
Substitution2: "'medi' Medial Forms in Arabic lookup 11 subtable" uniFEEC
Substitution2: "'init' Initial Forms in Arabic lookup 13 subtable" uniFEEB
EndChar

StartChar: uni0648
Encoding: 1608 1608 40
Width: 927
VWidth: 3781
GlyphClass: 2
Flags: W
AnchorPoint: "Anchor-10" 437.92 1194.73 basechar 0
AnchorPoint: "Anchor-7" 354.985 -695.645 basechar 0
LayerCount: 2
Fore
SplineSet
89.068359375 -289.311523438 m 4,0,1
 442 -143 442 -143 533 -3 c 9,2,-1
 500.3671875 -4.5771484375 l 2,3,4
 300 -14 300 -14 204.194335938 100.319335938 c 0,5,6
 54 279 54 279 162.798828125 633.66015625 c 0,7,8
 210 787 210 787 280.213867188 865.26171875 c 0,9,10
 365 960 365 960 476.821289062 961.955078125 c 0,11,12
 721 966 721 966 805.818359375 663.370117188 c 0,13,14
 850 507 850 507 856.275390625 336.002929688 c 0,15,16
 864 149 864 149 834.39178977 -2 c 0,17,18
 820 -75 820 -75 798.122070312 -139 c 0,19,20
 677 -487 677 -487 279.393554688 -631.7265625 c 4,21,22
 251 -642 251 -642 240.823242188 -628.5234375 c 4,23,24
 126.227008451 -481.626775889 126.227008451 -481.626775889 61 -359 c 4,25,26
 36 -312 36 -312 89.068359375 -289.311523438 c 4,0,1
623.155273438 486.203125 m 1,27,28
 602.331054688 540.822265625 602.331054688 540.822265625 577.75 576 c 0,29,30
 530.5625 643.529296875 530.5625 643.529296875 448 642.52734375 c 0,31,32
 372.903320312 641.615234375 372.903320312 641.615234375 348.184570312 577.583984375 c 0,33,34
 320 505 320 505 400.825195312 492.162109375 c 0,35,36
 473.510742188 480.920898438 473.510742188 480.920898438 558.388671875 483.916992188 c 2,37,-1
 623.155273438 486.203125 l 1,27,28
EndSplineSet
Substitution2: "'fina' Terminal Forms in Arabic lookup 9 subtable" uniFEEE
EndChar

StartChar: uni0649
Encoding: 1609 1609 41
Width: 1610
VWidth: 3753
GlyphClass: 2
Flags: W
AnchorPoint: "Anchor-10" 621.179 1091.08 basechar 0
AnchorPoint: "Anchor-7" 506.738 -705.887 basechar 0
LayerCount: 2
Fore
SplineSet
715.022460938 -544.540039062 m 4,0,1
 385 -545 385 -545 224.756835938 -378.240234375 c 4,2,3
 81 -230 81 -230 82.02734375 59.9990234375 c 4,4,5
 83 412 83 412 266.427734375 719.716796875 c 5,6,-1
 421.331054688 673.329101562 l 5,7,8
 331 418 331 418 332.927734375 255.198242188 c 4,9,10
 337.08120306 -91.7837270372 337.08120306 -91.7837270372 772 -92.8463885858 c 4,11,12
 1075 -94 1075 -94 1217.59179688 19.5400390625 c 4,13,14
 1230.65488466 30.1348957898 1230.65488466 30.1348957898 1210.12597656 33.3037109375 c 6,15,-1
 940 75 l 6,16,17
 803 96 803 96 771.728515625 157.598632812 c 4,18,19
 731 240 731 240 779.249023438 434.127929688 c 4,20,21
 835 657 835 657 964 800 c 4,22,23
 1128 981 1128 981 1341 983.62109375 c 4,24,25
 1463 985 1463 985 1546.43847656 919.826171875 c 5,26,27
 1520 746 1520 746 1493.85742188 571.462890625 c 5,28,-1
 1455.90722656 577.022460938 l 6,29,30
 1193 615 1193 615 1007.06054688 428.129882812 c 5,31,-1
 1153.59277344 403.596679688 l 6,32,33
 1359.5905295 369.428437648 1359.5905295 369.428437648 1401.52359271 337 c 4,34,35
 1482.57875985 274.316946771 1482.57875985 274.316946771 1481.32226562 147 c 4,36,37
 1478 -149 1478 -149 1281.32519531 -340.076171875 c 4,38,39
 1072 -545 1072 -545 715.022460938 -544.540039062 c 4,0,1
EndSplineSet
Substitution2: "'fina' Terminal Forms in Arabic lookup 9 subtable" uniFEF0
Substitution2: "'medi' Medial Forms in Arabic lookup 11 subtable" uniFBE9
Substitution2: "'init' Initial Forms in Arabic lookup 13 subtable" uniFBE8
EndChar

StartChar: uni064B
Encoding: 1611 1611 43
Width: -25
VWidth: 2410
GlyphClass: 4
Flags: W
AnchorPoint: "Anchor-10" 637 1182.3 mark 0
AnchorPoint: "Anchor-9" 637 1182.3 mark 0
AnchorPoint: "Anchor-1" 595.196 1756 basemark 0
AnchorPoint: "Anchor-1" 637 1182.3 mark 0
LayerCount: 2
Fore
SplineSet
295.28125 1095.7578125 m 1,0,-1
 295.28125 1259.64550781 l 1,1,-1
 862.359375 1491.53027344 l 1,2,-1
 862.359375 1327.63769531 l 1,3,-1
 295.28125 1095.7578125 l 1,0,-1
295.28125 1381.59472656 m 1,4,-1
 295.28125 1545.48242188 l 1,5,-1
 862.359375 1777.36328125 l 1,6,-1
 862.359375 1613.47460938 l 1,7,-1
 295.28125 1381.59472656 l 1,4,-1
EndSplineSet
EndChar

StartChar: uni064C
Encoding: 1612 1612 44
Width: -25
VWidth: 2410
GlyphClass: 4
Flags: W
AnchorPoint: "Anchor-10" 706.932 1291.33 mark 0
AnchorPoint: "Anchor-9" 706.932 1291.33 mark 0
AnchorPoint: "Anchor-1" 593.593 2014.74 basemark 0
AnchorPoint: "Anchor-1" 706.932 1291.33 mark 0
LayerCount: 2
Fore
SplineSet
717.16015625 1678.85058594 m 1,0,1
 731.6796875 1712.73632812 731.6796875 1712.73632812 731.6796875 1731.08789062 c 128,-1,2
 731.6796875 1749.44042969 731.6796875 1749.44042969 728.889648438 1762.07324219 c 128,-1,3
 726.098632812 1774.70800781 726.098632812 1774.70800781 721.3359375 1782.35839844 c 0,4,5
 706.833984375 1805.66210938 706.833984375 1805.66210938 685.055664062 1805.66210938 c 0,6,7
 626.053710938 1805.66210938 626.053710938 1805.66210938 621.469726562 1765.87207031 c 0,8,9
 620.82421875 1760.27539062 620.82421875 1760.27539062 620.82421875 1747.06835938 c 0,10,11
 620.82421875 1712.95507812 620.82421875 1712.95507812 682.21875 1690.63183594 c 0,12,13
 694.83984375 1686.04199219 694.83984375 1686.04199219 717.16015625 1678.85058594 c 1,0,1
864.051757812 1655.39355469 m 1,14,15
 886.036132812 1654.48828125 886.036132812 1654.48828125 914.346679688 1653.79394531 c 2,16,-1
 945.5625 1653.02832031 l 1,17,-1
 945.5625 1508.87695312 l 1,18,-1
 913.05078125 1509.3984375 l 2,19,20
 875.076171875 1510.00683594 875.076171875 1510.00683594 858.514648438 1511.66992188 c 2,21,-1
 801.72265625 1517.12792969 l 1,22,23
 737.95703125 1385.80957031 737.95703125 1385.80957031 617.995117188 1301.38867188 c 0,24,25
 548.068359375 1252.18359375 548.068359375 1252.18359375 481.021484375 1251.87207031 c 0,26,27
 357.724609375 1251.29785156 357.724609375 1251.29785156 301.3203125 1341.61035156 c 128,-1,28
 244.916992188 1431.92382812 244.916992188 1431.92382812 241.787109375 1597.25390625 c 2,29,-1
 241.171875 1629.85839844 l 1,30,-1
 360.03515625 1629.85839844 l 1,31,-1
 362.076171875 1600.04199219 l 2,32,33
 369.756835938 1487.72265625 369.756835938 1487.72265625 381.821289062 1461.1640625 c 0,34,35
 399.028320312 1423.28515625 399.028320312 1423.28515625 415.466796875 1408.31640625 c 128,-1,36
 431.904296875 1393.34765625 431.904296875 1393.34765625 451.89453125 1393.82421875 c 0,37,38
 583.236328125 1396.95507812 583.236328125 1396.95507812 664.440429688 1546.90234375 c 1,39,40
 529.533203125 1579.07324219 529.533203125 1579.07324219 483.489257812 1691.99316406 c 0,41,42
 474.251953125 1714.64550781 474.251953125 1714.64550781 474.251953125 1736.47851562 c 128,-1,43
 474.251953125 1758.31054688 474.251953125 1758.31054688 474.405273438 1762.12695312 c 0,44,45
 480.169921875 1906.3046875 480.169921875 1906.3046875 607.904296875 1941.70898438 c 0,46,47
 637.365234375 1949.87304688 637.365234375 1949.87304688 656.294921875 1949.87304688 c 128,-1,48
 675.225585938 1949.87304688 675.225585938 1949.87304688 678.59375 1949.79589844 c 128,-1,49
 681.959960938 1949.71875 681.959960938 1949.71875 685.291992188 1949.56445312 c 128,-1,50
 688.623046875 1949.41015625 688.623046875 1949.41015625 691.903320312 1949.17773438 c 0,51,52
 818.53125 1940.20703125 818.53125 1940.20703125 861.67578125 1825.03613281 c 0,53,54
 875.892578125 1787.09570312 875.892578125 1787.09570312 875.892578125 1742.10058594 c 128,-1,55
 875.892578125 1697.10546875 875.892578125 1697.10546875 864.051757812 1655.39355469 c 1,14,15
EndSplineSet
EndChar

StartChar: uni064D
Encoding: 1613 1613 45
Width: -24
VWidth: 2238
GlyphClass: 4
Flags: W
AnchorPoint: "Anchor-7" 534.761 99.6797 mark 0
AnchorPoint: "Anchor-6" 534.761 99.6797 mark 0
AnchorPoint: "Anchor-0" 614.975 -426.579 basemark 0
AnchorPoint: "Anchor-0" 534.761 99.6797 mark 0
LayerCount: 2
Fore
SplineSet
270.962890625 -511.685546875 m 1,0,-1
 270.962890625 -343.609375 l 1,1,-1
 811.143554688 -122.7265625 l 1,2,-1
 811.143554688 -290.798828125 l 1,3,-1
 270.962890625 -511.685546875 l 1,0,-1
270.962890625 -247.0234375 m 1,4,-1
 270.962890625 -78.9462890625 l 1,5,-1
 811.143554688 141.936523438 l 1,6,-1
 811.143554688 -26.1376953125 l 1,7,-1
 270.962890625 -247.0234375 l 1,4,-1
EndSplineSet
EndChar

StartChar: uni064E
Encoding: 1614 1614 46
Width: -24
VWidth: 2238
GlyphClass: 4
Flags: W
AnchorPoint: "Anchor-10" 541.027 1343.54 mark 0
AnchorPoint: "Anchor-9" 541.027 1343.54 mark 0
AnchorPoint: "Anchor-1" 520.452 1658.02 basemark 0
AnchorPoint: "Anchor-1" 541.027 1343.54 mark 0
LayerCount: 2
Fore
SplineSet
236.219726562 1274.53125 m 1,0,-1
 236.219726562 1442.60839844 l 1,1,-1
 776.401367188 1663.49121094 l 1,2,-1
 776.401367188 1495.41796875 l 1,3,-1
 236.219726562 1274.53125 l 1,0,-1
EndSplineSet
EndChar

StartChar: uni064F
Encoding: 1615 1615 47
Width: -24
VWidth: 2238
GlyphClass: 4
Flags: W
AnchorPoint: "Anchor-10" 597.961 1290.64 mark 0
AnchorPoint: "Anchor-9" 597.961 1290.64 mark 0
AnchorPoint: "Anchor-1" 528.853 1887.42 basemark 0
AnchorPoint: "Anchor-1" 597.961 1290.64 mark 0
LayerCount: 2
Fore
SplineSet
627.57421875 1825.29003906 m 0,0,1
 804.209960938 1764.77929688 804.209960938 1764.77929688 745.669921875 1557.06347656 c 1,2,3
 770.879882812 1555.7890625 770.879882812 1555.7890625 790.764648438 1555.640625 c 2,4,-1
 822.53125 1555.40917969 l 1,5,-1
 822.53125 1416.41894531 l 1,6,-1
 789.965820312 1416.99121094 l 2,7,8
 743.30078125 1417.82421875 743.30078125 1417.82421875 680.61328125 1424.00585938 c 1,9,10
 625.995117188 1353.79101562 625.995117188 1353.79101562 534.109375 1297.05566406 c 128,-1,11
 442.223632812 1240.31933594 442.223632812 1240.31933594 308.266601562 1233.11035156 c 2,12,-1
 274.546875 1231.29394531 l 1,13,-1
 274.546875 1370.22753906 l 1,14,-1
 305.043945312 1371.65917969 l 2,15,16
 437.852539062 1377.90722656 437.852539062 1377.90722656 523.892578125 1465.21679688 c 1,17,18
 463.083984375 1487.99121094 463.083984375 1487.99121094 428.815429688 1526.34765625 c 4,19,20
 381.462890625 1579.35058594 381.462890625 1579.35058594 381.293945312 1635.36816406 c 0,21,22
 380.983398438 1738.15820312 380.983398438 1738.15820312 456.790039062 1799.8984375 c 0,23,24
 499.241210938 1834.67480469 499.241210938 1834.67480469 569.72265625 1834.88378906 c 0,25,26
 599.818359375 1834.79785156 599.818359375 1834.79785156 627.57421875 1825.29003906 c 0,0,1
606.05078125 1579.79003906 m 1,27,28
 644.901367188 1691.13378906 644.901367188 1691.13378906 568.283203125 1691.21582031 c 0,29,30
 532.473632812 1691.18164062 532.473632812 1691.18164062 522.856445312 1655.60449219 c 0,31,32
 518.3203125 1626.25195312 518.3203125 1626.25195312 533.899414062 1612.671875 c 0,33,34
 551.100585938 1597.67675781 551.100585938 1597.67675781 606.05078125 1579.79003906 c 1,27,28
EndSplineSet
EndChar

StartChar: uni0650
Encoding: 1616 1616 48
Width: -24
VWidth: 2238
GlyphClass: 4
Flags: W
AnchorPoint: "Anchor-7" 549.05 10.7227 mark 0
AnchorPoint: "Anchor-6" 549.05 10.7227 mark 0
AnchorPoint: "Anchor-0" 595.143 -289.976 basemark 0
AnchorPoint: "Anchor-0" 549.05 10.7227 mark 0
LayerCount: 2
Fore
SplineSet
281.181640625 -354.318359375 m 1,0,-1
 281.181640625 -186.241210938 l 1,1,-1
 821.362304688 34.640625 l 1,2,-1
 821.362304688 -133.432617188 l 1,3,-1
 281.181640625 -354.318359375 l 1,0,-1
EndSplineSet
EndChar

StartChar: uni0651
Encoding: 1617 1617 49
Width: -24
VWidth: 2238
GlyphClass: 4
Flags: W
AnchorPoint: "Anchor-10" 589.815 1371.68 mark 0
AnchorPoint: "Anchor-9" 589.815 1371.68 mark 0
AnchorPoint: "Anchor-1" 560.134 1807.24 basemark 0
AnchorPoint: "Anchor-1" 589.815 1371.68 mark 0
LayerCount: 2
Fore
SplineSet
353.83203125 1656.94726562 m 1,0,-1
 355.810546875 1563.97949219 l 2,1,2
 356.942382812 1519.203125 356.942382812 1519.203125 372.067382812 1501.75292969 c 128,-1,3
 387.192382812 1484.3046875 387.192382812 1484.3046875 418.973632812 1485.33007812 c 0,4,5
 480.938476562 1487.32910156 480.938476562 1487.32910156 481.462890625 1582.42480469 c 2,6,-1
 482.21484375 1718.86035156 l 1,7,8
 534.186523438 1736.18359375 534.186523438 1736.18359375 595.13671875 1742.21191406 c 2,9,-1
 618.119140625 1744.484375 l 1,10,-1
 620.259765625 1633.97949219 l 2,11,12
 621.150390625 1581.96972656 621.150390625 1581.96972656 648.248046875 1568.29785156 c 0,13,14
 661.852539062 1561.43261719 661.852539062 1561.43261719 689.600585938 1561.44628906 c 0,15,16
 747.171875 1561.47265625 747.171875 1561.47265625 744.009765625 1645.58886719 c 2,17,-1
 740.892578125 1728.54003906 l 1,18,19
 829.064453125 1786.51367188 829.064453125 1786.51367188 844.498046875 1796.46386719 c 2,20,-1
 874.421875 1815.75488281 l 1,21,-1
 882.05859375 1722.22949219 l 2,22,23
 909.515625 1380.19140625 909.515625 1380.19140625 699.89453125 1380.79101562 c 0,24,25
 629.856445312 1381.27539062 629.856445312 1381.27539062 577.015625 1421.66015625 c 1,26,27
 516.797851562 1311.57910156 516.797851562 1311.57910156 389.350585938 1320.62109375 c 0,28,29
 202.958984375 1333.84667969 202.958984375 1333.84667969 222.551757812 1604.63378906 c 2,30,-1
 229.995117188 1707.4921875 l 1,31,-1
 257.140625 1696.54003906 l 2,32,33
 320.672851562 1670.90820312 320.672851562 1670.90820312 353.83203125 1656.94726562 c 1,0,-1
EndSplineSet
EndChar

StartChar: uni0652
Encoding: 1618 1618 50
Width: -31
VWidth: 2796
GlyphClass: 4
Flags: W
AnchorPoint: "Anchor-10" 711.878 1517.92 mark 0
AnchorPoint: "Anchor-9" 711.878 1517.92 mark 0
AnchorPoint: "Anchor-1" 702.956 2110.45 basemark 0
AnchorPoint: "Anchor-1" 711.878 1517.92 mark 0
LayerCount: 2
Fore
SplineSet
713.103515625 1673.22558594 m 0,0,1
 792.099609375 1673.22558594 792.099609375 1673.22558594 820.997070312 1743.703125 c 0,2,3
 829.19921875 1763.70800781 829.19921875 1763.70800781 829.19921875 1784.34472656 c 128,-1,4
 829.19921875 1804.98144531 829.19921875 1804.98144531 825.544921875 1819.34179688 c 0,5,6
 818.321289062 1847.72753906 818.321289062 1847.72753906 790.313476562 1875.73632812 c 128,-1,7
 762.306640625 1903.74511719 762.306640625 1903.74511719 713.099609375 1903.74511719 c 0,8,9
 634.3515625 1903.74511719 634.3515625 1903.74511719 606.177734375 1833.78515625 c 0,10,11
 597.84375 1813.09082031 597.84375 1813.09082031 597.84375 1776.18457031 c 128,-1,12
 597.84375 1739.27734375 597.84375 1739.27734375 622.578125 1714.54492188 c 128,-1,13
 647.3125 1689.81152344 647.3125 1689.81152344 660.991210938 1684.30273438 c 128,-1,14
 674.669921875 1678.79492188 674.669921875 1678.79492188 681.90625 1676.95214844 c 0,15,16
 696.538085938 1673.22558594 696.538085938 1673.22558594 713.103515625 1673.22558594 c 0,0,1
964.603515625 1737.7578125 m 0,17,18
 959.989257812 1712.94238281 959.989257812 1712.94238281 950.693359375 1690.14550781 c 128,-1,19
 941.387695312 1667.32714844 941.387695312 1667.32714844 927.436523438 1646.61035156 c 128,-1,20
 913.583007812 1626.03710938 913.583007812 1626.03710938 895.110351562 1607.44433594 c 0,21,22
 821.01953125 1532.88378906 821.01953125 1532.88378906 713.916015625 1532.88378906 c 128,-1,23
 606.80859375 1532.88378906 606.80859375 1532.88378906 532.723632812 1607.44628906 c 128,-1,24
 458.654296875 1681.98828125 458.654296875 1681.98828125 458.654296875 1789.04003906 c 128,-1,25
 458.654296875 1896.10839844 458.654296875 1896.10839844 532.747070312 1970.21386719 c 128,-1,26
 606.836914062 2044.30273438 606.836914062 2044.30273438 713.916015625 2044.30273438 c 0,27,28
 919.849609375 2044.30273438 919.849609375 2044.30273438 963.2109375 1846.53320312 c 1,29,-1
 967.596679688 1819.18847656 l 2,30,31
 969.178710938 1804.02441406 969.178710938 1804.02441406 969.178710938 1783.1953125 c 128,-1,32
 969.178710938 1762.36621094 969.178710938 1762.36621094 964.603515625 1737.7578125 c 0,17,18
EndSplineSet
EndChar

StartChar: uni0653
Encoding: 1619 1619 51
Width: -3
VWidth: 2763
GlyphClass: 4
Flags: W
AnchorPoint: "Anchor-10" 485.314 1591.4 mark 0
AnchorPoint: "Anchor-9" 485.314 1591.4 mark 0
AnchorPoint: "Anchor-1" 455.074 2066.98 basemark 0
AnchorPoint: "Anchor-1" 485.314 1591.4 mark 0
LayerCount: 2
Fore
SplineSet
361.295898438 1668.19628906 m 1,0,1
 284 1666 284 1666 180.21484375 1573.33007812 c 1,2,3
 130 1605 130 1605 102.891601562 1642.38769531 c 1,4,5
 145 1817 145 1817 215.411132812 1899.19140625 c 0,6,7
 254 1944 254 1944 323.298828125 1944.29101562 c 0,8,9
 384 1944 384 1944 517.91015625 1926.82910156 c 0,10,11
 652 1909 652 1909 733.3671875 1929.69335938 c 0,12,13
 839 1957 839 1957 855.4609375 1944.25488281 c 0,14,15
 885 1921 885 1921 813 1806 c 4,16,17
 770 1737 770 1737 727.30078125 1699.53613281 c 0,18,19
 665 1643 665 1643 361.295898438 1668.19628906 c 1,0,1
EndSplineSet
EndChar

StartChar: uni0657
Encoding: 1623 1623 54
Width: -34
VWidth: 3019
GlyphClass: 4
Flags: W
AnchorPoint: "Anchor-10" 743.995 1787.47 mark 0
AnchorPoint: "Anchor-9" 743.995 1787.47 mark 0
AnchorPoint: "Anchor-1" 743.995 2746.93 basemark 0
AnchorPoint: "Anchor-1" 743.995 1787.47 mark 0
LayerCount: 2
Fore
SplineSet
554.524414062 1886.17578125 m 0,0,1
 334.931640625 1970.12109375 334.931640625 1970.12109375 416.420898438 2239.11523438 c 1,2,3
 365.309570312 2241.49902344 365.309570312 2241.49902344 341.5 2241.67675781 c 2,4,-1
 309.739257812 2241.9140625 l 1,5,-1
 309.739257812 2411.05371094 l 1,6,-1
 342.375 2410.40332031 l 2,7,8
 410.6640625 2408.51855469 410.6640625 2408.51855469 496.09765625 2400.4375 c 1,9,10
 700.958007812 2678.86132812 700.958007812 2678.86132812 1017.12011719 2706.36523438 c 6,11,-1
 1051.89257812 2709.390625 l 1,12,-1
 1051.89257812 2539.68652344 l 1,13,-1
 1021.70605469 2537.97363281 l 2,14,15
 908.793945312 2531.18457031 908.793945312 2531.18457031 747.431640625 2404.85058594 c 0,16,17
 716.795898438 2380.78515625 716.795898438 2380.78515625 689.543945312 2353.01269531 c 1,18,19
 833.061523438 2305.05273438 833.061523438 2305.05273438 876.724609375 2182.59863281 c 0,20,21
 915.194335938 2076.78710938 915.194335938 2076.78710938 852.967773438 1970.91210938 c 0,22,23
 793.594726562 1869.85449219 793.594726562 1869.85449219 641.2890625 1871.32519531 c 0,24,25
 591.99609375 1871.98828125 591.99609375 1871.98828125 554.524414062 1886.17578125 c 0,0,1
586.366210938 2211.47949219 m 1,26,27
 565.678710938 2163.21484375 565.678710938 2163.21484375 565.678710938 2130.35839844 c 128,-1,28
 565.678710938 2097.50292969 565.678710938 2097.50292969 570.026367188 2087.21679688 c 0,29,30
 587.501953125 2045.87402344 587.501953125 2045.87402344 627.271484375 2040.17480469 c 1,31,32
 715.662109375 2040.17480469 715.662109375 2040.17480469 715.662109375 2110.73632812 c 0,33,34
 715.662109375 2170.25 715.662109375 2170.25 586.366210938 2211.47949219 c 1,26,27
EndSplineSet
EndChar

StartChar: uni065A
Encoding: 1626 1626 55
Width: 1473
VWidth: 3019
GlyphClass: 4
Flags: W
AnchorPoint: "Anchor-10" 743.995 1787.47 mark 0
AnchorPoint: "Anchor-9" 743.995 1787.47 mark 0
AnchorPoint: "Anchor-1" 741.044 2451.72 basemark 0
AnchorPoint: "Anchor-1" 743.995 1787.47 mark 0
LayerCount: 2
Fore
SplineSet
632.928710938 1875.75097656 m 1,0,-1
 341.216796875 2363.43554688 l 1,1,-1
 553.84375 2363.43554688 l 1,2,-1
 743.995117188 2078.19726562 l 1,3,-1
 934.1484375 2363.43554688 l 1,4,-1
 1146.77929688 2363.43554688 l 1,5,-1
 855.061523438 1875.75097656 l 1,6,-1
 632.928710938 1875.75097656 l 1,0,-1
EndSplineSet
EndChar

StartChar: afii57392
Encoding: 1632 1632 56
Width: 973
VWidth: 3399
GlyphClass: 2
Flags: W
LayerCount: 2
Fore
SplineSet
490.950195312 932.525390625 m 1,0,-1
 796.166992188 627.309570312 l 1,1,-1
 485.200195312 316.341796875 l 1,2,-1
 179.983398438 621.559570312 l 1,3,-1
 490.950195312 932.525390625 l 1,0,-1
EndSplineSet
EndChar

StartChar: afii57393
Encoding: 1633 1633 57
Width: 885
VWidth: 3386
GlyphClass: 2
Flags: W
LayerCount: 2
Fore
SplineSet
694.756835938 322.870117188 m 0,0,1
 698.395507812 157.865234375 698.395507812 157.865234375 684.899414062 104.638671875 c 0,2,3
 662.115234375 12.74609375 662.115234375 12.74609375 444.724609375 -4.0732421875 c 2,4,-1
 421.364257812 -5.8798828125 l 1,5,-1
 419.014648438 31.625 l 2,6,7
 376.1484375 709.017578125 376.1484375 709.017578125 112.755859375 1431.01171875 c 2,8,-1
 107.762695312 1444.70019531 l 1,9,-1
 367.326171875 1616.96289062 l 2,10,11
 424.263671875 1654.38964844 424.263671875 1654.38964844 443.22265625 1599.68066406 c 0,12,13
 681.329101562 909.861328125 681.329101562 909.861328125 694.756835938 322.870117188 c 0,0,1
EndSplineSet
EndChar

StartChar: afii57394
Encoding: 1634 1634 58
Width: 1331
VWidth: 3386
GlyphClass: 2
Flags: W
LayerCount: 2
Fore
SplineSet
737.595703125 1264.52539062 m 1048,0,-1
1001.66796875 1601.72167969 m 1,1,-1
 1223.40917969 1576.14257812 l 1,2,3
 1225.59277344 1524.25683594 1225.59277344 1524.25683594 1223.67382812 1515.72363281 c 1,4,5
 1226.65917969 831.995117188 1226.65917969 831.995117188 744.958007812 816.93359375 c 0,6,7
 680.529296875 814.928710938 680.529296875 814.928710938 619.462890625 820.252929688 c 1,8,9
 710.395507812 369.064453125 710.395507812 369.064453125 670.724609375 104.932617188 c 0,10,11
 657.116210938 13.162109375 657.116210938 13.162109375 430.272460938 -4.0302734375 c 2,12,-1
 406.948242188 -5.7978515625 l 1,13,-1
 404.594726562 31.58203125 l 2,14,15
 362.6640625 690.12890625 362.6640625 690.12890625 94.4736328125 1427.00683594 c 1,16,-1
 354.104492188 1599.35644531 l 2,17,18
 379.731445312 1615.99023438 379.731445312 1615.99023438 399.997070312 1613.85644531 c 128,-1,19
 420.263671875 1611.72363281 420.263671875 1611.72363281 438.930664062 1551.45703125 c 128,-1,20
 457.596679688 1491.19042969 457.596679688 1491.19042969 493.140625 1403.81933594 c 0,21,22
 550.396484375 1262.92578125 550.396484375 1262.92578125 737.595703125 1264.52539062 c 0,23,24
 967.836914062 1267.19628906 967.836914062 1267.19628906 994.655273438 1532.37988281 c 2,25,-1
 1001.66796875 1601.72167969 l 1,1,-1
EndSplineSet
EndChar

StartChar: afii57395
Encoding: 1635 1635 59
Width: 1535
VWidth: 3386
GlyphClass: 2
Flags: W
LayerCount: 2
Fore
SplineSet
493.140625 1414.48632812 m 0,0,1
 549.330078125 1275.72558594 549.330078125 1275.72558594 670.705078125 1275.0859375 c 0,2,3
 781.190429688 1274.65722656 781.190429688 1274.65722656 792.073242188 1431.21875 c 6,4,-1
 801.745117188 1570.36328125 l 5,5,-1
 1017.86523438 1563.49316406 l 1,6,-1
 1017.43359375 1384.27734375 l 2,7,8
 1017.59375 1262.92578125 1017.59375 1262.92578125 1117.859375 1261.85839844 c 0,9,10
 1167.99316406 1260.79199219 1167.99316406 1260.79199219 1194.23632812 1321.59179688 c 0,11,12
 1213.45410156 1366.88476562 1213.45410156 1366.88476562 1224.90136719 1516.35449219 c 2,13,-1
 1230.48339844 1589.22851562 l 1,14,-1
 1448.87207031 1569.35253906 l 1,15,-1
 1448.10351562 1536.98828125 l 2,16,17
 1431.45800781 850.127929688 1431.45800781 850.127929688 1096.66601562 850.286132812 c 0,18,19
 950.39453125 850.127929688 950.39453125 850.127929688 871.8984375 985.590820312 c 1,20,21
 779.728515625 839.4609375 779.728515625 839.4609375 618.51953125 835.899414062 c 1,22,23
 711.461914062 378.6640625 711.461914062 378.6640625 670.724609375 104.932617188 c 0,24,25
 657.116210938 13.162109375 657.116210938 13.162109375 430.272460938 -4.0302734375 c 2,26,-1
 406.948242188 -5.7978515625 l 1,27,-1
 404.594726562 31.58203125 l 2,28,29
 361.59765625 707.1953125 361.59765625 707.1953125 94.4736328125 1437.67285156 c 1,30,-1
 354.104492188 1610.0234375 l 2,31,32
 379.731445312 1626.65625 379.731445312 1626.65625 399.997070312 1624.5234375 c 128,-1,33
 420.263671875 1622.38964844 420.263671875 1622.38964844 438.930664062 1562.12402344 c 128,-1,34
 457.596679688 1501.85742188 457.596679688 1501.85742188 493.140625 1414.48632812 c 0,0,1
EndSplineSet
EndChar

StartChar: afii57396
Encoding: 1636 1636 60
Width: 1002
VWidth: 3393
GlyphClass: 2
Flags: W
LayerCount: 2
Fore
SplineSet
460.2421875 1059.82910156 m 1,0,1
 603.75390625 970.381835938 603.75390625 970.381835938 752.387695312 905.700195312 c 2,2,-1
 782.2265625 892.715820312 l 1,3,-1
 784.328125 860.2421875 l 2,4,5
 792.073242188 799.463867188 792.073242188 799.463867188 793.780273438 763.678710938 c 2,6,-1
 796.072265625 715.647460938 l 1,7,-1
 761.713867188 700.793945312 l 2,8,9
 527.997070312 599.462890625 527.997070312 599.462890625 425.151367188 496.099609375 c 1,10,11
 615.68359375 428.719726562 615.68359375 428.719726562 872.826171875 437.603515625 c 2,12,-1
 940.40234375 439.9375 l 1,13,-1
 934.430664062 129.09765625 l 2,14,15
 932.780273438 43.185546875 932.780273438 43.185546875 919.4609375 29.8662109375 c 0,16,17
 900.260742188 7.466796875 900.260742188 7.466796875 820.802734375 10.8759765625 c 0,18,19
 319.998046875 30.93359375 319.998046875 30.93359375 169.40234375 148.140625 c 0,20,21
 -11.7333984375 289.064453125 -11.7333984375 289.064453125 185.04296875 542.53125 c 0,22,23
 265.598632812 646.395507812 265.598632812 646.395507812 367.530273438 721.181640625 c 1,24,25
 69.3330078125 873.594726562 69.3330078125 873.594726562 70.6357421875 1048.33886719 c 0,26,27
 71.4658203125 1272.52539062 71.4658203125 1272.52539062 682.37890625 1556.22558594 c 0,28,29
 776.528320312 1599.99023438 776.528320312 1599.99023438 808.528320312 1578.65722656 c 0,30,31
 827.728515625 1565.85644531 827.728515625 1565.85644531 813.017578125 1474.09570312 c 2,32,33
 745.642578125 1132.39648438 l 5,34,-1
 704.045898438 1125.58984375 l 2,35,36
 623.99609375 1112.52636719 623.99609375 1112.52636719 460.2421875 1059.82910156 c 1,0,1
EndSplineSet
EndChar

StartChar: afii57397
Encoding: 1637 1637 61
Width: 1236
VWidth: 3735
GlyphClass: 2
Flags: W
LayerCount: 2
Fore
SplineSet
590.791992188 1020.57519531 m 1,0,1
 399.997070312 786.12890625 399.997070312 786.12890625 383.553710938 633.075195312 c 0,2,3
 362.279296875 438.240234375 362.279296875 438.240234375 651.97265625 447.044921875 c 4,4,5
 893.861328125 454.397460938 893.861328125 454.397460938 857.110351562 646.7265625 c 0,6,7
 835.212890625 787.36328125 835.212890625 787.36328125 590.791992188 1020.57519531 c 1,0,1
135.06640625 235.28515625 m 0,8,9
 69.4853515625 344.15234375 69.4853515625 344.15234375 67.484375 499.206054688 c 0,10,11
 63.912109375 818.265625 63.912109375 818.265625 382.0546875 1197.74121094 c 1,12,-1
 308.307617188 1253.05175781 l 1,13,-1
 506.115234375 1614.4375 l 1,14,-1
 565.776367188 1559.32617188 l 2,15,16
 1024.59082031 1135.57421875 1024.59082031 1135.57421875 1115.25195312 803.950195312 c 0,17,18
 1249.44140625 320.129882812 1249.44140625 320.129882812 943.764648438 104.822265625 c 0,19,20
 803.850585938 7.783203125 803.850585938 7.783203125 577.666015625 9.2861328125 c 0,21,22
 270.190429688 8.4677734375 270.190429688 8.4677734375 135.06640625 235.28515625 c 0,8,9
EndSplineSet
EndChar

StartChar: afii57398
Encoding: 1638 1638 62
Width: 1330
VWidth: 3396
GlyphClass: 2
Flags: W
LayerCount: 2
Fore
SplineSet
996.635742188 1511.57226562 m 2,0,1
 1020.96679688 787.23828125 1020.96679688 787.23828125 1059.31640625 561.03515625 c 0,2,3
 1109.32617188 264.53125 1109.32617188 264.53125 1170.12597656 236.798828125 c 1,4,-1
 959.994140625 0 l 1,5,6
 818.127929688 113.06640625 818.127929688 113.06640625 781.71875 343.221679688 c 0,7,8
 719.995117188 722.12890625 719.995117188 722.12890625 711.049804688 1130.63378906 c 1,9,10
 541.86328125 1105.05957031 541.86328125 1105.05957031 364.943359375 1109.35449219 c 0,11,12
 143.999023438 1115.7265625 143.999023438 1115.7265625 95.0478515625 1219.07128906 c 0,13,14
 58.666015625 1295.9921875 58.666015625 1295.9921875 58.7353515625 1503.54492188 c 4,15,16
 58.666015625 1611.72363281 58.666015625 1611.72363281 89.599609375 1613.53515625 c 4,17,18
 97.06640625 1613.85644531 97.06640625 1613.85644531 170.626953125 1587.01757812 c 4,19,20
 436.921875 1488.14257812 436.921875 1488.14257812 935.461914062 1562.53027344 c 2,21,-1
 994.626953125 1571.35742188 l 1,22,-1
 996.635742188 1511.57226562 l 2,0,1
EndSplineSet
EndChar

StartChar: afii57399
Encoding: 1639 1639 63
Width: 1421
VWidth: 3397
GlyphClass: 2
Flags: W
LayerCount: 2
Fore
SplineSet
1128.52636719 1618.65136719 m 2,0,1
 1370.49902344 1384.17773438 l 1,2,-1
 1354.99609375 1353.19433594 l 2,3,4
 983.126953125 609.462890625 983.126953125 609.462890625 839.16015625 24.7919921875 c 2,5,-1
 830.166992188 -11.7333984375 l 1,6,-1
 601.494140625 -11.7333984375 l 1,7,-1
 592.147460938 24.1728515625 l 2,8,9
 410.211914062 721.728515625 410.211914062 721.728515625 66.939453125 1352.03027344 c 2,10,11
 51.4208984375 1380.52441406 l 1,12,-1
 263.46484375 1625.05175781 l 2,13,14
 294.3984375 1660.79003906 294.3984375 1660.79003906 332.797851562 1597.31835938 c 0,15,16
 516.263671875 1299.19140625 516.263671875 1299.19140625 712.291992188 640.884765625 c 1,17,18
 873.594726562 1228.79199219 873.594726562 1228.79199219 1058.12695312 1582.38476562 c 0,19,20
 1094.39355469 1652.25585938 1094.39355469 1652.25585938 1128.52636719 1618.65136719 c 2,0,1
EndSplineSet
EndChar

StartChar: afii57400
Encoding: 1640 1640 64
Width: 1421
VWidth: 3397
GlyphClass: 2
Flags: W
LayerCount: 2
Fore
SplineSet
1128.52636719 -5.3330078125 m 6,0,1
 1094.39648438 -38.40625 1094.39648438 -38.40625 1058.12695312 30.93359375 c 4,2,3
 838.39453125 461.864257812 838.39453125 461.864257812 701.625976562 961.766601562 c 5,4,5
 500.263671875 285.865234375 500.263671875 285.865234375 332.797851562 16 c 4,6,7
 293.607421875 -46.4931640625 293.607421875 -46.4931640625 263.46484375 -11.7333984375 c 6,8,-1
 51.4208984375 232.79296875 l 1,9,-1
 66.939453125 261.288085938 l 2,10,11
 416.295898438 902.944335938 416.295898438 902.944335938 592.147460938 1578.47851562 c 2,12,-1
 601.494140625 1614.38476562 l 1,13,-1
 830.166992188 1614.38476562 l 5,14,-1
 839.16015625 1577.86035156 l 6,15,16
 978.138671875 1013.28027344 978.138671875 1013.28027344 1354.99609375 260.123046875 c 6,17,-1
 1370.49902344 229.140625 l 5,18,-1
 1128.52636719 -5.3330078125 l 6,0,1
EndSplineSet
EndChar

StartChar: afii57401
Encoding: 1641 1641 65
Width: 1167
VWidth: 3397
GlyphClass: 2
Flags: W
LayerCount: 2
Fore
SplineSet
664.422851562 671.849609375 m 5,0,1
 327.46484375 625.0625 327.46484375 625.0625 204.798828125 729.0625 c 132,-1,2
 82.1328125 833.061523438 82.1328125 833.061523438 87.4658203125 1069.32617188 c 132,-1,3
 92.7998046875 1305.59179688 92.7998046875 1305.59179688 212.622070312 1476.75097656 c 4,4,5
 309.331054688 1613.85644531 309.331054688 1613.85644531 486.396484375 1626.65625 c 132,-1,6
 663.462890625 1639.45605469 663.462890625 1639.45605469 788.26171875 1500.25683594 c 4,7,8
 920.52734375 1352.52441406 920.52734375 1352.52441406 925.31640625 1068.03125 c 4,9,10
 935.4609375 406.397460938 935.4609375 406.397460938 1078.39355469 235.731445312 c 5,11,-1
 881.061523438 0 l 5,12,13
 678.395507812 111.999023438 678.395507812 111.999023438 664.422851562 671.849609375 c 5,0,1
333.096679688 1127.72070312 m 4,14,15
 314.665039062 1055.99316406 314.665039062 1055.99316406 402.501953125 1048.67480469 c 4,16,17
 517.330078125 1038.92675781 517.330078125 1038.92675781 646.814453125 1057.12792969 c 5,18,-1
 643.455078125 1079.97851562 l 6,19,20
 618.663085938 1249.05859375 618.663085938 1249.05859375 462.987304688 1242.47167969 c 4,21,22
 360.53125 1238.39257812 360.53125 1238.39257812 333.096679688 1127.72070312 c 4,14,15
EndSplineSet
EndChar

StartChar: afii57381
Encoding: 1642 1642 66
Width: 1517
VWidth: 3443
GlyphClass: 2
Flags: W
LayerCount: 2
Fore
SplineSet
219.9453125 1360.31152344 m 128,-1,1
 219.9453125 1452.57714844 219.9453125 1452.57714844 285.01171875 1517.64355469 c 128,-1,2
 350.078125 1582.70996094 350.078125 1582.70996094 442.34375 1582.17675781 c 128,-1,3
 534.610351562 1581.64355469 534.610351562 1581.64355469 599.676757812 1517.64355469 c 0,4,5
 664.743164062 1452.57714844 664.743164062 1452.57714844 664.208984375 1360.31152344 c 128,-1,6
 663.67578125 1268.04492188 663.67578125 1268.04492188 599.676757812 1202.97851562 c 0,7,8
 534.610351562 1137.91308594 534.610351562 1137.91308594 442.34375 1137.91308594 c 128,-1,9
 350.078125 1137.91308594 350.078125 1137.91308594 285.01171875 1202.97851562 c 128,-1,0
 219.9453125 1268.04492188 219.9453125 1268.04492188 219.9453125 1360.31152344 c 128,-1,1
865.701171875 455.357421875 m 4,10,11
 866.127929688 547.196289062 866.127929688 547.196289062 930.767578125 612.689453125 c 4,12,13
 996.260742188 677.329101562 996.260742188 677.329101562 1088.09960938 677.22265625 c 4,14,15
 1180.79296875 676.262695312 1180.79296875 676.262695312 1245.43164062 612.689453125 c 4,16,17
 1310.92480469 547.196289062 1310.92480469 547.196289062 1309.96484375 455.357421875 c 4,18,19
 1309.85839844 362.6640625 1309.85839844 362.6640625 1245.43164062 298.025390625 c 4,20,21
 1180.79296875 232.532226562 1180.79296875 232.532226562 1088.09960938 232.958984375 c 4,22,23
 996.260742188 232.532226562 996.260742188 232.532226562 930.767578125 298.025390625 c 4,24,25
 866.127929688 362.6640625 866.127929688 362.6640625 865.701171875 455.357421875 c 4,10,11
988.793945312 1666.86816406 m 1,26,-1
 1236.26171875 1529.35351562 l 1,27,-1
 448.663085938 10.990234375 l 1,28,-1
 202.520507812 154.810546875 l 1,29,-1
 988.793945312 1666.86816406 l 1,26,-1
EndSplineSet
EndChar

StartChar: uni066B
Encoding: 1643 1643 67
Width: 938
VWidth: 3443
GlyphClass: 2
Flags: W
LayerCount: 2
Fore
SplineSet
628.513671875 711.489257812 m 1,0,-1
 811.674804688 594.060546875 l 5,1,-1
 205.569335938 -415.991210938 l 5,2,-1
 21.115234375 -289.98046875 l 1,3,-1
 628.513671875 711.489257812 l 1,0,-1
EndSplineSet
EndChar

StartChar: uni066C
Encoding: 1644 1644 68
Width: 539
VWidth: 3395
GlyphClass: 2
Flags: W
LayerCount: 2
Fore
SplineSet
218.336914062 1.775390625 m 1,0,1
 136.646484375 8.9404296875 136.646484375 8.9404296875 95.6015625 68.9736328125 c 128,-1,2
 54.556640625 129.006835938 54.556640625 129.006835938 70.5634765625 207.841796875 c 128,-1,3
 86.5703125 286.677734375 86.5703125 286.677734375 147.458984375 328.873046875 c 0,4,5
 248.174804688 398.669921875 248.174804688 398.669921875 350.375 331.73046875 c 0,6,7
 446.721679688 268.6015625 446.721679688 268.6015625 433.956054688 115.380859375 c 0,8,9
 410.728515625 -156.994140625 410.728515625 -156.994140625 122.708984375 -327.955078125 c 0,10,11
 57.4501953125 -366.673828125 57.4501953125 -366.673828125 25.1396484375 -316.015625 c 1,12,13
 7.9873046875 -279.75390625 7.9873046875 -279.75390625 48.9169921875 -247.848632812 c 0,14,15
 123.325195312 -193.038085938 123.325195312 -193.038085938 169.260742188 -120.840820312 c 128,-1,16
 215.1953125 -48.6435546875 215.1953125 -48.6435546875 218.336914062 1.775390625 c 1,0,1
EndSplineSet
EndChar

StartChar: afii63167
Encoding: 1645 1645 69
Width: 1734
VWidth: 3194
GlyphClass: 2
Flags: W
LayerCount: 2
Fore
SplineSet
123.602539062 1218.84375 m 1,0,-1
 691.711914062 1218.84375 l 1,1,-1
 868.931640625 1758.40332031 l 1,2,-1
 1046.1484375 1218.84375 l 1,3,-1
 1614.26171875 1218.84375 l 1,4,-1
 1155.34570312 883.364257812 l 1,5,-1
 1331.00683594 343.712890625 l 1,6,-1
 868.931640625 677.615234375 l 1,7,-1
 406.853515625 343.71484375 l 1,8,-1
 582.512695312 883.364257812 l 1,9,-1
 123.602539062 1218.84375 l 1,0,-1
EndSplineSet
EndChar

StartChar: uni066E
Encoding: 1646 1646 70
Width: 1877
VWidth: 3753
GlyphClass: 2
Flags: W
AnchorPoint: "Anchor-10" 798.573 1300.55 basechar 0
AnchorPoint: "Anchor-7" 656.479 -183.49 basechar 0
LayerCount: 2
Fore
SplineSet
871.510742188 0 m 0,0,1
 490 0 490 0 302.755859375 102.430664062 c 0,2,3
 58 237 58 237 68.91796875 565.330078125 c 0,4,5
 76 766 76 766 191.454101562 994.09375 c 1,6,-1
 345.512695312 938.196289062 l 1,7,8
 288 729 288 729 341.935546875 647.479492188 c 0,9,10
 438.224407672 500.18642357 438.224407672 500.18642357 805.909179688 492.896484375 c 28,11,12
 936 490 936 490 1016.65136719 493.79296875 c 4,13,14
 1357 510 1357 510 1506.34472656 619.986328125 c 0,15,16
 1532 639 1532 639 1520.30957031 663.081054688 c 0,17,18
 1477 761 1477 761 1432.90234375 858.35546875 c 1,19,-1
 1615.49023438 1083.19140625 l 2,20,21
 1639 1112 1639 1112 1654 1087 c 0,22,23
 1784 879 1784 879 1784.55371094 657.0625 c 0,24,25
 1785 482 1785 482 1732.921875 362.6640625 c 0,26,27
 1572 0 1572 0 871.510742188 0 c 0,0,1
EndSplineSet
Substitution2: "'init' Initial Forms in Arabic lookup 13 subtable" uni066E.init
Substitution2: "'medi' Medial Forms in Arabic lookup 11 subtable" uni066E.medi
Substitution2: "'fina' Terminal Forms in Arabic lookup 9 subtable" uni066E.fina
EndChar

StartChar: uni066F
Encoding: 1647 1647 71
Width: 1462
VWidth: 3781
GlyphClass: 2
Flags: W
AnchorPoint: "Anchor-10" 557.965 1195.3 basechar 0
AnchorPoint: "Anchor-7" 578.603 -667.213 basechar 0
LayerCount: 2
Fore
SplineSet
1164.29785156 520.643554688 m 1,0,1
 1103.35253906 658.828125 1103.35253906 658.828125 1003.53320312 657.39453125 c 0,2,3
 930.553710938 656.6953125 930.553710938 656.6953125 905.336914062 606.038085938 c 0,4,5
 880.420898438 555.362304688 880.420898438 555.362304688 902.125 533.240234375 c 0,6,7
 929.487304688 505.229492188 929.487304688 505.229492188 1076.35253906 512.212890625 c 0,8,9
 1130.01855469 514.829101562 1130.01855469 514.829101562 1164.29785156 520.643554688 c 1,0,1
1227.37402344 854.563476562 m 0,10,11
 1379 663 1379 663 1367.16601562 280.438476562 c 0,12,13
 1359 16 1359 16 1304.52539062 -116.265625 c 0,14,15
 1160 -466 1160 -466 708.6484375 -466.130859375 c 0,16,17
 375 -466 375 -466 222.005859375 -302.619140625 c 4,18,19
 80 -151 80 -151 80.5390625 134.399414062 c 0,20,21
 81 399 81 399 203.59765625 650.392578125 c 1,22,-1
 380.717773438 600.42578125 l 1,23,24
 277 256 277 256 380.991210938 125.495117188 c 0,25,26
 477 6 477 6 734.3359375 5.396484375 c 0,27,28
 1088 5 1088 5 1166.11132812 190.608398438 c 1,29,30
 1062 176 1062 176 983.73828125 176.317382812 c 0,31,32
 731 178 731 178 701.485351562 361.08984375 c 0,33,34
 688 445 688 445 707.551757812 567.124023438 c 0,35,36
 768 950 768 950 1027.61914062 950.026367188 c 0,37,38
 1152 950 1152 950 1227.37402344 854.563476562 c 0,10,11
EndSplineSet
Substitution2: "'init' Initial Forms in Arabic lookup 13 subtable" uni066F.init
Substitution2: "'medi' Medial Forms in Arabic lookup 11 subtable" uni066F.medi
Substitution2: "'fina' Terminal Forms in Arabic lookup 9 subtable" uni066F.fina
EndChar

StartChar: uni0670
Encoding: 1648 1648 72
Width: 0
VWidth: 2983
GlyphClass: 4
Flags: W
AnchorPoint: "Anchor-10" 756.062 1779.01 mark 0
AnchorPoint: "Anchor-9" 756.062 1779.01 mark 0
AnchorPoint: "Anchor-1" 744.304 2316.37 basemark 0
AnchorPoint: "Anchor-1" 756.062 1779.01 mark 0
LayerCount: 2
Fore
SplineSet
713.022460938 1797.3671875 m 1,0,-1
 650.764648438 2204.63183594 l 1,1,-1
 835.50390625 2314.63867188 l 1,2,-1
 835.50390625 1838.10839844 l 1,3,-1
 713.022460938 1797.3671875 l 1,0,-1
EndSplineSet
EndChar

StartChar: uni0674
Encoding: 1652 1652 73
Width: 802
VWidth: 2763
GlyphClass: 2
Flags: W
LayerCount: 2
Fore
SplineSet
584.380859375 2215.33984375 m 1,0,1
 386 2290 386 2290 327.571289062 2172.16210938 c 0,2,3
 324 2165 324 2165 327.932617188 2157.57421875 c 0,4,5
 363 2078 363 2078 543.197265625 2119.43261719 c 0,6,7
 608 2134 608 2134 622 2126 c 152,-1,8
 636 2118 636 2118 636.946261999 2105.95882201 c 128,-1,9
 637.892523999 2093.91764402 637.892523999 2093.91764402 637.592773438 2061.08398438 c 2,10,-1
 636.5390625 1945.6640625 l 1,11,12
 428.582370078 1879.81766907 428.582370078 1879.81766907 222.834960938 1780.62695312 c 2,13,-1
 186.665039062 1763.18945312 l 1,14,-1
 174.932617188 1951.98828125 l 1,15,16
 213 1972 213 1972 251.473632812 1993.43847656 c 1,17,18
 133 2059 133 2059 189.20703125 2246.41894531 c 0,19,20
 211 2320 211 2320 256.150390625 2366.20703125 c 0,21,22
 323 2436 323 2436 435.5 2436 c 128,-1,23
 548 2436 548 2436 640.684570312 2345.21582031 c 5,24,-1
 584.380859375 2215.33984375 l 1,0,1
EndSplineSet
EndChar

StartChar: uni06A1
Encoding: 1697 1697 77
Width: 1769
VWidth: 3781
GlyphClass: 2
Flags: W
AnchorPoint: "Anchor-10" 740.373 1477.19 basechar 0
AnchorPoint: "Anchor-7" 633.96 -168.962 basechar 0
LayerCount: 2
Fore
SplineSet
1468.05957031 927.244140625 m 1,0,1
 1407.11425781 1065.42871094 1407.11425781 1065.42871094 1307.29492188 1063.99511719 c 0,2,3
 1234.31542969 1063.29589844 1234.31542969 1063.29589844 1209.09863281 1012.63867188 c 0,4,5
 1184.18261719 961.962890625 1184.18261719 961.962890625 1205.88671875 939.840820312 c 0,6,7
 1233.24902344 911.830078125 1233.24902344 911.830078125 1380.11425781 918.813476562 c 0,8,9
 1433.78125 921.4296875 1433.78125 921.4296875 1468.05957031 927.244140625 c 1,0,1
1679.05273438 622.451171875 m 24,10,11
 1657 0 1657 0 878.259765625 0 c 2,12,-1
 846.345703125 0 l 2,13,14
 492 0 492 0 302.881835938 102.362304688 c 0,15,16
 68 231 68 231 69.4775390625 542.9296875 c 0,17,18
 70 794 70 794 191.778320312 994.575195312 c 1,19,-1
 345.325195312 937.671875 l 1,20,21
 288 726 288 726 346.754882812 640.196289062 c 0,22,23
 425 527 425 527 664.052734375 499.48046875 c 4,24,25
 757 489 757 489 980.560546875 489.890625 c 0,26,27
 1241 490 1241 490 1350.83886719 516.84765625 c 0,28,29
 1442 539 1442 539 1469.87304688 597.208984375 c 1,30,31
 1367 582 1367 582 1287.50097656 582.91796875 c 0,32,33
 1034 585 1034 585 1005.24707031 767.690429688 c 0,34,35
 992 851 992 851 1011.31347656 973.724609375 c 0,36,37
 1069 1356 1069 1356 1331.38183594 1356.62695312 c 0,38,39
 1455 1357 1455 1357 1530.92285156 1261.34375 c 0,40,41
 1695 1055 1695 1055 1679.05273438 622.451171875 c 24,10,11
EndSplineSet
Substitution2: "'init' Initial Forms in Arabic lookup 13 subtable" uni06A1.init
Substitution2: "'medi' Medial Forms in Arabic lookup 11 subtable" uni06A1.medi
Substitution2: "'fina' Terminal Forms in Arabic lookup 9 subtable" uni06A1.fina
EndChar

StartChar: uni06A9
Encoding: 1705 1705 78
Width: 1970
VWidth: 3732
GlyphClass: 2
Flags: W
AnchorPoint: "Anchor-10" 598.151 1519.04 basechar 0
AnchorPoint: "Anchor-7" 605.197 -209.588 basechar 0
LayerCount: 2
Fore
SplineSet
1348.13085938 1145.45898438 m 5,0,1
 1534 987 1534 987 1607.18945312 882.861328125 c 4,2,3
 1701 749 1701 749 1699.32519531 599 c 4,4,5
 1695 263 1695 263 1361 99.7060546875 c 4,6,7
 1158 0 1158 0 818.74609375 0 c 0,8,9
 493 0 493 0 305.999023438 102.405273438 c 0,10,11
 74 230 74 230 72.6875 537.596679688 c 0,12,13
 71 805 71 805 194.905273438 992.865234375 c 1,14,-1
 348.1015625 937.327148438 l 1,15,16
 294 722 294 722 345.162109375 647.438476562 c 0,17,18
 452.73594601 488.915495074 452.73594601 488.915495074 860.6796875 492.767578125 c 0,19,20
 1193 496 1193 496 1375.85742188 589.857421875 c 4,21,22
 1421 613 1421 613 1358.63769531 684.5859375 c 28,23,24
 1278 777 1278 777 950.705078125 1035.05761719 c 5,25,-1
 1023.99316406 1378.203125 l 5,26,-1
 1860 1647.61132812 l 6,27,28
 1907.08041615 1663.02632974 1907.08041615 1663.02632974 1901.2109375 1620 c 6,29,-1
 1858.28613281 1305.33886719 l 5,30,-1
 1348.13085938 1145.45898438 l 5,0,1
EndSplineSet
Substitution2: "'init' Initial Forms in Arabic lookup 13 subtable" uniFB90
Substitution2: "'medi' Medial Forms in Arabic lookup 11 subtable" uniFB91
Substitution2: "'fina' Terminal Forms in Arabic lookup 9 subtable" uniFB8F
EndChar

StartChar: afii57509
Encoding: 1711 1711 79
Width: 1924
VWidth: 3742
GlyphClass: 2
Flags: W
AnchorPoint: "Anchor-10" 608.817 1508.38 basechar 0
AnchorPoint: "Anchor-7" 594.53 -220.255 basechar 0
LayerCount: 2
Fore
SplineSet
1364 1042 m 1,0,1
 1486 962 1486 962 1584.26269531 828.34375 c 0,2,3
 1690 684 1690 684 1658.35058594 496.735351562 c 0,4,5
 1634 353 1634 353 1526.65625 242.131835938 c 0,6,7
 1293 0 1293 0 804.079101562 0 c 0,8,9
 494 0 494 0 307.065429688 102.405273438 c 0,10,11
 73 231 73 231 72.6630859375 536.530273438 c 0,12,13
 73 798 73 798 195.971679688 992.865234375 c 1,14,-1
 349.168945312 937.327148438 l 1,15,16
 295 723 295 723 340.849609375 655.893554688 c 0,17,18
 452 493 452 493 819.17578125 492.767578125 c 0,19,20
 1164.69102352 492.989523745 1164.69102352 492.989523745 1334 579.381748529 c 0,21,22
 1374.8714772 600.236979708 1374.8714772 600.236979708 1336 643.269559506 c 4,23,24
 1303.17371583 679.609822206 1303.17371583 679.609822206 1226.02929688 745.385742188 c 0,25,26
 1122 833 1122 833 935.831054688 948.287109375 c 1,27,-1
 1013.99316406 1268.203125 l 1,28,-1
 1850 1537.61132812 l 2,29,30
 1897.08041615 1553.02632974 1897.08041615 1553.02632974 1891.2109375 1510 c 2,31,-1
 1848.28613281 1195.33886719 l 1,32,-1
 1364 1042 l 1,0,1
EndSplineSet
Refer: 274 -1 N 1.1342 0 0 1.1342 1024.95 -571.254 2
Substitution2: "'init' Initial Forms in Arabic lookup 13 subtable" uniFB94
Substitution2: "'medi' Medial Forms in Arabic lookup 11 subtable" uniFB95
Substitution2: "'fina' Terminal Forms in Arabic lookup 9 subtable" uniFB93
EndChar

StartChar: afii57514
Encoding: 1722 1722 80
Width: 1468
VWidth: 3753
GlyphClass: 2
Flags: W
LayerCount: 2
Fore
SplineSet
1129.25488281 -306.529296875 m 0,0,1
 965 -429 965 -429 699.794921875 -428.796875 c 0,2,3
 376 -429 376 -429 224.981445312 -267.259765625 c 0,4,5
 75 -107 75 -107 77.369140625 178.131835938 c 0,6,7
 80 453 80 453 203.59765625 687.725585938 c 1,8,-1
 380.661132812 637.7734375 l 1,9,10
 277 292 277 292 380.943359375 162.887695312 c 0,11,12
 480 41 480 41 710.995117188 42.7294921875 c 4,13,14
 997 45 997 45 1107.68945312 181.228515625 c 0,15,16
 1142 224 1142 224 1104.39941406 300.057617188 c 0,17,18
 1086 338 1086 338 941.727539062 550.396484375 c 1,19,-1
 1163.57910156 835.194335938 l 2,20,21
 1186 864 1186 864 1206.89746094 837.328125 c 0,22,23
 1376 619 1376 619 1376.08007812 258.131835938 c 0,24,25
 1377 -122 1377 -122 1129.25488281 -306.529296875 c 0,0,1
EndSplineSet
Substitution2: "'init' Initial Forms in Arabic lookup 13 subtable" uni06BA.init
Substitution2: "'medi' Medial Forms in Arabic lookup 11 subtable" uni06BA.medi
Substitution2: "'fina' Terminal Forms in Arabic lookup 9 subtable" uniFB9F
EndChar

StartChar: uni06F4
Encoding: 1780 1780 87
Width: 1345
VWidth: 3386
GlyphClass: 2
Flags: W
LayerCount: 2
Fore
SplineSet
493.140625 1414.48632812 m 2,0,1
 531.154296875 1310.95800781 531.154296875 1310.95800781 607.765625 1251.66015625 c 1,2,3
 599.462890625 1384.52441406 599.462890625 1384.52441406 636.9765625 1459.17871094 c 0,4,5
 726.395507812 1637.32324219 726.395507812 1637.32324219 938.357421875 1636.32617188 c 0,6,7
 1091.86523438 1636.25683594 1091.86523438 1636.25683594 1202.2734375 1501.74121094 c 2,8,-1
 1214.91601562 1486.33886719 l 1,9,-1
 1152.99414062 1310.79101562 l 1,10,-1
 1124.78027344 1321.79003906 l 2,11,12
 909.861328125 1405.85742188 909.861328125 1405.85742188 819.1953125 1273.59179688 c 0,13,14
 801.061523438 1246.92578125 801.061523438 1246.92578125 795.411132812 1209.59277344 c 0,15,16
 788.26171875 1157.32617188 788.26171875 1157.32617188 852.26171875 1128.30664062 c 0,17,18
 1000.52734375 1061.32714844 1000.52734375 1061.32714844 1216.72949219 1153.31640625 c 1,19,-1
 1251.19238281 918.39453125 l 1,20,21
 1129.59277344 796.794921875 1129.59277344 796.794921875 930.127929688 789.27734375 c 0,22,23
 758.395507812 782.928710938 758.395507812 782.928710938 616.16796875 860.971679688 c 1,24,25
 712.529296875 386.130859375 712.529296875 386.130859375 670.724609375 104.932617188 c 0,26,27
 657.116210938 13.162109375 657.116210938 13.162109375 430.272460938 -4.0302734375 c 2,28,-1
 406.948242188 -5.7978515625 l 1,29,-1
 404.594726562 31.58203125 l 2,30,31
 361.59765625 707.1953125 361.59765625 707.1953125 94.4736328125 1437.67285156 c 1,32,-1
 354.104492188 1610.0234375 l 2,33,34
 379.731445312 1626.65625 379.731445312 1626.65625 399.997070312 1624.5234375 c 0,35,36
 419.197265625 1622.38964844 419.197265625 1622.38964844 438.930664062 1562.12402344 c 0,37,-1
 493.140625 1414.48632812 l 2,0,1
EndSplineSet
EndChar

StartChar: uni06F5
Encoding: 1781 1781 88
Width: 1312
VWidth: 3183
GlyphClass: 2
Flags: W
LayerCount: 2
Fore
SplineSet
718.743164062 586.58203125 m 1,0,1
 759.857154103 394.661137746 759.857154103 394.661137746 885 390.258754586 c 0,2,3
 1019.12681612 385.540325558 1019.12681612 385.540325558 970.459960938 533.598632812 c 0,4,5
 897 753 897 753 601.520507812 1053.02246094 c 1,6,7
 341.731445312 676.262695312 341.731445312 676.262695312 318.797851562 507.73046875 c 0,8,9
 302.168945312 392.462890625 302.168945312 392.462890625 409.180664062 390.111328125 c 0,10,11
 530.049804688 387.208984375 530.049804688 387.208984375 568.408203125 543.909179688 c 2,12,-1
 579.569335938 589.505859375 l 1,13,-1
 718.743164062 586.58203125 l 1,0,1
385.869140625 4.9697265625 m 0,14,15
 73 5 73 5 69.8095703125 364.271484375 c 0,16,17
 66 746 66 746 409.912109375 1278.80664062 c 1,18,-1
 367.806640625 1326.79980469 l 1,19,-1
 550.819910611 1596 l 2,20,21
 569.28515625 1623.16113281 569.28515625 1623.16113281 599.886814056 1592 c 6,22,-1
 620.77734375 1570.72753906 l 2,23,24
 1225 955 1225 955 1224.65820312 428.274414062 c 0,25,26
 1224 2 1224 2 928.809570312 4.646484375 c 0,27,28
 755 6 755 6 656.561523438 139.28125 c 1,29,30
 567 5 567 5 385.869140625 4.9697265625 c 0,14,15
EndSplineSet
EndChar

StartChar: uni06F6
Encoding: 1782 1782 89
Width: 1180
VWidth: 3397
GlyphClass: 2
Flags: W
LayerCount: 2
Fore
SplineSet
390.454101562 717.698242188 m 1,0,1
 100.265625 805.328125 100.265625 805.328125 100.23046875 1131.29589844 c 0,2,3
 100.265625 1221.32617188 100.265625 1221.32617188 139.799804688 1314.7890625 c 4,4,5
 275.198242188 1635.18945312 275.198242188 1635.18945312 586.262695312 1635.04003906 c 0,6,7
 763.728515625 1635.18945312 763.728515625 1635.18945312 938.526367188 1480.06933594 c 1,8,-1
 850.377929688 1244.45117188 l 1,9,10
 642.12890625 1334.39160156 642.12890625 1334.39160156 518.799804688 1283.56054688 c 0,11,12
 413.864257812 1240.52539062 413.864257812 1240.52539062 379.796875 1165.53320312 c 0,13,14
 367.998046875 1140.25976562 367.998046875 1140.25976562 390.509765625 1106.45117188 c 0,15,16
 454.397460938 1014.39355469 454.397460938 1014.39355469 704.42578125 1010.25097656 c 1,17,18
 939.727539062 1130.65917969 939.727539062 1130.65917969 963.092773438 1142.17382812 c 0,19,20
 1063.45996094 1190.39257812 1063.45996094 1190.39257812 1083.7265625 1158.39257812 c 0,21,22
 1095.859375 1137.43652344 1095.859375 1137.43652344 1088.48828125 1059.953125 c 2,23,-1
 1063.55664062 797.887695312 l 1,24,25
 791.461914062 655.99609375 791.461914062 655.99609375 577.063476562 386.130859375 c 0,26,27
 440.530273438 214.3984375 440.530273438 214.3984375 312.75 0.51953125 c 1,28,-1
 135.465820312 107.732421875 l 2,29,30
 103.465820312 126.932617188 103.465820312 126.932617188 109.866210938 181.33203125 c 0,31,32
 115.19921875 221.865234375 115.19921875 221.865234375 167.465820312 334.931640625 c 0,33,34
 270.931640625 561.063476562 270.931640625 561.063476562 390.454101562 717.698242188 c 1,0,1
EndSplineSet
EndChar

StartChar: uniFB8F
Encoding: 64399 64399 104
Width: 2161
VWidth: 3732
GlyphClass: 2
Flags: W
AnchorPoint: "Anchor-7" 569.997 -209.588 basechar 0
AnchorPoint: "Anchor-10" 584.284 1519.04 basechar 0
LayerCount: 2
Fore
SplineSet
1013.99316406 1378.203125 m 5,0,-1
 1850 1647.61132812 l 6,1,2
 1897.08041615 1663.02632974 1897.08041615 1663.02632974 1891.2109375 1620 c 6,3,-1
 1848.28613281 1305.33886719 l 5,4,-1
 1338.13085938 1145.45898438 l 5,5,6
 1555 943 1555 943 1764 742.248046875 c 4,7,8
 2022.07235112 494.930664062 2022.07235112 494.930664062 2150.55859375 494.930664062 c 6,9,-1
 2183.20507812 494.930664062 l 5,10,-1
 2183.20507812 0 l 5,11,-1
 2154.18359375 0 l 6,12,13
 1913 0 1913 0 1630.19628906 353.731445312 c 5,14,15
 1437 0 1437 0 806.079101562 0 c 0,16,17
 493 0 493 0 305.999023438 102.405273438 c 0,18,19
 74 230 74 230 71.4013671875 521.596679688 c 0,20,21
 69 796 69 796 194.905273438 992.865234375 c 1,22,-1
 348.1015625 937.327148438 l 1,23,24
 294 722 294 722 345.162109375 647.438476562 c 0,25,26
 453 491 453 491 818.013671875 492.767578125 c 0,27,28
 1230 495 1230 495 1394 601.223632812 c 4,29,30
 1406 609 1406 609 1394.99707031 625.0625 c 4,31,32
 1347 694 1347 694 940.705078125 1035.05761719 c 5,33,-1
 1013.99316406 1378.203125 l 5,0,-1
EndSplineSet
EndChar

StartChar: uniFB93
Encoding: 64403 64403 108
Width: 2052
VWidth: 3742
GlyphClass: 2
Flags: W
AnchorPoint: "Anchor-7" 594.53 -220.255 basechar 0
AnchorPoint: "Anchor-10" 608.817 1508.38 basechar 0
LayerCount: 2
Fore
SplineSet
1363 1042 m 1,0,1
 1471 930 1471 930 1578.92871094 817.676757812 c 0,2,3
 1890.06684218 494.930664062 1890.06684218 494.930664062 2049.68652344 494.930664062 c 2,4,-1
 2068.48535156 494.930664062 l 1,5,-1
 2068.48535156 0 l 1,6,-1
 2051.2109375 0 l 2,7,8
 1834 0 1834 0 1571.20117188 329.59765625 c 1,9,10
 1538 276 1538 276 1480.43652344 216.5625 c 0,11,12
 1270 0 1270 0 814.079101562 0 c 0,13,14
 494 0 494 0 307.065429688 102.405273438 c 0,15,16
 71 232 71 232 72.669921875 539.729492188 c 0,17,18
 74 799 74 799 195.971679688 992.865234375 c 1,19,-1
 349.168945312 937.327148438 l 1,20,21
 295 723 295 723 340.849609375 655.893554688 c 0,22,23
 452 493 452 493 819.17578125 492.767578125 c 0,24,25
 1292 493 1292 493 1294.39160156 605.86328125 c 0,26,27
 1295 641 1295 641 1163.76269531 758.185546875 c 0,28,29
 1020 888 1020 888 935.831054688 948.287109375 c 1,30,-1
 1012.99316406 1268.203125 l 1,31,-1
 1849 1537.61132812 l 2,32,33
 1896.08041615 1553.02632974 1896.08041615 1553.02632974 1890.2109375 1510 c 2,34,-1
 1847.28613281 1195.33886719 l 1,35,-1
 1363 1042 l 1,0,1
EndSplineSet
Refer: 274 -1 N 1.1342 0 0 1.1342 1023.89 -571.254 2
EndChar

StartChar: uniFB94
Encoding: 64404 64404 109
Width: 999
VWidth: 3742
GlyphClass: 2
Flags: W
AnchorPoint: "Anchor-10" 289.998 2022.17 basechar 0
AnchorPoint: "Anchor-7" 334.15 -223.806 basechar 0
LayerCount: 2
Fore
SplineSet
447 1044 m 5,0,1
 597 919 597 919 660.268554688 821.943359375 c 0,2,3
 753.912420515 677.610772327 753.912420515 677.610772327 747.712890625 508.483398438 c 0,4,5
 741 317 741 317 613.329101562 182.3984375 c 0,6,7
 439 0 439 0 149.885742188 0 c 2,8,-1
 -16.9423828125 0 l 1,9,-1
 -16.9423828125 494.930664062 l 1,10,-1
 33.630859375 494.930664062 l 2,11,12
 369.922999442 494.930664062 369.922999442 494.930664062 425.59765625 545.063476562 c 0,13,14
 461 577 461 577 280.702148438 735.786132812 c 24,15,16
 123 876 123 876 11.837890625 948.287109375 c 1,17,-1
 83.9931640625 1268.203125 l 1,18,-1
 920 1537.61132812 l 2,19,20
 966.96585191 1552.74635481 966.96585191 1552.74635481 961.2109375 1510 c 2,21,-1
 918.286132812 1195.33886719 l 1,22,-1
 447 1044 l 5,0,1
EndSplineSet
Refer: 274 -1 N 1.1342 0 0 1.1342 105.231 -571.254 2
EndChar

StartChar: uniFB95
Encoding: 64405 64405 110
Width: 1135
VWidth: 3742
GlyphClass: 2
Flags: W
AnchorPoint: "Anchor-10" 226.55 1987.67 basechar 0
AnchorPoint: "Anchor-7" 367.424 -197.155 basechar 0
LayerCount: 2
Fore
SplineSet
450.677734375 1041.51269531 m 1,0,1
 499 1001 499 1001 684.801757812 807.010742188 c 0,2,3
 985.06671093 494.930664062 985.06671093 494.930664062 1127.82617188 494.930664062 c 2,4,-1
 1151.95800781 494.930664062 l 1,5,-1
 1151.95800781 0 l 1,6,-1
 1128.28320312 0 l 2,7,8
 935 0 935 0 679.172851562 295.46484375 c 5,9,10
 649 228 649 228 596.450195312 173.903320312 c 0,11,12
 428 0 428 0 11.2197265625 0 c 2,13,-1
 -16.9423828125 0 l 1,14,-1
 -16.9423828125 494.930664062 l 1,15,-1
 33.630859375 494.930664062 l 2,16,17
 349 495 349 495 405.59765625 545.063476562 c 0,18,19
 445 580 445 580 274.96875 728.319335938 c 24,20,21
 52 922 52 922 11.837890625 948.287109375 c 1,22,-1
 87.9931640625 1268.203125 l 1,23,-1
 924 1537.61132812 l 2,24,25
 971.080416148 1553.02632974 971.080416148 1553.02632974 965.2109375 1510 c 2,26,-1
 922.286132812 1195.33886719 l 1,27,-1
 450.677734375 1041.51269531 l 1,0,1
EndSplineSet
Refer: 274 -1 N 1.1342 0 0 1.1342 105.231 -571.254 2
EndChar

StartChar: uniFB9F
Encoding: 64415 64415 112
Width: 1529
VWidth: 3752
GlyphClass: 2
Flags: W
AnchorPoint: "Anchor-10" 591.322 1035.5 basechar 0
AnchorPoint: "Anchor-7" 466.537 -978.647 basechar 0
LayerCount: 2
Fore
SplineSet
1274.37597656 614.0078125 m 6,0,1
 1369.7626788 494.930664062 1369.7626788 494.930664062 1491.49414062 494.930664062 c 2,2,-1
 1546.26464844 494.930664062 l 1,3,-1
 1546.26464844 0 l 1,4,-1
 1502.35839844 0 l 2,5,6
 1438 0 1438 0 1357.47265625 34.34375 c 1,7,8
 1332 -295 1332 -295 1129.25488281 -445.1953125 c 4,9,10
 965 -567 965 -567 698.401367188 -567.462890625 c 4,11,12
 374 -567 374 -567 224.981445312 -405.92578125 c 4,13,14
 81 -252 81 -252 80 33 c 4,15,16
 79 286 79 286 203.59765625 549.060546875 c 5,17,-1
 380.661132812 499.107421875 l 5,18,19
 277 154 277 154 380.943359375 24.2216796875 c 4,20,21
 479 -97 479 -97 723.661132812 -95.935546875 c 4,22,23
 997 -94 997 -94 1107.68945312 42.5625 c 4,24,25
 1142 85 1142 85 1104.39941406 161.391601562 c 4,26,27
 1086 199 1086 199 941.727539062 411.73046875 c 5,28,-1
 1166.07128906 699.728515625 l 6,29,30
 1185.7349592 724.663903278 1185.7349592 724.663903278 1209.98144531 694.395507812 c 6,31,-1
 1274.37597656 614.0078125 l 6,0,1
EndSplineSet
EndChar

StartChar: uniFBE8
Encoding: 64488 64488 115
Width: 668
VWidth: 3752
GlyphClass: 2
Flags: W
AnchorPoint: "Anchor-10" 303.261 1302.53 basechar 0
AnchorPoint: "Anchor-7" 350.876 -228.542 basechar 0
LayerCount: 2
Fore
SplineSet
97.4580078125 494.930664062 m 2,0,1
 251.930667009 494.930664062 251.930667009 494.930664062 297.95703125 540.958984375 c 0,2,3
 315 558 315 558 307 598 c 0,4,5
 297 647 297 647 276 693 c 2,6,-1
 222.896484375 810.868164062 l 1,7,-1
 401.8203125 1033.32714844 l 2,8,9
 428.956946968 1067.06657938 428.956946968 1067.06657938 451.463867188 1032.26074219 c 0,10,11
 578 837 578 837 577.319335938 591.590820312 c 0,12,13
 576 320 576 320 439.663085938 144.848632812 c 0,14,15
 327 0 327 0 116.955078125 0 c 2,16,-1
 -16.3564453125 0 l 1,17,-1
 -16.3564453125 494.930664062 l 1,18,-1
 97.4580078125 494.930664062 l 2,0,1
EndSplineSet
EndChar

StartChar: uniFBE9
Encoding: 64489 64489 116
Width: 719
VWidth: 3731
GlyphClass: 2
Flags: W
AnchorPoint: "Anchor-10" 376.951 1190.37 basechar 0
AnchorPoint: "Anchor-7" 351.317 -187.507 basechar 0
LayerCount: 2
Fore
SplineSet
343.51171875 802.966796875 m 1,0,-1
 505.443359375 803.048828125 l 1,1,-1
 526.337890625 668.008789062 l 2,2,3
 553.010685251 494.930664062 553.010685251 494.930664062 715.548828125 494.930664062 c 6,4,-1
 736.154296875 494.930664062 l 5,5,-1
 736.154296875 0 l 5,6,-1
 703.407226562 0 l 6,7,8
 540 0 540 0 411.748046875 172.262695312 c 1,9,10
 291 0 291 0 55.16796875 0 c 2,11,-1
 -16.6708984375 0 l 1,12,-1
 -16.6708984375 494.930664062 l 1,13,-1
 63.84765625 494.930664062 l 2,14,15
 298.888269822 494.999967056 298.888269822 494.999967056 323.54296875 665.153320312 c 2,16,-1
 343.51171875 802.966796875 l 1,0,-1
EndSplineSet
EndChar

StartChar: uniFE73
Encoding: 65139 65139 124
Width: 895
VWidth: 3443
GlyphClass: 2
Flags: W
AnchorPoint: "Anchor-10" 331.315 2044.75 basechar 0
AnchorPoint: "Anchor-7" 331.315 -141.598 basechar 0
LayerCount: 2
Fore
SplineSet
482.139648438 584.939453125 m 2,0,1
 482.139648438 490.826171875 482.139648438 490.826171875 561.486328125 411.481445312 c 128,-1,2
 640.83203125 332.135742188 640.83203125 332.135742188 808.9453125 332.135742188 c 2,3,-1
 931.182617188 332.135742188 l 1,4,-1
 931.182617188 30.4833984375 l 1,5,-1
 716.446289062 30.4833984375 l 2,6,7
 479.249023438 30.4833984375 479.249023438 30.4833984375 329.866210938 179.865234375 c 128,-1,8
 180.489257812 329.245117188 180.489257812 329.245117188 180.489257812 564.759765625 c 2,9,-1
 180.489257812 633.174804688 l 1,10,-1
 482.139648438 633.174804688 l 1,11,-1
 482.139648438 584.939453125 l 2,0,1
EndSplineSet
EndChar

StartChar: uniFE8E
Encoding: 65166 65166 150
Width: 642
VWidth: 3713
GlyphClass: 2
Flags: W
AnchorPoint: "Anchor-10" 309.495 1769.18 basechar 0
AnchorPoint: "Anchor-7" 363.405 -198.464 basechar 0
LayerCount: 2
Fore
SplineSet
460.44140625 1606 m 4,0,1
 477.876953125 1258.36132812 477.876953125 1258.36132812 474.787109375 965.620117188 c 4,2,3
 471 610 471 610 510.349609375 540.286132812 c 4,4,5
 536.0390625 494.930664062 536.0390625 494.930664062 620.548828125 494.930664062 c 6,6,-1
 659.069335938 494.930664062 l 5,7,-1
 659.069335938 0 l 5,8,-1
 634.556640625 0 l 6,9,10
 253 0 253 0 180.899414062 238.931640625 c 4,11,12
 144 362 144 362 142.533203125 590.065429688 c 4,13,14
 138 1218 138 1218 86.6552734375 1460.99804688 c 5,15,-1
 407.064453125 1661.25 l 6,16,17
 456.124023438 1692.078125 456.124023438 1692.078125 460.44140625 1606 c 4,0,1
EndSplineSet
EndChar

StartChar: uniFEA2
Encoding: 65186 65186 170
Width: 1367
VWidth: 3747
GlyphClass: 2
Flags: W
AnchorPoint: "Anchor-10" 620.639 1282.02 basechar 0
AnchorPoint: "Anchor-7" 475.069 -813.641 basechar 0
LayerCount: 2
Fore
SplineSet
794.077148438 -647.38671875 m 4,0,1
 444 -648 444 -648 282.713867188 -497.158203125 c 4,2,3
 122 -346 122 -346 121.922851562 -38.7626953125 c 4,4,5
 123 392 123 392 483.4375 616.014648438 c 0,6,7
 564 666 564 666 664.129882812 699.313476562 c 1,8,9
 635 706 635 706 586.555664062 716.66796875 c 0,10,11
 539 727 539 727 437.388671875 738.76953125 c 0,12,13
 336.678594676 750.035955575 336.678594676 750.035955575 235.0859375 628.678710938 c 2,14,-1
 223.229492188 614.515625 l 1,15,-1
 69.0341796875 662.51953125 l 1,16,17
 132 884 132 884 196.786132812 975.567382812 c 0,18,19
 287 1102 287 1102 453.674804688 1105.74609375 c 0,20,21
 513 1107 513 1107 1017.93554688 957.670898438 c 0,22,23
 1125.33968186 925.899518194 1125.33968186 925.899518194 1267.93066406 928.150390625 c 2,24,-1
 1275.72558594 928.2734375 l 2,25,26
 1296.59285091 928.986095069 1296.59285091 928.986095069 1290.77734375 904.52734375 c 2,27,-1
 1207.77148438 555.422851562 l 1,28,29
 1116 548 1116 548 1051.72851562 532.84765625 c 1,30,31
 1059.01332117 494.930664062 1059.01332117 494.930664062 1352.56054688 494.930664062 c 2,32,-1
 1384.32910156 494.930664062 l 1,33,-1
 1384.32910156 0 l 1,34,-1
 1361.61132812 0 l 2,35,36
 921 0 921 0 867.608398438 465.705078125 c 1,37,38
 807 449 807 449 689.989257812 390.4765625 c 0,39,40
 314 205 314 205 342.962890625 -42.3388671875 c 4,41,42
 368 -255 368 -255 788.170898438 -251.796875 c 4,43,44
 875 -251 875 -251 1012.76074219 -233.498046875 c 4,45,46
 1173 -213 1173 -213 1179.89941406 -213.712890625 c 28,47,48
 1202 -216 1202 -216 1201.27246094 -242.649414062 c 4,49,50
 1194 -599 1194 -599 1147.99316406 -618.404296875 c 4,51,52
 1128 -627 1128 -627 1041.08007812 -635.024414062 c 4,53,54
 917 -647 917 -647 794.077148438 -647.38671875 c 4,0,1
EndSplineSet
EndChar

StartChar: uniFEA3
Encoding: 65187 65187 171
Width: 1465
VWidth: 3753
GlyphClass: 2
Flags: W
AnchorPoint: "Anchor-10" 502.983 1532.88 basechar 0
AnchorPoint: "Anchor-7" 582.7 -175.896 basechar 0
LayerCount: 2
Fore
SplineSet
834.288085938 639.15625 m 5,0,1
 758 660 758 660 671 694.180664062 c 4,2,3
 505 759 505 759 439.553710938 758.686523438 c 4,4,5
 301.909636526 759.000205933 301.909636526 759.000205933 218.732421875 654.512695312 c 6,6,-1
 207.831054688 640.818359375 l 5,7,-1
 66.6279296875 713.568359375 l 5,8,-1
 74.84375 739.750976562 l 6,9,10
 134 928 134 928 227.604492188 1035.50292969 c 4,11,12
 332 1156 332 1156 479.014648438 1156.59277344 c 4,13,14
 586 1157 586 1157 827.096679688 1038.81445312 c 4,15,16
 1057 926 1057 926 1230.828125 898.51953125 c 4,17,18
 1304.80415248 887.585533336 1304.80415248 887.585533336 1392.57226562 889.969726562 c 6,19,-1
 1398.32421875 890.125976562 l 6,20,21
 1424.23195431 891.007895904 1424.23195431 891.007895904 1416.71386719 866.127929688 c 6,22,-1
 1307.50292969 504.7109375 l 5,23,24
 1066 433 1066 433 629.846679688 162.102539062 c 4,25,26
 370 0 370 0 55.7841796875 0 c 6,27,-1
 -11.447265625 0 l 5,28,-1
 -11.447265625 494.930664062 l 5,29,-1
 75.7578125 494.930664062 l 6,30,31
 469.22957843 495.000040479 469.22957843 495.000040479 725 596 c 6,32,-1
 834.288085938 639.15625 l 5,0,1
EndSplineSet
EndChar

StartChar: uniFEA4
Encoding: 65188 65188 172
Width: 1445
VWidth: 3753
GlyphClass: 2
Flags: W
AnchorPoint: "Anchor-10" 509.275 1489.68 basechar 0
AnchorPoint: "Anchor-7" 545.822 -172.531 basechar 0
LayerCount: 2
Fore
SplineSet
897 363 m 1,0,1
 764 276 764 276 629.846679688 192.102539062 c 0,2,3
 322 0 322 0 55.7841796875 0 c 2,4,-1
 -11.447265625 0 l 1,5,-1
 -11.447265625 494.930664062 l 1,6,-1
 75.7578125 494.930664062 l 2,7,8
 469.22957843 495.000040479 469.22957843 495.000040479 725 596 c 2,9,-1
 834.288085938 639.15625 l 1,10,11
 758 660 758 660 671 694.180664062 c 0,12,13
 505 759 505 759 439.553710938 758.686523438 c 0,14,15
 301.909636526 759.000205933 301.909636526 759.000205933 218.732421875 654.512695312 c 2,16,-1
 207.831054688 640.818359375 l 1,17,-1
 66.6279296875 713.568359375 l 1,18,-1
 74.84375 739.750976562 l 2,19,20
 134 928 134 928 227.604492188 1035.50292969 c 0,21,22
 332 1156 332 1156 479.014648438 1156.59277344 c 0,23,24
 586 1157 586 1157 827.096679688 1038.81445312 c 0,25,26
 1064 922 1064 922 1230.828125 898.51953125 c 0,27,28
 1308.34258868 887.953300703 1308.34258868 887.953300703 1382.57226562 889.969726562 c 2,29,-1
 1388.32421875 890.125976562 l 2,30,31
 1414.07606562 891.002589332 1414.07606562 891.002589332 1406.71386719 866.127929688 c 2,32,-1
 1317.50292969 564.7109375 l 1,33,34
 1183 563 1183 563 1117 506 c 5,35,36
 1120 493 1120 493 1165 493.45703125 c 6,37,-1
 1455.93847656 494.930664062 l 1,38,-1
 1455.93847656 0 l 1,39,-1
 1326.95898438 0 l 2,40,41
 967 0 967 0 897 363 c 1,0,1
EndSplineSet
EndChar

StartChar: uniFEAA
Encoding: 65194 65194 178
Width: 1139
VWidth: 3745
GlyphClass: 2
Flags: W
AnchorPoint: "Anchor-10" 646.121 1529.85 basechar 0
AnchorPoint: "Anchor-7" 482.785 -232.355 basechar 0
LayerCount: 2
Fore
SplineSet
814.540039062 203.997070312 m 1,0,1
 668 0 668 0 423.119140625 -0.1884765625 c 4,2,3
 66 -0 66 -0 63.7099609375 372.096679688 c 0,4,5
 63 494 63 494 109.271484375 632.56640625 c 1,6,-1
 260.845703125 615.985351562 l 1,7,-1
 262.356445312 568.306640625 l 2,8,9
 265 497 265 497 436.95703125 497.176757812 c 0,10,11
 561 497 561 497 635.379882812 534.534179688 c 0,12,13
 680.67847981 557.834618246 680.67847981 557.834618246 668.731445312 594.129882812 c 2,14,-1
 509.330078125 1078.39355469 l 1,15,-1
 693.663085938 1279.9921875 l 2,16,17
 715 1303 715 1303 724.368164062 1302.99121094 c 0,18,19
 742.122793213 1303.00006121 742.122793213 1303.00006121 750.395507812 1277.85839844 c 2,20,-1
 949.1953125 673.684570312 l 2,21,22
 1008.0228183 494.930664062 1008.0228183 494.930664062 1132.49707031 494.930664062 c 2,23,-1
 1156.66992188 494.930664062 l 1,24,-1
 1156.66992188 0 l 1,25,-1
 1128.72753906 0 l 2,26,27
 916 0 916 0 814.540039062 203.997070312 c 1,0,1
EndSplineSet
EndChar

StartChar: uniFEAE
Encoding: 65198 65198 182
Width: 927
VWidth: 3752
GlyphClass: 2
Flags: W
AnchorPoint: "Anchor-10" 473.511 1114.68 basechar 0
AnchorPoint: "Anchor-7" 242.764 -781.881 basechar 0
LayerCount: 2
Fore
SplineSet
779.047851562 38 m 5,0,1
 766 -52 766 -52 735.122070312 -139 c 0,2,3
 613 -484 613 -484 206.393554688 -631.7265625 c 0,4,5
 178 -642 178 -642 167.823242188 -628.5234375 c 0,6,7
 -11 -369 -11 -369 -19.556640625 -339.661132812 c 0,8,9
 -29 -308 -29 -308 16.068359375 -289.311523438 c 0,10,11
 466 -103 466 -103 497.569335938 88.119140625 c 0,12,13
 516 202 516 202 335.463867188 470.397460938 c 1,14,15
 439 611 439 611 542.329101562 751.995117188 c 0,16,17
 581 805 581 805 620.900390625 745.595703125 c 0,18,19
 624 741 624 741 687.59375 646 c 0,20,21
 789.046563559 494.930664062 789.046563559 494.930664062 924.4921875 494.930664062 c 2,22,-1
 943.192382812 494.930664062 l 1,23,-1
 943.192382812 0 l 1,24,-1
 919.936523438 0 l 2,25,26
 834 0 834 0 779.047851562 38 c 5,0,1
EndSplineSet
PairPos2: "'kern' Horizontal Kerning lookup 15-1" uniFBFE dx=53 dy=0 dh=53 dv=0 dx=0 dy=0 dh=0 dv=0
PairPos2: "'kern' Horizontal Kerning lookup 15-1" uniFEF3 dx=53 dy=0 dh=53 dv=0 dx=0 dy=0 dh=0 dv=0
PairPos2: "'kern' Horizontal Kerning lookup 15-1" uniFB58 dx=53 dy=0 dh=53 dv=0 dx=0 dy=0 dh=0 dv=0
PairPos2: "'kern' Horizontal Kerning lookup 15-4" uni0621 dx=-196 dy=0 dh=-196 dv=0 dx=0 dy=0 dh=0 dv=0
PairPos2: "'kern' Horizontal Kerning lookup 15-3" uni0648 dx=-43 dy=0 dh=-43 dv=0 dx=0 dy=0 dh=0 dv=0
PairPos2: "'kern' Horizontal Kerning lookup 15-1" uni0644 dx=-43 dy=0 dh=-43 dv=0 dx=0 dy=0 dh=0 dv=0
PairPos2: "'kern' Horizontal Kerning lookup 15-1" uni0642 dx=-43 dy=0 dh=-43 dv=0 dx=0 dy=0 dh=0 dv=0
PairPos2: "'kern' Horizontal Kerning lookup 15-1" uni0632 dx=-43 dy=0 dh=-43 dv=0 dx=0 dy=0 dh=0 dv=0
PairPos2: "'kern' Horizontal Kerning lookup 15-1" uni0631 dx=-43 dy=0 dh=-43 dv=0 dx=0 dy=0 dh=0 dv=0
PairPos2: "'kern' Horizontal Kerning lookup 15-1" uniFB8A dx=-43 dy=0 dh=-43 dv=0 dx=0 dy=0 dh=0 dv=0
PairPos2: "'kern' Horizontal Kerning lookup 15-1" afii57508 dx=-43 dy=0 dh=-43 dv=0 dx=0 dy=0 dh=0 dv=0
PairPos2: "'kern' Horizontal Kerning lookup 15-1" uniFB7C dx=-128 dy=0 dh=-128 dv=0 dx=0 dy=0 dh=0 dv=0
PairPos2: "'kern' Horizontal Kerning lookup 15-1" uni06CC dx=-43 dy=0 dh=-43 dv=0 dx=0 dy=0 dh=0 dv=0
PairPos2: "'kern' Horizontal Kerning lookup 15-1" uniFEEB dx=-128 dy=0 dh=-128 dv=0 dx=0 dy=0 dh=0 dv=0
PairPos2: "'kern' Horizontal Kerning lookup 15-1" uniFEDF dx=-128 dy=0 dh=-128 dv=0 dx=0 dy=0 dh=0 dv=0
PairPos2: "'kern' Horizontal Kerning lookup 15-1" uniFB90 dx=-196 dy=0 dh=-196 dv=0 dx=0 dy=0 dh=0 dv=0
PairPos2: "'kern' Horizontal Kerning lookup 15-1" uni06A9 dx=-196 dy=0 dh=-196 dv=0 dx=0 dy=0 dh=0 dv=0
PairPos2: "'kern' Horizontal Kerning lookup 15-1" uni0649 dx=-43 dy=0 dh=-43 dv=0 dx=0 dy=0 dh=0 dv=0
PairPos2: "'kern' Horizontal Kerning lookup 15-1" uni0647 dx=-128 dy=0 dh=-128 dv=0 dx=0 dy=0 dh=0 dv=0
PairPos2: "'kern' Horizontal Kerning lookup 15-1" uniFEE7 dx=-128 dy=0 dh=-128 dv=0 dx=0 dy=0 dh=0 dv=0
PairPos2: "'kern' Horizontal Kerning lookup 15-1" uniFEE3 dx=-128 dy=0 dh=-128 dv=0 dx=0 dy=0 dh=0 dv=0
PairPos2: "'kern' Horizontal Kerning lookup 15-1" uni0645 dx=-128 dy=0 dh=-128 dv=0 dx=0 dy=0 dh=0 dv=0
PairPos2: "'kern' Horizontal Kerning lookup 15-1" uniFEDB dx=-196 dy=0 dh=-196 dv=0 dx=0 dy=0 dh=0 dv=0
PairPos2: "'kern' Horizontal Kerning lookup 15-1" uniFED7 dx=-128 dy=0 dh=-128 dv=0 dx=0 dy=0 dh=0 dv=0
PairPos2: "'kern' Horizontal Kerning lookup 15-1" uniFED3 dx=-128 dy=0 dh=-128 dv=0 dx=0 dy=0 dh=0 dv=0
PairPos2: "'kern' Horizontal Kerning lookup 15-1" uni0641 dx=-128 dy=0 dh=-128 dv=0 dx=0 dy=0 dh=0 dv=0
PairPos2: "'kern' Horizontal Kerning lookup 15-1" uniFECF dx=-128 dy=0 dh=-128 dv=0 dx=0 dy=0 dh=0 dv=0
PairPos2: "'kern' Horizontal Kerning lookup 15-1" uniFECB dx=-128 dy=0 dh=-128 dv=0 dx=0 dy=0 dh=0 dv=0
PairPos2: "'kern' Horizontal Kerning lookup 15-1" uniFEC7 dx=-128 dy=0 dh=-128 dv=0 dx=0 dy=0 dh=0 dv=0
PairPos2: "'kern' Horizontal Kerning lookup 15-1" uni0638 dx=-128 dy=0 dh=-128 dv=0 dx=0 dy=0 dh=0 dv=0
PairPos2: "'kern' Horizontal Kerning lookup 15-1" uniFEC3 dx=-128 dy=0 dh=-128 dv=0 dx=0 dy=0 dh=0 dv=0
PairPos2: "'kern' Horizontal Kerning lookup 15-1" uni0637 dx=-128 dy=0 dh=-128 dv=0 dx=0 dy=0 dh=0 dv=0
PairPos2: "'kern' Horizontal Kerning lookup 15-1" uniFEBF dx=-128 dy=0 dh=-128 dv=0 dx=0 dy=0 dh=0 dv=0
PairPos2: "'kern' Horizontal Kerning lookup 15-1" uni0636 dx=-128 dy=0 dh=-128 dv=0 dx=0 dy=0 dh=0 dv=0
PairPos2: "'kern' Horizontal Kerning lookup 15-1" uniFEBB dx=-128 dy=0 dh=-128 dv=0 dx=0 dy=0 dh=0 dv=0
PairPos2: "'kern' Horizontal Kerning lookup 15-1" uni0635 dx=-128 dy=0 dh=-128 dv=0 dx=0 dy=0 dh=0 dv=0
PairPos2: "'kern' Horizontal Kerning lookup 15-1" uniFEB7 dx=-128 dy=0 dh=-128 dv=0 dx=0 dy=0 dh=0 dv=0
PairPos2: "'kern' Horizontal Kerning lookup 15-1" uni0634 dx=-128 dy=0 dh=-128 dv=0 dx=0 dy=0 dh=0 dv=0
PairPos2: "'kern' Horizontal Kerning lookup 15-1" uniFEB3 dx=-128 dy=0 dh=-128 dv=0 dx=0 dy=0 dh=0 dv=0
PairPos2: "'kern' Horizontal Kerning lookup 15-1" uni0633 dx=-128 dy=0 dh=-128 dv=0 dx=0 dy=0 dh=0 dv=0
PairPos2: "'kern' Horizontal Kerning lookup 15-1" uni0630 dx=-128 dy=0 dh=-128 dv=0 dx=0 dy=0 dh=0 dv=0
PairPos2: "'kern' Horizontal Kerning lookup 15-1" uni062F dx=-128 dy=0 dh=-128 dv=0 dx=0 dy=0 dh=0 dv=0
PairPos2: "'kern' Horizontal Kerning lookup 15-1" uniFEA7 dx=-128 dy=0 dh=-128 dv=0 dx=0 dy=0 dh=0 dv=0
PairPos2: "'kern' Horizontal Kerning lookup 15-1" uniFEA3 dx=-128 dy=0 dh=-128 dv=0 dx=0 dy=0 dh=0 dv=0
PairPos2: "'kern' Horizontal Kerning lookup 15-1" uniFE9F dx=-128 dy=0 dh=-128 dv=0 dx=0 dy=0 dh=0 dv=0
PairPos2: "'kern' Horizontal Kerning lookup 15-1" uniFE9B dx=-128 dy=0 dh=-128 dv=0 dx=0 dy=0 dh=0 dv=0
PairPos2: "'kern' Horizontal Kerning lookup 15-1" uni062B dx=-128 dy=0 dh=-128 dv=0 dx=0 dy=0 dh=0 dv=0
PairPos2: "'kern' Horizontal Kerning lookup 15-1" uniFE97 dx=-128 dy=0 dh=-128 dv=0 dx=0 dy=0 dh=0 dv=0
PairPos2: "'kern' Horizontal Kerning lookup 15-1" uni062A dx=-128 dy=0 dh=-128 dv=0 dx=0 dy=0 dh=0 dv=0
PairPos2: "'kern' Horizontal Kerning lookup 15-1" uni0629 dx=-128 dy=0 dh=-128 dv=0 dx=0 dy=0 dh=0 dv=0
PairPos2: "'kern' Horizontal Kerning lookup 15-1" uni0628 dx=-128 dy=0 dh=-128 dv=0 dx=0 dy=0 dh=0 dv=0
PairPos2: "'kern' Horizontal Kerning lookup 15-1" uni0627 dx=-196 dy=0 dh=-196 dv=0 dx=0 dy=0 dh=0 dv=0
PairPos2: "'kern' Horizontal Kerning lookup 15-1" uni0622 dx=-196 dy=0 dh=-196 dv=0 dx=0 dy=0 dh=0 dv=0
PairPos2: "'kern' Horizontal Kerning lookup 15-1" uniFB94 dx=-196 dy=0 dh=-196 dv=0 dx=0 dy=0 dh=0 dv=0
PairPos2: "'kern' Horizontal Kerning lookup 15-1" afii57509 dx=-196 dy=0 dh=-196 dv=0 dx=0 dy=0 dh=0 dv=0
PairPos2: "'kern' Horizontal Kerning lookup 15-1" uniFB56 dx=-128 dy=0 dh=-128 dv=0 dx=0 dy=0 dh=0 dv=0
PairPos2: "'kern' Horizontal Kerning lookup 15-1" afii57506 dx=-128 dy=0 dh=-128 dv=0 dx=0 dy=0 dh=0 dv=0
EndChar

StartChar: uniFEB2
Encoding: 65202 65202 186
Width: 2564
VWidth: 3752
GlyphClass: 2
Flags: W
AnchorPoint: "Anchor-10" 664.203 1010.76 basechar 0
AnchorPoint: "Anchor-7" 383.613 -753.732 basechar 0
LayerCount: 2
Fore
SplineSet
1476.65234375 497.793945312 m 8,0,1
 1618.15309708 502.00455568 1618.15309708 502.00455568 1635.70410156 641.091796875 c 2,2,-1
 1652.00292969 770.255859375 l 1,3,-1
 1810.68164062 770.255859375 l 1,4,-1
 1830.5625 641.62109375 l 2,5,6
 1852 500 1852 500 1983.2578125 496.857421875 c 16,7,8
 2111.86264815 494.003048513 2111.86264815 494.003048513 2126.98828125 661.438476562 c 2,9,-1
 2139.87402344 804.079101562 l 1,10,-1
 2311.93066406 804.079101562 l 1,11,-1
 2324.01660156 664.922851562 l 2,12,13
 2339.00611388 494.93066406 2339.00611388 494.93066406 2540.15136719 494.930664062 c 2,14,-1
 2581.51464844 494.930664062 l 5,15,-1
 2581.51464844 0 l 5,16,-1
 2539.24023438 0 l 2,17,18
 2331 0 2331 0 2233.23535156 164.798828125 c 1,19,20
 2110 1 2110 1 1983.19042969 0.802734375 c 0,21,22
 1839 1 1839 1 1712.05566406 172.688476562 c 1,23,24
 1595 -2 1595 -2 1458.45800781 -1.294921875 c 0,25,26
 1427 -1 1427 -1 1358.5390625 34.34375 c 1,27,28
 1333 -295 1333 -295 1130.32226562 -445.1953125 c 0,29,30
 966 -567 966 -567 697.1953125 -567.462890625 c 0,31,32
 378 -567 378 -567 226.048828125 -405.92578125 c 0,33,34
 81 -252 81 -252 78.400390625 27.7333984375 c 0,35,36
 76 304 76 304 204.6640625 549.060546875 c 1,37,-1
 381.727539062 499.107421875 l 1,38,39
 278 154 278 154 382.397460938 23.466796875 c 0,40,41
 480 -97 480 -97 724.061523438 -95.935546875 c 0,42,43
 998 -94 998 -94 1108.75683594 42.5625 c 0,44,45
 1143 85 1143 85 1105.46582031 161.391601562 c 0,46,47
 1087 199 1087 199 942.793945312 411.73046875 c 1,48,-1
 1165.4765625 697.595703125 l 2,49,50
 1186.76340388 724.698758611 1186.76340388 724.698758611 1206.16210938 697.595703125 c 2,51,-1
 1269.04296875 609.741210938 l 2,52,53
 1352 494 1352 494 1476.65234375 497.793945312 c 8,0,1
EndSplineSet
EndChar

StartChar: uniFEB3
Encoding: 65203 65203 187
Width: 1650
VWidth: 3752
GlyphClass: 2
Flags: W
AnchorPoint: "Anchor-10" 866.082 1241.4 basechar 0
AnchorPoint: "Anchor-7" 876.787 -236.589 basechar 0
LayerCount: 2
Fore
SplineSet
1179 0 m 0,0,1
 1000 1 1000 1 893.685546875 171.181640625 c 1,2,3
 766 -3 766 -3 647.801757812 -2.966796875 c 0,4,5
 488 -2 488 -2 385.458984375 165.491210938 c 1,6,7
 251 0 251 0 40.4453125 0 c 2,8,-1
 -16.26171875 0 l 1,9,-1
 -16.26171875 494.930664062 l 1,10,-1
 87.3173828125 494.930664062 l 2,11,12
 273.978943693 494.999992179 273.978943693 494.999992179 289.12109375 637.634765625 c 2,13,-1
 303.286132812 771.065429688 l 1,14,-1
 461.965820312 771.065429688 l 1,15,-1
 479.845703125 641.1640625 l 2,16,17
 499 499 499 499 634.541992188 496.599609375 c 24,18,19
 781.789894111 494.00370406 781.789894111 494.00370406 797.060546875 636.698242188 c 2,20,-1
 811.225585938 769.061523438 l 1,21,-1
 969.905273438 769.061523438 l 1,22,-1
 989.78515625 642.560546875 l 2,23,24
 1013 495 1013 495 1159.50292969 494.930664062 c 0,25,26
 1245 495 1245 495 1285.00195312 540.958984375 c 0,27,28
 1303 561 1303 561 1297.12402344 599 c 0,29,30
 1289.96082234 639.219974908 1289.96082234 639.219974908 1260 696 c 6,31,-1
 1209.94140625 790.868164062 l 5,32,-1
 1388.86523438 1013.32714844 l 6,33,34
 1416 1047 1416 1047 1438.50878906 1012.26074219 c 4,35,36
 1565 817 1565 817 1564.36425781 591.590820312 c 0,37,38
 1563 337 1563 337 1426.70800781 144.848632812 c 0,39,40
 1323 -1 1323 -1 1179 0 c 0,0,1
EndSplineSet
EndChar

StartChar: uniFEB4
Encoding: 65204 65204 188
Width: 1729
VWidth: 3752
GlyphClass: 2
Flags: W
AnchorPoint: "Anchor-7" 883.587 -236.589 basechar 0
AnchorPoint: "Anchor-10" 931.136 1294.73 basechar 0
LayerCount: 2
Fore
SplineSet
63.654296875 494.930664062 m 2,0,1
 274.361849824 494.930664062 274.361849824 494.930664062 294.454101562 641.901367188 c 2,2,-1
 311.8203125 768.931640625 l 1,3,-1
 470.499023438 768.931640625 l 1,4,-1
 490.37890625 642.430664062 l 2,5,6
 513 498 513 498 643.075195312 496.599609375 c 0,7,8
 777.595489946 495.004795694 777.595489946 495.004795694 796.459960938 642.03125 c 2,9,-1
 812.758789062 769.061523438 l 1,10,-1
 971.438476562 769.061523438 l 1,11,-1
 991.318359375 642.560546875 l 2,12,13
 1015 495 1015 495 1152.34765625 495.663085938 c 0,14,15
 1275.46734728 496.001283758 1275.46734728 496.001283758 1291.62109375 666.793945312 c 2,16,-1
 1304.50683594 803.034179688 l 1,17,-1
 1476.56445312 803.034179688 l 1,18,-1
 1488.64941406 669.215820312 l 2,19,20
 1504.00610936 494.93066406 1504.00610936 494.93066406 1704.78417969 494.930664062 c 2,21,-1
 1746.14746094 494.930664062 l 5,22,-1
 1746.14746094 0 l 5,23,-1
 1703.87597656 0 l 2,24,25
 1496 0 1496 0 1397.87207031 163.749023438 c 1,26,27
 1275 0 1275 0 1167.82324219 -0.2412109375 c 0,28,29
 992 0 992 0 880.678710938 170.397460938 c 1,30,31
 760 0 760 0 645.833007812 0 c 0,32,33
 490 0 490 0 386.43359375 165.208007812 c 1,34,35
 249 0 249 0 48.783203125 0 c 2,36,-1
 -16.3505859375 0 l 1,37,-1
 -16.3505859375 494.930664062 l 1,38,-1
 63.654296875 494.930664062 l 2,0,1
EndSplineSet
EndChar

StartChar: uniFEBA
Encoding: 65210 65210 194
Width: 2723
VWidth: 3753
GlyphClass: 2
Flags: W
AnchorPoint: "Anchor-7" 468.402 -810.108 basechar 0
AnchorPoint: "Anchor-10" 674.869 1010.76 basechar 0
LayerCount: 2
Fore
SplineSet
1698.01464844 494.455078125 m 1,0,-1
 1939.71484375 494.455078125 l 2,1,2
 2264.625 494.934570312 2264.625 494.934570312 2328.37890625 541.134765625 c 0,3,4
 2347.45117188 554.663085938 2347.45117188 554.663085938 2343.13085938 581.33203125 c 0,5,6
 2325.05175781 690.12890625 2325.05175781 690.12890625 2136.64648438 689.1953125 c 0,7,8
 1962.38769531 687.99609375 1962.38769531 687.99609375 1765.16210938 546.856445312 c 0,9,10
 1737.32226562 526.9296875 1737.32226562 526.9296875 1698.01464844 494.455078125 c 1,0,-1
1467.95605469 496.896484375 m 1,11,12
 1571 629 1571 629 1637.16796875 700.897460938 c 0,13,14
 1959 1049 1959 1049 2259.50488281 1048.79394531 c 0,15,16
 2466 1048 2466 1048 2549.66113281 885.391601562 c 0,17,18
 2592 804 2592 804 2591.90917969 699.462890625 c 0,19,20
 2592 577 2592 577 2567.67773438 494.930664062 c 1,21,-1
 2739.57519531 494.930664062 l 5,22,-1
 2739.57519531 0 l 5,23,-1
 2699.734375 0 l 6,24,25
 2497 0 2497 0 2330.38476562 172.798828125 c 1,26,27
 2121.92902599 -2.05953493705 2121.92902599 -2.05953493705 1817.20898438 -2.080078125 c 2,28,-1
 1614.41210938 -2.09375 l 2,29,30
 1463 -2 1463 -2 1357.47265625 34.34375 c 1,31,32
 1332 -295 1332 -295 1129.25488281 -445.1953125 c 0,33,34
 965 -567 965 -567 697.461914062 -567.462890625 c 0,35,36
 377 -567 377 -567 224.981445312 -405.92578125 c 0,37,38
 79 -251 79 -251 76.265625 28.7998046875 c 0,39,40
 74 301 74 301 203.59765625 549.060546875 c 1,41,-1
 380.661132812 499.107421875 l 1,42,43
 277 151 277 151 380.264648438 23.466796875 c 0,44,45
 478 -97 478 -97 723.661132812 -95.935546875 c 0,46,47
 997 -94 997 -94 1107.68945312 42.5625 c 0,48,49
 1142 85 1142 85 1104.39941406 161.391601562 c 0,50,51
 1086 199 1086 199 941.727539062 411.73046875 c 1,52,-1
 1161.91699219 694.395507812 l 2,53,54
 1185.73219247 724.659672354 1185.73219247 724.659672354 1211.32617188 691.1953125 c 2,55,-1
 1271.17578125 612.94140625 l 2,56,57
 1360 497 1360 497 1467.95605469 496.896484375 c 1,11,12
EndSplineSet
EndChar

StartChar: uniFEBB
Encoding: 65211 65211 195
Width: 1777
VWidth: 3753
GlyphClass: 2
Flags: W
AnchorPoint: "Anchor-10" 1062.76 1470.51 basechar 0
AnchorPoint: "Anchor-7" 682.342 -216.568 basechar 0
LayerCount: 2
Fore
SplineSet
808.287109375 494.455078125 m 1,0,-1
 1049.98632812 494.455078125 l 2,1,2
 1374.89746094 494.934570312 1374.89746094 494.934570312 1438.65039062 541.134765625 c 0,3,4
 1457.72363281 554.663085938 1457.72363281 554.663085938 1453.40332031 581.33203125 c 0,5,6
 1435.32421875 690.12890625 1435.32421875 690.12890625 1246.91894531 689.1953125 c 0,7,8
 1072.65917969 687.99609375 1072.65917969 687.99609375 875.434570312 546.856445312 c 0,9,10
 847.59375 526.9296875 847.59375 526.9296875 808.287109375 494.455078125 c 1,0,-1
724.684570312 -2.09375 m 2,11,12
 534.097988793 -2.10659869858 534.097988793 -2.10659869858 363.875 183.073242188 c 1,13,14
 209.217739176 -0.7412109375 209.217739176 -0.7412109375 28.1640625 -0.7412109375 c 2,15,-1
 -16.2646484375 -0.7412109375 l 1,16,-1
 -16.2646484375 494.893554688 l 5,17,-1
 9.400390625 494.893554688 l 6,18,19
 265.827942828 494.999928625 265.827942828 494.999928625 279.041992188 636.854492188 c 2,20,-1
 292.326171875 779.461914062 l 1,21,-1
 449.564453125 779.461914062 l 1,22,-1
 465.392578125 637.44921875 l 2,23,24
 481 502 481 502 578.228515625 496.896484375 c 1,25,26
 695 645 695 645 747.439453125 700.897460938 c 0,27,28
 1064 1049 1064 1049 1369.77734375 1048.79394531 c 0,29,30
 1574 1048 1574 1048 1659.93261719 885.391601562 c 0,31,32
 1702 805 1702 805 1702.18164062 699.462890625 c 0,33,34
 1702 517 1702 517 1616.05078125 364.055664062 c 0,35,36
 1409.97323426 -2.04755017097 1409.97323426 -2.04755017097 927.481445312 -2.080078125 c 2,37,-1
 724.684570312 -2.09375 l 2,11,12
EndSplineSet
EndChar

StartChar: uniFEBC
Encoding: 65212 65212 196
Width: 1833
VWidth: 3753
GlyphClass: 2
Flags: W
AnchorPoint: "Anchor-7" 682.342 -216.568 basechar 0
AnchorPoint: "Anchor-10" 1077.34 1457.9 basechar 0
LayerCount: 2
Fore
SplineSet
808.287109375 494.455078125 m 1,0,-1
 1049.98632812 494.455078125 l 2,1,2
 1374.89746094 494.934570312 1374.89746094 494.934570312 1438.65039062 541.134765625 c 0,3,4
 1457.72363281 554.663085938 1457.72363281 554.663085938 1453.40332031 581.33203125 c 0,5,6
 1435.32421875 690.12890625 1435.32421875 690.12890625 1246.91894531 689.1953125 c 0,7,8
 1072.65917969 687.99609375 1072.65917969 687.99609375 875.434570312 546.856445312 c 0,9,10
 847.59375 526.9296875 847.59375 526.9296875 808.287109375 494.455078125 c 1,0,-1
1677.94921875 494.930664062 m 5,11,-1
 1849.84667969 494.930664062 l 5,12,-1
 1849.84667969 0 l 5,13,-1
 1810.00683594 0 l 6,14,15
 1607 0 1607 0 1440.65722656 172.798828125 c 5,16,17
 1232.92933208 -2.05948586821 1232.92933208 -2.05948586821 927.481445312 -2.080078125 c 2,18,-1
 724.684570312 -2.09375 l 2,19,20
 534 -2 534 -2 363.875 183.073242188 c 1,21,22
 208 0 208 0 28.1640625 0 c 2,23,-1
 -16.2646484375 0 l 1,24,-1
 -16.2646484375 494.930664062 l 1,25,-1
 9.400390625 494.930664062 l 2,26,27
 265.827945146 494.999953509 265.827945146 494.999953509 279.041992188 636.854492188 c 2,28,-1
 292.326171875 779.461914062 l 1,29,-1
 449.564453125 779.461914062 l 1,30,-1
 465.392578125 637.44921875 l 2,31,32
 480 502 480 502 578.228515625 496.896484375 c 1,33,34
 691 640 691 640 747.439453125 700.897460938 c 0,35,36
 1070 1049 1070 1049 1369.77734375 1048.79394531 c 0,37,38
 1576 1048 1576 1048 1659.93261719 885.391601562 c 0,39,40
 1702 804 1702 804 1702.18164062 699.462890625 c 0,41,42
 1702 577 1702 577 1677.94921875 494.930664062 c 5,11,-1
EndSplineSet
EndChar

StartChar: uniFEC2
Encoding: 65218 65218 202
Width: 1695
VWidth: 3753
GlyphClass: 2
Flags: W
AnchorPoint: "Anchor-10" 493.574 1783.73 basechar 0
AnchorPoint: "Anchor-7" 829.173 -205.469 basechar 0
LayerCount: 2
Fore
SplineSet
437.79296875 494.666992188 m 1,0,1
 421 1150 421 1150 368.059570312 1456.72949219 c 1,2,-1
 681.595703125 1660.63574219 l 2,3,4
 734.51650523 1694.68888386 734.51650523 1694.68888386 734.463867188 1623.58984375 c 2,5,-1
 733.862304688 811.049804688 l 1,6,7
 1003 1049 1003 1049 1240.04492188 1048.80957031 c 0,8,9
 1445 1048 1445 1048 1530.20117188 885.407226562 c 0,10,11
 1573 803 1573 803 1572.75195312 695.2109375 c 0,12,13
 1572 588 1572 588 1540.75097656 494.930664062 c 1,14,-1
 1711.58203125 494.930664062 l 1,15,-1
 1711.58203125 0 l 1,16,-1
 1670.94140625 0 l 6,17,18
 1465 0 1465 0 1302.39160156 172.814453125 c 1,19,20
 1099.83071061 -1.14538618817 1099.83071061 -1.14538618817 797.749023438 -0.998046875 c 2,21,-1
 299.203125 -0.7548828125 l 1,22,23
 143 169 143 169 70.3994140625 369.064453125 c 0,24,25
 25.1640797113 494.544851655 25.1640797113 494.544851655 173.862304688 494.588867188 c 2,26,-1
 437.79296875 494.666992188 l 1,0,1
678.5546875 494.470703125 m 1,27,-1
 920.254882812 494.470703125 l 2,28,29
 1245.16503906 494.950195312 1245.16503906 494.950195312 1308.91894531 541.150390625 c 0,30,31
 1327.9921875 554.678710938 1327.9921875 554.678710938 1323.67089844 581.34765625 c 0,32,33
 1305.59179688 690.14453125 1305.59179688 690.14453125 1117.18652344 689.2109375 c 0,34,35
 942.927734375 688.01171875 942.927734375 688.01171875 745.702148438 546.87109375 c 0,36,37
 717.862304688 526.9453125 717.862304688 526.9453125 678.5546875 494.470703125 c 1,27,-1
EndSplineSet
EndChar

StartChar: uniFEC3
Encoding: 65219 65219 203
Width: 1386
VWidth: 3753
GlyphClass: 2
Flags: W
AnchorPoint: "Anchor-10" 211.977 1732.53 basechar 0
AnchorPoint: "Anchor-7" 513.441 -199.068 basechar 0
LayerCount: 2
Fore
SplineSet
451.197265625 811.049804688 m 5,0,1
 722 1049 722 1049 958.447265625 1048.79394531 c 4,2,3
 1164 1048 1164 1048 1248.60253906 885.391601562 c 4,4,5
 1292 803 1292 803 1291.15332031 695.1953125 c 4,6,7
 1290 514 1290 514 1204.72070312 364.055664062 c 0,8,9
 1000 0 1000 0 516.151367188 0 c 2,10,11
 -16.9736328125 0 l 1,12,-1
 -16.2958984375 494.930664062 l 1,13,-1
 155.127929688 494.666992188 l 1,14,15
 139 1150 139 1150 85.39453125 1456.72949219 c 1,16,-1
 398.930664062 1660.63574219 l 2,17,18
 451.851828669 1694.90405386 451.851828669 1694.90405386 451.799804688 1624.65625 c 2,19,-1
 451.197265625 811.049804688 l 5,0,1
396.95703125 494.455078125 m 1,20,-1
 638.65625 494.455078125 l 2,21,22
 963.56640625 494.93359375 963.56640625 494.93359375 1027.3203125 541.134765625 c 0,23,24
 1046.39355469 554.663085938 1046.39355469 554.663085938 1042.07226562 581.33203125 c 0,25,26
 1023.99316406 690.12890625 1023.99316406 690.12890625 835.588867188 689.1953125 c 0,27,28
 661.329101562 687.99609375 661.329101562 687.99609375 464.104492188 546.856445312 c 0,29,30
 436.263671875 526.9296875 436.263671875 526.9296875 396.95703125 494.455078125 c 1,20,-1
EndSplineSet
EndChar

StartChar: uniFEC4
Encoding: 65220 65220 204
Width: 1414
VWidth: 3753
GlyphClass: 2
Flags: W
AnchorPoint: "Anchor-7" 507.041 -194.802 basechar 0
AnchorPoint: "Anchor-10" 216.243 1728.26 basechar 0
LayerCount: 2
Fore
SplineSet
451.197265625 811.049804688 m 1,0,1
 722 1049 722 1049 958.447265625 1048.79394531 c 0,2,3
 1164 1048 1164 1048 1248.60253906 885.391601562 c 0,4,5
 1292 803 1292 803 1291.15332031 695.1953125 c 0,6,7
 1291 588 1291 588 1259.15234375 494.930664062 c 1,8,-1
 1431.05078125 494.930664062 l 1,9,-1
 1431.05078125 0 l 1,10,-1
 1390.41015625 0 l 6,11,12
 1183 0 1183 0 1020.79394531 172.798828125 c 1,13,14
 818 0 818 0 516.151367188 0 c 2,15,-1
 -16.5283203125 0 l 1,16,-1
 -16.2958984375 494.930664062 l 1,17,-1
 155.127929688 494.666992188 l 1,18,19
 139 1150 139 1150 85.39453125 1456.72949219 c 1,20,-1
 398.930664062 1660.63574219 l 2,21,22
 451.85162537 1694.90392222 451.85162537 1694.90392222 451.798828125 1623.58984375 c 2,23,-1
 451.197265625 811.049804688 l 1,0,1
396.95703125 494.455078125 m 1,24,-1
 638.65625 494.455078125 l 2,25,26
 963.56640625 494.93359375 963.56640625 494.93359375 1027.3203125 541.134765625 c 0,27,28
 1046.39355469 554.663085938 1046.39355469 554.663085938 1042.07226562 581.33203125 c 0,29,30
 1023.99316406 690.12890625 1023.99316406 690.12890625 835.588867188 689.1953125 c 0,31,32
 661.329101562 687.99609375 661.329101562 687.99609375 464.104492188 546.856445312 c 0,33,34
 436.263671875 526.9296875 436.263671875 526.9296875 396.95703125 494.455078125 c 1,24,-1
EndSplineSet
EndChar

StartChar: uniFECA
Encoding: 65226 65226 210
Width: 1354
VWidth: 3747
GlyphClass: 2
Flags: W
AnchorPoint: "Anchor-10" 645.861 1430.25 basechar 0
AnchorPoint: "Anchor-7" 370.791 -864.06 basechar 0
LayerCount: 2
Fore
SplineSet
777.504882812 -251.796875 m 4,0,1
 864 -251 864 -251 1002.09472656 -233.498046875 c 4,2,3
 1162 -213 1162 -213 1169.23339844 -213.712890625 c 28,4,5
 1191 -216 1191 -216 1190.60546875 -242.649414062 c 4,6,7
 1184 -601 1184 -601 1137.32617188 -618.404296875 c 4,8,9
 1114 -627 1114 -627 1030.41308594 -635.024414062 c 4,10,11
 906 -647 906 -647 783.411132812 -647.38671875 c 4,12,13
 422 -648 422 -648 261.380859375 -497.158203125 c 4,14,15
 100 -346 100 -346 100.58984375 -81.4248046875 c 4,16,17
 101 396 101 396 461.1328125 616.071289062 c 0,18,19
 558 675 558 675 654.9296875 708.888671875 c 1,20,21
 577 737 577 737 350.836914062 766.745117188 c 1,22,-1
 350.690429688 990.165039062 l 1,23,24
 480 1069 480 1069 815.4921875 1068.79296875 c 0,25,26
 1152 1069 1152 1069 1151.88476562 868.421875 c 0,27,28
 1152 690 1152 690 1016.09960938 577.616210938 c 1,29,30
 1127.09307353 494.930664062 1127.09307353 494.930664062 1319.59375 494.930664062 c 2,31,-1
 1370.60742188 494.930664062 l 1,32,-1
 1370.60742188 0 l 1,33,-1
 1330.77734375 0 l 2,34,35
 948 0 948 0 780.794921875 372.264648438 c 1,36,37
 297 197 297 197 321.630859375 -42.357421875 c 4,38,39
 343 -255 343 -255 777.504882812 -251.796875 c 4,0,1
EndSplineSet
EndChar

StartChar: uniFECB
Encoding: 65227 65227 211
Width: 1140
VWidth: 3747
GlyphClass: 2
Flags: W
AnchorPoint: "Anchor-10" 501.702 1529.5 basechar 0
AnchorPoint: "Anchor-7" 508.066 -201.427 basechar 0
LayerCount: 2
Fore
SplineSet
871.577148438 811.034179688 m 6,0,1
 716.102821354 865.001736046 716.102821354 865.001736046 642.717773438 863.762695312 c 4,2,3
 466 860 466 860 360.151367188 748.471679688 c 4,4,5
 335 722 335 722 335.499023438 709.3828125 c 4,6,7
 337 678 337 678 372.642578125 640.149414062 c 4,8,9
 412 599 412 599 464.619140625 569.8125 c 4,10,11
 521 539 521 539 553.3203125 536.271484375 c 4,12,13
 585.824411987 534.012204689 585.824411987 534.012204689 872.729492188 593.353515625 c 6,14,-1
 981.125976562 615.7734375 l 6,15,16
 1025 625 1025 625 1044.7109375 605.321289062 c 4,17,18
 1062.41479725 588.608421467 1062.41479725 588.608421467 1055.86230469 560.93359375 c 6,19,-1
 968.0859375 190.205078125 l 5,20,21
 611 98 611 98 432.200195312 50.1162109375 c 4,22,23
 245 0 245 0 42.5625 0 c 6,24,-1
 -16.18359375 0 l 1,25,-1
 -16.18359375 494.930664062 l 1,26,-1
 181.708007812 494.930664062 l 5,27,28
 57 683 57 683 169.232421875 923.916015625 c 4,29,30
 278 1157 278 1157 543.422851562 1178.046875 c 4,31,32
 776 1197 776 1197 935.361328125 1013.6640625 c 5,33,-1
 894.463867188 803.08984375 l 5,34,-1
 871.577148438 811.034179688 l 6,0,1
EndSplineSet
EndChar

StartChar: uniFECC
Encoding: 65228 65228 212
Width: 1049
VWidth: 3749
GlyphClass: 2
Flags: W
AnchorPoint: "Anchor-10" 520.738 1285.06 basechar 0
AnchorPoint: "Anchor-7" 500.445 -201.154 basechar 0
LayerCount: 2
Fore
SplineSet
130.490234375 943.557617188 m 2,0,1
 263.678730434 1024.99868992 263.678730434 1024.99868992 577.481445312 1026.27832031 c 0,2,3
 759 1027 759 1027 861.5859375 955.690429688 c 0,4,5
 928 909 928 909 921.396484375 824.373046875 c 0,6,7
 908 660 908 660 735.448242188 542.112304688 c 1,8,9
 813.114134171 494.930664062 813.114134171 494.930664062 1033.73242188 494.930664062 c 2,10,-1
 1065.55175781 494.930664062 l 1,11,-1
 1065.55175781 0 l 1,12,-1
 981.078125 0 l 2,13,14
 722 0 722 0 557.641601562 200.666015625 c 1,15,16
 349 0 349 0 96.23046875 0 c 2,17,-1
 -16.3173828125 0 l 1,18,-1
 -16.3173828125 494.930664062 l 1,19,-1
 13.576171875 494.930664062 l 2,20,21
 357 495 357 495 463.106445312 553.430664062 c 1,22,23
 362.174351846 682.77656565 362.174351846 682.77656565 139.013671875 711.518554688 c 2,24,-1
 120.421875 713.913085938 l 1,25,-1
 120.275390625 937.311523438 l 1,26,-1
 130.490234375 943.557617188 l 2,0,1
EndSplineSet
EndChar

StartChar: uniFEDA
Encoding: 65242 65242 226
Width: 2120
VWidth: 3713
GlyphClass: 2
Flags: W
AnchorPoint: "Anchor-10" 647.48 1752.47 basechar 0
AnchorPoint: "Anchor-7" 621.275 -214.553 basechar 0
LayerCount: 2
Fore
SplineSet
1207.91699219 1117.5625 m 0,0,1
 1278.92578125 1036.79394531 1278.92578125 1036.79394531 1247.79003906 911.135742188 c 0,2,3
 1215.9921875 785.061523438 1215.9921875 785.061523438 1091.91308594 739.262695312 c 0,4,5
 943.994140625 684.795898438 943.994140625 684.795898438 698.56640625 762.3828125 c 1,6,-1
 718.59765625 967.564453125 l 1,7,-1
 744.3984375 958.266601562 l 2,8,9
 914.127929688 897.061523438 914.127929688 897.061523438 1050.41113281 925.129882812 c 0,10,11
 1090.12695312 933.327148438 1090.12695312 933.327148438 1099.33984375 949.385742188 c 0,12,13
 1109.32617188 965.327148438 1109.32617188 965.327148438 1092.0390625 977.741210938 c 0,14,15
 1075.19335938 989.860351562 1075.19335938 989.860351562 1003.26367188 1005.05761719 c 0,16,17
 796.794921875 1048.52636719 796.794921875 1048.52636719 801.8203125 1243.5625 c 0,18,19
 807.358398438 1448.97753906 807.358398438 1448.97753906 1146.76074219 1495.89453125 c 0,20,21
 1214.92578125 1505.05761719 1214.92578125 1505.05761719 1227.05761719 1488.19238281 c 0,22,23
 1240.11425781 1469.3828125 1240.11425781 1469.3828125 1222.89160156 1420.09179688 c 2,24,-1
 1179.828125 1296.84960938 l 1,25,26
 946.126953125 1273.59179688 946.126953125 1273.59179688 942.014648438 1226.33105469 c 1,27,28
 958.927734375 1203.19238281 958.927734375 1203.19238281 1041.24902344 1189.26074219 c 0,29,30
 1123.19335938 1175.45898438 1123.19335938 1175.45898438 1154.375 1158.94238281 c 0,31,32
 1185.05957031 1143.45996094 1185.05957031 1143.45996094 1207.91699219 1117.5625 c 0,0,1
1941.56445312 741.268554688 m 2,33,34
 1941.56445312 494.943186978 1941.56445312 494.943186978 2077.01171875 494.930664062 c 2,35,-1
 2136.53027344 494.930664062 l 1,36,-1
 2136.53027344 0 l 1,37,-1
 2097.44433594 0 l 2,38,39
 1809 0 1809 0 1723.30859375 160.013671875 c 1,40,41
 1488 0 1488 0 916.345703125 0 c 0,42,43
 490 0 490 0 302.755859375 102.430664062 c 0,44,45
 11 262 11 262 97.220703125 720.212890625 c 0,46,47
 123 858 123 858 191.454101562 994.09375 c 1,48,-1
 345.471679688 938.2109375 l 1,49,50
 288 726 288 726 341.830078125 647.635742188 c 0,51,52
 441 502 441 502 815.375 492.763671875 c 0,53,54
 1374 479 1374 479 1590.57128906 625.1171875 c 0,55,56
 1620 645 1620 645 1599.36230469 1039.35644531 c 0,57,58
 1582 1376 1582 1376 1570.63476562 1457.25195312 c 1,59,-1
 1888 1649.27620944 l 2,60,61
 1941.56445313 1681.68579046 1941.56445313 1681.68579046 1941.56445312 1617.18945312 c 6,62,-1
 1941.56445312 741.268554688 l 2,33,34
EndSplineSet
EndChar

StartChar: uniFEDB
Encoding: 65243 65243 227
Width: 999
VWidth: 3732
GlyphClass: 2
Flags: W
AnchorPoint: "Anchor-10" 231.521 1676.94 basechar 0
AnchorPoint: "Anchor-7" 335.081 -252.218 basechar 0
LayerCount: 2
Fore
SplineSet
7.51171875 1035.05761719 m 1,0,-1
 83.9931640625 1378.203125 l 1,1,-1
 920 1647.61162223 l 2,2,3
 967.080535542 1663.02636833 967.080535542 1663.02636833 961.211037901 1620 c 2,4,-1
 918.286132812 1305.33886719 l 1,5,-1
 418.130859375 1145.45898438 l 1,6,7
 575 1010 575 1010 660 905 c 0,8,9
 773 766 773 766 774.092773438 598.396484375 c 0,10,11
 775 347 775 347 613.329101562 175.999023438 c 0,12,13
 446 0 446 0 148.819335938 0 c 2,14,-1
 -15.8759765625 0 l 1,15,-1
 -15.8759765625 494.930664062 l 1,16,-1
 96.5654296875 494.930664062 l 2,17,18
 397 495 397 495 445.922851562 582.678710938 c 4,19,20
 464 615 464 615 433.463867188 652.12890625 c 4,21,22
 337 773 337 773 7.51171875 1035.05761719 c 1,0,-1
EndSplineSet
EndChar

StartChar: uniFEDC
Encoding: 65244 65244 228
Width: 1239
VWidth: 3732
GlyphClass: 2
Flags: W
AnchorPoint: "Anchor-10" 229.319 1672.78 basechar 0
AnchorPoint: "Anchor-7" 404.945 -187.381 basechar 0
LayerCount: 2
Fore
SplineSet
418.130859375 1145.45898438 m 5,0,-1
 830 744.071641924 l 1,1,2
 1097.07432679 494.930664062 1097.07432679 494.930664062 1224.89257812 494.930664062 c 2,3,-1
 1256.49121094 494.930664062 l 1,4,-1
 1256.49121094 0 l 1,5,-1
 1224.02148438 0 l 2,6,7
 985 0 985 0 693.595703125 347.53125 c 1,8,9
 563.894204852 -1.70530256582e-13 563.894204852 -1.70530256582e-13 74.15234375 0 c 2,10,-1
 -16.9423828125 0 l 1,11,-1
 -16.9423828125 494.930664062 l 1,12,-1
 96.5654296875 494.930664062 l 2,13,14
 332.257781024 494.984343742 332.257781024 494.984343742 416 551.1457134 c 0,15,16
 479.573391256 593.780942922 479.573391256 593.780942922 439.463867188 638.12890625 c 0,17,18
 302 795 302 795 7.51171875 1035.05761719 c 1,19,-1
 83.9931640625 1378.203125 l 1,20,-1
 920 1647.61132812 l 2,21,22
 967.080416148 1663.02632974 967.080416148 1663.02632974 961.2109375 1620 c 2,23,-1
 918.286132812 1305.33886719 l 1,24,-1
 418.130859375 1145.45898438 l 5,0,-1
EndSplineSet
EndChar

StartChar: uniFEDE
Encoding: 65246 65246 230
Width: 1530
VWidth: 3753
GlyphClass: 2
Flags: W
AnchorPoint: "Anchor-10" 619.865 1522.54 basechar 0
AnchorPoint: "Anchor-7" 544.653 -807.119 basechar 0
LayerCount: 2
Fore
SplineSet
1342.36816406 55.7744140625 m 5,0,1
 1331 -90 1331 -90 1305.734375 -166.592773438 c 0,2,3
 1254 -323 1254 -323 1132.65917969 -428.263671875 c 0,4,5
 966 -572 966 -572 703.461914062 -571.196289062 c 0,6,7
 374 -571 374 -571 224.981445312 -409.526367188 c 0,8,9
 70 -243 70 -243 77.6962890625 32 c 24,10,11
 85 280 85 280 203.612304688 545.45703125 c 1,12,-1
 380.66796875 495.506835938 l 1,13,14
 276 146 276 146 380.264648438 19.2001953125 c 0,15,16
 480 -102 480 -102 712.952148438 -99.5361328125 c 0,17,18
 947 -97 947 -97 1040.31640625 50.4208984375 c 0,19,20
 1073 102 1073 102 1066.52636719 182.3984375 c 0,21,22
 1016 914 1016 914 955.416015625 1464.65039062 c 1,23,-1
 1254 1646.92773438 l 2,24,25
 1317.40672391 1686.25224801 1317.40672391 1686.25224801 1320.17382812 1607 c 2,26,-1
 1353.09765625 664.033203125 l 2,27,28
 1359.00242109 494.930664062 1359.00242109 494.930664062 1512.734375 494.930664062 c 2,29,-1
 1547.18066406 494.930664062 l 1,30,-1
 1547.18066406 0 l 1,31,-1
 1525.52441406 0 l 2,32,33
 1416 0 1416 0 1342.36816406 55.7744140625 c 5,0,1
EndSplineSet
EndChar

StartChar: uniFEDF
Encoding: 65247 65247 231
Width: 636
VWidth: 3713
GlyphClass: 2
Flags: W
AnchorPoint: "Anchor-10" 239.597 1718.49 basechar 0
AnchorPoint: "Anchor-7" 183.305 -220.229 basechar 0
LayerCount: 2
Fore
SplineSet
177.243164062 764.487304688 m 4,0,1
 142 1115 142 1115 106.596679688 1465.1875 c 1,2,-1
 418.930664062 1647.91894531 l 2,3,4
 472.131938909 1679.0772725 472.131938909 1679.0772725 474.748046875 1615.45605469 c 2,5,-1
 515.860351562 615.64453125 l 2,6,7
 526 372 526 372 455.444335938 226.657226562 c 0,8,9
 346 0 346 0 10.892578125 0 c 2,10,-1
 -16.5361328125 0 l 1,11,-1
 -16.5361328125 494.930664062 l 1,12,-1
 16.53515625 494.930664062 l 2,13,14
 195 495 195 495 191.420898438 592.771484375 c 4,15,16
 190 629 190 629 177.243164062 764.487304688 c 4,0,1
EndSplineSet
EndChar

StartChar: uniFEE0
Encoding: 65248 65248 232
Width: 731
VWidth: 3713
GlyphClass: 2
Flags: W
AnchorPoint: "Anchor-10" 335.333 1718.48 basechar 0
AnchorPoint: "Anchor-7" 284.362 -216.796 basechar 0
LayerCount: 2
Fore
SplineSet
384.360351562 170.094726562 m 5,0,1
 259 0 259 0 56.5390625 0 c 6,2,-1
 -16.7998046875 0 l 5,3,-1
 -16.7998046875 494.930664062 l 5,4,-1
 8.3955078125 494.930664062 l 6,5,6
 252 495 252 495 245.75390625 703.678710938 c 4,7,8
 234 1110 234 1110 188.541992188 1457.75976562 c 5,9,-1
 510.9296875 1660.37011719 l 6,10,11
 564.186523438 1694.11819718 564.186523438 1694.11819718 564.186523438 1620.38964844 c 6,12,-1
 564.186523438 727.0546875 l 6,13,14
 564 596 564 596 595.02734375 550.706054688 c 4,15,16
 634.048508295 494.930664061 634.048508295 494.930664061 715.870117188 494.930664062 c 6,17,-1
 747.47265625 494.930664062 l 5,18,-1
 747.47265625 0 l 5,19,-1
 705.435546875 0 l 6,20,21
 484 0 484 0 384.360351562 170.094726562 c 5,0,1
EndSplineSet
EndChar

StartChar: uniFEE2
Encoding: 65250 65250 234
Width: 1365
VWidth: 3789
GlyphClass: 2
Flags: W
AnchorPoint: "Anchor-10" 673.718 1202.23 basechar 0
AnchorPoint: "Anchor-7" 281.716 -791.776 basechar 0
LayerCount: 2
Fore
SplineSet
90.63671875 -211.83203125 m 6,0,1
 77.6028762366 59.8760368028 77.6028762366 59.8760368028 97.0888671875 272.079101562 c 0,2,3
 124 562 124 562 343.427734375 701.580078125 c 0,4,5
 448 768 448 768 584.00390625 787.186523438 c 1,6,7
 605 881 605 881 622.21484375 910.362304688 c 0,8,9
 664.872887815 981.787168617 664.872887815 981.787168617 726.146484375 935.96875 c 2,10,-1
 1232.74414062 557.151367188 l 2,11,12
 1316.09288007 494.930664062 1316.09288007 494.930664062 1363.18945312 494.930664062 c 2,13,-1
 1382.7734375 494.930664062 l 1,14,-1
 1382.7734375 0 l 1,15,-1
 1353.75195312 0 l 2,16,17
 1279 0 1279 0 1192.20214844 68.197265625 c 1,18,19
 1100 -195 1100 -195 878.927734375 -193.065429688 c 0,20,21
 659 -191 659 -191 580.741210938 10.6171875 c 0,22,23
 541 113 541 113 550.73046875 392.880859375 c 1,24,25
 428 349 428 349 369.991210938 262.213867188 c 1,26,-1
 385.454101562 -279.473632812 l 2,27,28
 388.820585844 -387.2558317 388.820585844 -387.2558317 259.278320312 -529 c 0,29,30
 241 -549 241 -549 219 -567.6015625 c 0,31,32
 108.594285975 -661.344482328 108.594285975 -661.344482328 104.926757812 -543 c 2,33,-1
 102.013671875 -449 l 0,34,-1
 90.63671875 -211.83203125 l 6,0,1
772.456054688 493.6171875 m 1,35,36
 766.928710938 379.731445312 766.928710938 379.731445312 773.383789062 307.515625 c 0,37,38
 780.794921875 234.665039062 780.794921875 234.665039062 816.29296875 206.696289062 c 0,39,40
 852.26171875 178.131835938 852.26171875 178.131835938 929.037109375 185.78515625 c 0,41,42
 975.994140625 189.865234375 975.994140625 189.865234375 1000.33496094 238.998046875 c 0,43,44
 1051.7265625 340.264648438 1051.7265625 340.264648438 772.456054688 493.6171875 c 1,35,36
EndSplineSet
EndChar

StartChar: uniFEE3
Encoding: 65251 65251 235
Width: 1075
VWidth: 3756
GlyphClass: 2
Flags: W
AnchorPoint: "Anchor-10" 543.686 1198.77 basechar 0
AnchorPoint: "Anchor-7" 529.424 -259.04 basechar 0
LayerCount: 2
Fore
SplineSet
302.1796875 178.619140625 m 1,0,1
 150.399414062 0 150.399414062 0 6.9853515625 0 c 2,2,-1
 -16.1494140625 0 l 1,3,-1
 -16.1513671875 494.930664062 l 1,4,-1
 31.248046875 494.930664062 l 2,5,6
 155.732421875 494.930664062 155.732421875 494.930664062 251.524414062 626.916015625 c 0,7,8
 378.6640625 802.127929688 378.6640625 802.127929688 461.264648438 877.395507812 c 0,9,10
 540.796875 949.327148438 540.796875 949.327148438 627.196289062 949.369140625 c 0,11,12
 693.329101562 949.327148438 693.329101562 949.327148438 758.620117188 908.706054688 c 0,13,14
 913.060546875 810.661132812 913.060546875 810.661132812 963.815429688 573.395507812 c 0,15,16
 1034.66015625 239.998046875 1034.66015625 239.998046875 831.145507812 60.7763671875 c 0,17,18
 723.1953125 -34.1328125 723.1953125 -34.1328125 632.690429688 -12.1630859375 c 0,19,20
 481.063476562 24.533203125 481.063476562 24.533203125 302.1796875 178.619140625 c 1,0,1
498 557 m 5,21,22
 656 397 656 397 731.306640625 424.674804688 c 4,23,24
 754 433 754 433 755.1953125 473.596679688 c 4,25,26
 757 529 757 529 719.2578125 586.415039062 c 4,27,28
 661.893059954 674.554869457 661.893059954 674.554869457 604.934570312 662.345703125 c 4,29,30
 566 654 566 654 498 557 c 5,21,22
EndSplineSet
EndChar

StartChar: uniFEE4
Encoding: 65252 65252 236
Width: 1170
VWidth: 3756
GlyphClass: 2
Flags: W
AnchorPoint: "Anchor-10" 561.076 1181.23 basechar 0
AnchorPoint: "Anchor-7" 513.449 -269.66 basechar 0
LayerCount: 2
Fore
SplineSet
487.591796875 499.536132812 m 1,0,1
 645.591796875 339.536132812 645.591796875 339.536132812 720.8984375 367.2109375 c 0,2,3
 743.591796875 375.536132812 743.591796875 375.536132812 744.787109375 416.1328125 c 0,4,5
 746.591796875 471.536132812 746.591796875 471.536132812 708.849609375 528.951171875 c 0,6,7
 651.484375 617.091796875 651.484375 617.091796875 594.526367188 604.881835938 c 0,8,9
 555.591796875 596.536132812 555.591796875 596.536132812 487.591796875 499.536132812 c 1,0,1
762.477539062 840.6640625 m 0,10,11
 857.560546875 771.510742188 857.560546875 771.510742188 959.123046875 592.309570312 c 0,12,13
 1014.31347656 494.930664062 1014.31347656 494.930664062 1157.01464844 494.930664062 c 2,14,-1
 1182.4453125 494.930664062 l 1,15,-1
 1182.4453125 0 l 1,16,-1
 1160.61425781 0 l 2,17,18
 1048.52636719 0 1048.52636719 0 910.921875 98.689453125 c 1,19,20
 863.994140625 27.7333984375 863.994140625 27.7333984375 788.967773438 -32.939453125 c 0,21,22
 726.395507812 -83.19921875 726.395507812 -83.19921875 652.80859375 -83.0947265625 c 0,23,24
 514.129882812 -82.1328125 514.129882812 -82.1328125 299.229492188 115.48046875 c 1,25,26
 187.732421875 0 187.732421875 0 16.5849609375 0 c 2,27,-1
 -11.8828125 0 l 1,28,-1
 -11.884765625 494.930664062 l 1,29,-1
 31.2392578125 494.930664062 l 2,30,31
 184.532226562 494.930664062 184.532226562 494.930664062 251.194335938 585.89453125 c 0,32,33
 364.797851562 742.395507812 364.797851562 742.395507812 452.650390625 813.330078125 c 0,34,35
 616.529296875 947.194335938 616.529296875 947.194335938 762.477539062 840.6640625 c 0,10,11
EndSplineSet
EndChar

StartChar: uniFEEA
Encoding: 65258 65258 242
Width: 1061
VWidth: 3740
GlyphClass: 2
Flags: W
AnchorPoint: "Anchor-10" 637.045 1651.82 basechar 0
AnchorPoint: "Anchor-7" 475.202 -208.468 basechar 0
LayerCount: 2
Fore
SplineSet
278.779296875 680.216796875 m 0,0,1
 291 656 291 656 383.067382812 639.319335938 c 0,2,3
 473 623 473 623 637.197265625 627.1796875 c 1,4,-1
 591.8828125 841.250976562 l 1,5,6
 335.200078836 760.012801142 335.200078836 760.012801142 284.734375 696.067382812 c 0,7,8
 276 685 276 685 278.779296875 680.216796875 c 0,0,1
1054.45507812 0 m 6,9,10
 799 0 799 0 690.700195312 261.125 c 1,11,-1
 542.912109375 123.607421875 l 1,12,13
 407 126 407 126 254.931640625 156.265625 c 0,14,15
 150 177 150 177 111.999023438 227.935546875 c 0,16,17
 94 252 94 252 86.9560546875 317.864257812 c 0,18,19
 53 625 53 625 97.173828125 761.551757812 c 0,20,21
 146 909 146 909 543.478515625 1094.71386719 c 1,22,-1
 526.415039062 1174.36523438 l 1,23,-1
 672.265625 1337.59179688 l 2,24,25
 730.633833009 1402.59222644 730.633833009 1402.59222644 750.974609375 1302.39160156 c 2,26,-1
 879.348632812 670.008789062 l 2,27,28
 915.014124553 494.930664062 915.014124553 494.930664062 1037.3125 494.930664062 c 2,29,-1
 1077.59082031 494.930664062 l 5,30,-1
 1077.59082031 0 l 5,31,-1
 1054.45507812 0 l 6,9,10
EndSplineSet
EndChar

StartChar: uniFEEB
Encoding: 65259 65259 243
Width: 1302
VWidth: 3747
GlyphClass: 2
Flags: W
AnchorPoint: "Anchor-10" 526.316 1628.96 basechar 0
AnchorPoint: "Anchor-7" 573.812 -213.204 basechar 0
LayerCount: 2
Fore
SplineSet
783.901367188 745.45703125 m 1,0,1
 766.981445312 620.25 766.981445312 620.25 702.861328125 549.336914062 c 1,2,3
 846.688476562 488.083007812 846.688476562 488.083007812 924.009765625 473.90234375 c 1,4,5
 970.883789062 538.098632812 970.883789062 538.098632812 932.6796875 612.59765625 c 0,6,7
 896.830078125 683.098632812 896.830078125 683.098632812 783.901367188 745.45703125 c 1,0,1
505.904296875 209.791015625 m 5,8,9
 291 0 291 0 47.9052734375 0 c 2,10,-1
 -16.9228515625 0 l 1,11,-1
 -16.9228515625 494.930664062 l 1,12,13
 227.213867188 496.354492188 l 1,14,15
 185 507 185 507 154.358398438 542.224609375 c 0,16,17
 84.6156528723 616.801010573 84.6156528723 616.801010573 140.68359375 780.8203125 c 0,18,19
 203 964 203 964 321.134765625 1036.15917969 c 1,20,-1
 198.817382812 1097.56445312 l 1,21,-1
 293.091796875 1439.23339844 l 1,22,-1
 714.049804688 1201.86328125 l 2,23,24
 1339 850 1339 850 1165.26171875 381.922851562 c 0,25,26
 1120 260 1120 260 1059.40039062 184.331054688 c 0,27,28
 1000 109 1000 109 945.537109375 109.896484375 c 0,29,30
 771 111 771 111 505.904296875 209.791015625 c 5,8,9
530.109375 625.078125 m 1,31,32
 571 647 571 647 591.8984375 711.313476562 c 0,33,34
 616 787 616 787 604.544921875 821.779296875 c 0,35,36
 593.523722922 854.447614731 593.523722922 854.447614731 542.095703125 876.25390625 c 0,37,38
 446 917 446 917 374.991210938 825.09375 c 0,39,40
 332 769 332 769 351.623046875 732.775390625 c 0,41,42
 386 669 386 669 530.109375 625.078125 c 1,31,32
EndSplineSet
EndChar

StartChar: uniFEEC
Encoding: 65260 65260 244
Width: 1124
VWidth: 3775
GlyphClass: 2
Flags: W
AnchorPoint: "Anchor-7" 382.532 -662.585 basechar 0
AnchorPoint: "Anchor-10" 496.286 1372.17 basechar 0
LayerCount: 2
Fore
SplineSet
385.690429688 498.797851562 m 1,0,1
 637 511 637 511 654.416015625 609.655273438 c 0,2,3
 663 654 663 654 530.176757812 814.81640625 c 1,4,5
 413 649 413 649 385.690429688 498.797851562 c 1,0,1
660.0859375 -600.408203125 m 1,6,7
 286 -419 286 -419 154.111328125 0.009765625 c 1,8,-1
 -16.580078125 -0.890625 l 1,9,-1
 -16.580078125 494.938476562 l 1,10,-1
 144.723632812 492.594726562 l 1,11,12
 181 782 181 782 404.149414062 1053.69140625 c 0,13,14
 467.246350817 1130.21349616 467.246350817 1130.21349616 533 1131.93135608 c 0,15,16
 572.343276099 1132.9592266 572.343276099 1132.9592266 612.637695312 1107.20605469 c 0,17,18
 878.966670078 937.593323754 878.966670078 937.593323754 879.026485738 644 c 4,19,20
 879 567 879 567 853.291992188 494 c 0,21,22
 729 146 729 146 404.9375 6.0947265625 c 1,23,24
 475 -119 475 -119 603.400390625 -204.873046875 c 1,25,26
 672 27 672 27 675 36 c 0,27,28
 843.974471082 494.930664062 843.974471082 494.930664062 1108.14746094 494.930664062 c 2,29,-1
 1141.75097656 494.930664062 l 1,30,-1
 1141.75097656 0 l 1,31,-1
 1120.18847656 0 l 2,32,33
 937 0 937 0 870.841796875 -87.583984375 c 0,34,35
 810 -169 810 -169 879.979492188 -451.274414062 c 1,36,-1
 660.0859375 -600.408203125 l 1,6,7
EndSplineSet
EndChar

StartChar: uniFEEE
Encoding: 65262 65262 246
Width: 937
VWidth: 3781
GlyphClass: 2
Flags: W
AnchorPoint: "Anchor-10" 409.69 1285.41 basechar 0
AnchorPoint: "Anchor-7" 279.092 -705.899 basechar 0
LayerCount: 2
Fore
SplineSet
533 0 m 13,0,1
 505.700195312 0.4912109375 l 6,2,3
 289 4 289 4 204.194335938 102.387695312 c 0,4,5
 53 278 53 278 162.798828125 635.729492188 c 0,6,7
 210 789 210 789 280.213867188 867.330078125 c 0,8,9
 365 962 365 962 476.821289062 964.024414062 c 0,10,11
 713 969 713 969 799.818359375 670.438476562 c 24,12,13
 827 578 827 578 829.861328125 494.930664062 c 1,14,-1
 953.938476562 494.930664062 l 1,15,-1
 953.938476562 0 l 1,16,-1
 834.391601562 0 l 17,17,18
 820 -77 820 -77 798.122070312 -139 c 0,19,20
 677 -487 677 -487 279.393554688 -631.7265625 c 0,21,22
 251 -642 251 -642 240.823242188 -628.5234375 c 0,23,24
 126 -482 126 -482 61 -359 c 0,25,26
 36 -312 36 -312 89.068359375 -289.311523438 c 0,27,28
 439 -144 439 -144 533 0 c 13,0,1
623.155273438 486.203125 m 1,29,30
 602.331054688 540.822265625 602.331054688 540.822265625 577.75 576 c 0,31,32
 530.5625 643.529296875 530.5625 643.529296875 448 642.52734375 c 0,33,34
 372.903320312 641.615234375 372.903320312 641.615234375 348.184570312 577.583984375 c 0,35,36
 320 505 320 505 400.825195312 492.162109375 c 0,37,38
 473.510742188 480.920898438 473.510742188 480.920898438 558.388671875 483.916992188 c 2,39,-1
 623.155273438 486.203125 l 1,29,30
EndSplineSet
EndChar

StartChar: uniFEF0
Encoding: 65264 65264 248
Width: 1549
VWidth: 3753
GlyphClass: 2
Flags: W
AnchorPoint: "Anchor-10" 725.938 989.34 basechar 0
AnchorPoint: "Anchor-7" 414.979 -780.205 basechar 0
LayerCount: 2
Fore
SplineSet
786.499023438 -142.346679688 m 4,0,1
 944 -142 944 -142 1044.52636719 -110.932617188 c 4,2,3
 1155 -76 1155 -76 1185.32617188 -34.1328125 c 12,4,5
 1202 -10 1202 -10 1187.484375 -2.98046875 c 4,6,7
 1129 23 1129 23 939.994140625 45.5673828125 c 4,8,9
 862 55 862 55 874.555664062 156.443359375 c 4,10,11
 917.991102659 494.930664062 917.991102659 494.930664062 1052.68164062 494.930664062 c 6,12,-1
 1565.05078125 494.930664062 l 5,13,-1
 1565.05078125 0 l 5,14,-1
 1430.30859375 0 l 5,15,16
 1472 -84 1472 -84 1423.796875 -204.51953125 c 4,17,18
 1367 -347 1367 -347 1221.39941406 -451.995117188 c 4,19,20
 1018 -600 1018 -600 741.881835938 -602.138671875 c 4,21,22
 396 -605 396 -605 221.67578125 -422.489257812 c 4,23,24
 81 -275 81 -275 81.1005859375 9.599609375 c 4,25,26
 82 310 82 310 237.498046875 598.952148438 c 5,27,-1
 413.864257812 552.530273438 l 5,28,29
 335 330 335 330 335.872070312 188.798828125 c 4,30,31
 337 -143 337 -143 786.499023438 -142.346679688 c 4,0,1
EndSplineSet
EndChar

StartChar: uniFEFB
Encoding: 65275 65275 259
Width: 1417
VWidth: 3713
GlyphClass: 3
Flags: W
AnchorPoint: "Anchor-9" 1020.48 1719.56 baselig 0
AnchorPoint: "Anchor-6" 320.531 -226.328 baselig 1
AnchorPoint: "Anchor-6" 993.295 -179.265 baselig 0
AnchorPoint: "Anchor-9" 119.039 1661.26 baselig 1
LayerCount: 2
Fore
SplineSet
1093.32617188 206.876953125 m 24,0,1
 854 -44 854 -44 187.442382812 -22.9169921875 c 1,2,3
 148 181 148 181 139.732421875 311.46484375 c 0,4,5
 138 338 138 338 155.732421875 357.331054688 c 0,6,7
 161 363 161 363 227.556640625 367.794921875 c 0,8,9
 420 382 420 382 497.626953125 401.20703125 c 1,10,-1
 20.18359375 1283.53027344 l 1,11,-1
 291.8828125 1557.96289062 l 1,12,-1
 789.491210938 490.337890625 l 1,13,14
 940 553 940 553 957.408203125 692.830078125 c 0,15,16
 962 730 962 730 934.39453125 998.926757812 c 0,17,18
 894 1388 894 1388 890.665039062 1467.56640625 c 1,19,-1
 1210 1651 l 2,20,21
 1258.17901644 1679.10442626 1258.17901644 1679.10442626 1259.734375 1622.52246094 c 2,22,-1
 1282.10058594 808.868164062 l 2,23,24
 1293 415 1293 415 1093.32617188 206.876953125 c 24,0,1
EndSplineSet
LCarets2: 1 0
Ligature2: "'rlig' Required Ligatures in Arabic lookup 16 subtable" uniFEDF uniFE8E
EndChar

StartChar: uniFEFC
Encoding: 65276 65276 260
Width: 1470
VWidth: 3713
GlyphClass: 3
Flags: W
AnchorPoint: "Anchor-9" 1031.15 1719.56 baselig 0
AnchorPoint: "Anchor-6" 1035.96 -192.064 baselig 0
AnchorPoint: "Anchor-6" 411.197 -232.729 baselig 1
AnchorPoint: "Anchor-9" 139.706 1631.26 baselig 1
LayerCount: 2
Fore
SplineSet
1445.61132812 0 m 2,0,1
 1187 0 1187 0 1093.32617188 206.876953125 c 1,2,3
 854 -44 854 -44 187.442382812 -22.9169921875 c 1,4,5
 148 181 148 181 139.732421875 311.46484375 c 0,6,7
 138 338 138 338 155.732421875 357.331054688 c 0,8,9
 161 363 161 363 227.556640625 367.794921875 c 0,10,11
 420 382 420 382 497.626953125 401.20703125 c 1,12,-1
 20.18359375 1283.53027344 l 1,13,-1
 301.8828125 1527.96289062 l 5,14,-1
 789.491210938 490.337890625 l 5,15,16
 940 554 940 554 957.408203125 692.830078125 c 0,17,18
 962 730 962 730 934.39453125 998.926757812 c 0,19,20
 894 1388 894 1388 890.665039062 1467.56640625 c 1,21,-1
 1215 1654.03414846 l 2,22,23
 1258.22744112 1679.13205258 1258.22744112 1679.13205258 1259.83886719 1620.38964844 c 2,24,-1
 1282.10058594 808.868164062 l 2,25,26
 1288.08352358 606.170277393 1288.08352358 606.170277393 1308.51855469 561.552734375 c 0,27,28
 1339.03175616 494.930664062 1339.03175616 494.930664062 1445.94433594 494.930664062 c 2,29,-1
 1486.86132812 494.930664062 l 1,30,-1
 1486.86132812 0 l 1,31,-1
 1445.61132812 0 l 2,0,1
EndSplineSet
LCarets2: 1 0
Ligature2: "'rlig' Required Ligatures in Arabic lookup 16 subtable" uniFEE0 uniFE8E
EndChar

StartChar: arabic_dot
Encoding: 65536 -1 261
Width: 233
VWidth: 3240
GlyphClass: 2
Flags: W
LayerCount: 2
Fore
SplineSet
116.03125 327.671875 m 1,0,-1
 316.513671875 127.190429688 l 1,1,-1
 116.03125 -73.2939453125 l 1,2,-1
 -84.451171875 127.190429688 l 1,3,-1
 116.03125 327.671875 l 1,0,-1
EndSplineSet
EndChar

StartChar: arabic_2dots
Encoding: 65537 -1 262
Width: 612
VWidth: 3240
GlyphClass: 2
Flags: W
LayerCount: 2
Fore
SplineSet
486.857421875 315.198242188 m 1,0,-1
 679.502929688 122.552734375 l 1,1,-1
 486.857421875 -70.0947265625 l 1,2,-1
 306.591796875 110.171875 l 1,3,-1
 126.326171875 -70.0947265625 l 1,4,-1
 -66.3193359375 122.552734375 l 1,5,-1
 126.326171875 315.198242188 l 1,6,-1
 306.591796875 134.932617188 l 1,7,-1
 486.857421875 315.198242188 l 1,0,-1
EndSplineSet
EndChar

StartChar: arabic_3dots
Encoding: 65538 -1 263
Width: 590
VWidth: 3240
GlyphClass: 2
Flags: W
LayerCount: 2
Fore
SplineSet
-75.3916015625 96.439453125 m 5,0,-1
 109.548828125 281.381835938 l 5,1,-1
 294.489257812 96.439453125 l 5,2,-1
 109.548828125 -88.50390625 l 5,3,-1
 -75.3916015625 96.439453125 l 5,0,-1
296.873046875 96.439453125 m 5,4,-1
 481.813476562 281.381835938 l 5,5,-1
 666.752929688 96.439453125 l 5,6,-1
 481.813476562 -88.50390625 l 5,7,-1
 296.873046875 96.439453125 l 5,4,-1
110.782226562 375.466796875 m 5,8,-1
 295.639648438 560.323242188 l 5,9,-1
 480.495117188 375.466796875 l 5,10,-1
 295.639648438 190.608398438 l 5,11,-1
 110.782226562 375.466796875 l 5,8,-1
EndSplineSet
EndChar

StartChar: arabic_3dots_a
Encoding: 65539 -1 264
Width: 636
VWidth: 3240
GlyphClass: 2
Flags: W
LayerCount: 2
Fore
SplineSet
-54.0576171875 137.515625 m 1,0,-1
 130.8828125 322.458007812 l 1,1,-1
 315.822265625 137.515625 l 1,2,-1
 130.8828125 -47.4267578125 l 1,3,-1
 -54.0576171875 137.515625 l 1,0,-1
318.206054688 137.515625 m 1,4,-1
 503.146484375 322.458007812 l 1,5,-1
 688.0859375 137.515625 l 1,6,-1
 503.146484375 -47.4267578125 l 1,7,-1
 318.206054688 137.515625 l 1,4,-1
132.116210938 -141.51171875 m 1,8,-1
 316.97265625 43.3466796875 l 1,9,-1
 501.828125 -141.51171875 l 1,10,-1
 316.97265625 -326.369140625 l 1,11,-1
 132.116210938 -141.51171875 l 1,8,-1
EndSplineSet
EndChar

StartChar: uni066E.fina
Encoding: 65540 -1 265
Width: 1993
VWidth: 3753
GlyphClass: 2
Flags: W
AnchorPoint: "Anchor-10" 1060.57 1821.78 basechar 0
AnchorPoint: "Anchor-7" 991.416 -346.569 basechar 0
LayerCount: 2
Fore
SplineSet
1609.01953125 245.4765625 m 1,0,1
 1357 0 1357 0 813.678710938 0 c 0,2,3
 490 0 490 0 302.755859375 102.430664062 c 0,4,5
 58 237 58 237 68.91796875 565.330078125 c 0,6,7
 76 766 76 766 191.454101562 994.09375 c 1,8,-1
 345.512695312 938.196289062 l 1,9,10
 288 729 288 729 341.935546875 647.479492188 c 0,11,12
 443.673201443 491.721532274 443.673201443 491.721532274 892 491.239439652 c 0,13,14
 1503.93720418 490.581414274 1503.93720418 490.581414274 1607.41015625 737.362304688 c 6,15,-1
 1618.95703125 764.901367188 l 1,16,-1
 1762.75878906 734.340820312 l 1,17,-1
 1755.37402344 692.580078125 l 2,18,19
 1731 555 1731 555 1866.60546875 509.4765625 c 0,20,21
 1910.20783943 494.930664062 1910.20783943 494.930664062 1972.6875 494.930664062 c 2,22,-1
 2010.40429688 494.930664062 l 1,23,-1
 2010.40429688 0 l 1,24,-1
 1980.61914062 0 l 2,25,26
 1664 0 1664 0 1609.01953125 245.4765625 c 1,0,1
EndSplineSet
EndChar

StartChar: uni06A1.fina
Encoding: 65543 -1 268
Width: 1971
VWidth: 3748
GlyphClass: 2
Flags: W
AnchorPoint: "Anchor-10" 766.929 2001.83 basechar 0
AnchorPoint: "Anchor-7" 954.113 -431.558 basechar 0
LayerCount: 2
Fore
SplineSet
1714.27050781 516.568359375 m 1,0,1
 1807.29809807 494.930664062 1807.29809807 494.930664062 1945.19335938 494.930664062 c 6,2,-1
 1988.359375 494.930664062 l 5,3,-1
 1988.359375 0 l 5,4,-1
 1926.24804688 0 l 6,5,6
 1695 0 1695 0 1479.16308594 202.987304688 c 1,7,8
 1203 0 1203 0 797.5 0 c 0,9,10
 492 0 492 0 302.924804688 102.337890625 c 0,11,12
 68 230 68 230 68.408203125 536.530273438 c 0,13,14
 68 796 68 796 191.59765625 994.03125 c 1,15,-1
 345.471679688 938.2109375 l 1,16,17
 288 728 288 728 341.856445312 647.596679688 c 0,18,19
 438.780339466 500.725589795 438.780339466 500.725589795 800.18359375 493.1640625 c 4,20,21
 1047 488 1047 488 1243.52539062 523.555664062 c 1,22,23
 1144 635 1144 635 1143.6640625 757.09375 c 0,24,25
 1144 950 1144 950 1268.50683594 1088.45996094 c 0,26,27
 1367 1197 1367 1197 1502.39160156 1196.80175781 c 0,28,29
 1638 1197 1638 1197 1752.77246094 1031.80664062 c 0,30,31
 1830 921 1830 921 1829.55761719 773.401367188 c 0,32,33
 1830 639 1830 639 1714.27050781 516.568359375 c 1,0,1
1624.5 709.200195312 m 0,34,35
 1625 743 1625 743 1575.12890625 789.071289062 c 0,36,37
 1526 835 1526 835 1481.02441406 834.935546875 c 0,38,39
 1438 835 1438 835 1392.62988281 785.692382812 c 0,40,41
 1313 699 1313 699 1381.75488281 639.071289062 c 0,42,43
 1450 579 1450 579 1486.91894531 579.2890625 c 0,44,45
 1523 579 1523 579 1574.03515625 627.352539062 c 0,46,47
 1624 674 1624 674 1624.5 709.200195312 c 0,34,35
EndSplineSet
EndChar

StartChar: uni06A1.init
Encoding: 65544 -1 269
Width: 882
VWidth: 3781
GlyphClass: 2
Flags: W
AnchorPoint: "Anchor-10" 487.044 2063.37 basechar 0
AnchorPoint: "Anchor-7" 434.877 -342.91 basechar 0
LayerCount: 2
Fore
SplineSet
580.409179688 930.608398438 m 5,0,1
 519.463867188 1068.79296875 519.463867188 1068.79296875 419.64453125 1067.36035156 c 4,2,3
 346.6640625 1066.66015625 346.6640625 1066.66015625 321.448242188 1016.00292969 c 4,4,5
 296.53125 965.327148438 296.53125 965.327148438 318.235351562 943.205078125 c 4,6,7
 345.59765625 915.194335938 345.59765625 915.194335938 492.463867188 922.177734375 c 4,8,9
 546.129882812 924.793945312 546.129882812 924.793945312 580.409179688 930.608398438 c 5,0,1
189.006835938 494.930664062 m 2,10,11
 372.140625 494.930664062 372.140625 494.930664062 470.157226562 523.68359375 c 0,12,13
 567.361328125 552.197265625 567.361328125 552.197265625 582.22265625 600.573242188 c 1,14,15
 478.930664062 585.596679688 478.930664062 585.596679688 399.849609375 586.283203125 c 0,16,17
 146.1328125 587.729492188 146.1328125 587.729492188 117.595703125 771.0546875 c 0,18,19
 104.532226562 854.39453125 104.532226562 854.39453125 123.663085938 977.088867188 c 0,20,21
 181.33203125 1359.99121094 181.33203125 1359.99121094 443.73046875 1359.99121094 c 0,22,23
 567.462890625 1359.99121094 567.462890625 1359.99121094 643.272460938 1264.70898438 c 0,24,25
 806.310546875 1062.75195312 806.310546875 1062.75195312 791.401367188 625.815429688 c 0,26,27
 779.715820312 283.358398438 779.715820312 283.358398438 635.626953125 142.466796875 c 0,28,29
 489.927734375 0 489.927734375 0 213.461914062 0 c 2,30,-1
 -32.7275390625 0 l 1,31,-1
 -32.7275390625 494.930664062 l 1,32,-1
 189.006835938 494.930664062 l 2,10,11
EndSplineSet
EndChar

StartChar: uni06A1.medi
Encoding: 65545 -1 270
Width: 1007
VWidth: 3748
GlyphClass: 2
Flags: W
AnchorPoint: "Anchor-10" 758.142 1723.05 basechar 0
AnchorPoint: "Anchor-7" 697.662 -335.969 basechar 0
LayerCount: 2
Fore
SplineSet
750.27734375 516.568359375 m 5,0,1
 857.343081979 494.930664062 857.343081979 494.930664062 996.51171875 494.930664062 c 6,2,-1
 1024.17382812 494.930664062 l 5,3,-1
 1024.17382812 0 l 5,4,-1
 950.087890625 0 l 6,5,6
 728 0 728 0 515.146484375 203.452148438 c 5,7,8
 285 0 285 0 38.2158203125 0 c 6,9,-1
 -16.4921875 0 l 5,10,-1
 -16.4921875 494.930664062 l 5,11,-1
 27.458984375 494.930664062 l 6,12,13
 131 495 131 495 279.53125 523.555664062 c 5,14,15
 180 635 180 635 179.670898438 757.09375 c 4,16,17
 180 950 180 950 304.513671875 1088.45996094 c 4,18,19
 403 1197 403 1197 538.3984375 1196.80175781 c 4,20,21
 674 1197 674 1197 788.779296875 1031.80664062 c 4,22,23
 866 921 866 921 865.564453125 773.401367188 c 4,24,25
 866 639 866 639 750.27734375 516.568359375 c 5,0,1
660.505859375 709.200195312 m 4,26,27
 661 743 661 743 611.135742188 789.071289062 c 4,28,29
 562 835 562 835 517.03125 834.935546875 c 4,30,31
 474 835 474 835 428.63671875 785.692382812 c 4,32,33
 349 699 349 699 417.76171875 639.071289062 c 4,34,35
 486 579 486 579 522.92578125 579.2890625 c 4,36,37
 559 579 559 579 610.041992188 627.352539062 c 4,38,39
 661 675 661 675 660.505859375 709.200195312 c 4,26,27
EndSplineSet
EndChar

StartChar: uni066F.fina
Encoding: 65546 -1 271
Width: 1483
VWidth: 3781
GlyphClass: 2
Flags: W
AnchorPoint: "Anchor-10" 480.781 784.357 basechar 0
AnchorPoint: "Anchor-7" 402.041 -854 basechar 0
LayerCount: 2
Fore
SplineSet
1170.04296875 491.293945312 m 1,0,1
 1118.21679688 628.084960938 1118.21679688 628.084960938 1042.16308594 642.9375 c 0,2,3
 927.28515625 665.41796875 927.28515625 665.41796875 895.072265625 582.674804688 c 0,4,5
 867.551757812 511.818359375 867.551757812 511.818359375 947.712890625 497.252929688 c 0,6,7
 1016.78808594 485.883789062 1016.78808594 485.883789062 1105.27636719 489.0078125 c 2,8,-1
 1170.04296875 491.293945312 l 1,0,1
1025.48535156 964.024414062 m 8,9,10
 1252 969 1252 969 1338.97558594 690.866210938 c 0,11,12
 1372 586 1372 586 1375.32226562 494.930664062 c 1,13,-1
 1501.30078125 494.930664062 l 1,14,-1
 1501.30078125 0 l 1,15,-1
 1366.15234375 0 l 1,16,17
 1360 -133 1360 -133 1329.328125 -209.473632812 c 0,18,19
 1185 -568 1185 -568 707.938476562 -567.453125 c 0,20,21
 376 -567 376 -567 222.983398438 -401.260742188 c 0,22,23
 83 -250 83 -250 80.94140625 25.599609375 c 0,24,25
 79 290 79 290 203.59765625 549.060546875 c 1,26,-1
 380.661132812 499.107421875 l 1,27,28
 277 154 277 154 380.943359375 24.2216796875 c 0,29,30
 470 -87 470 -87 684.068359375 -95.96875 c 0,31,32
 1017 -109 1017 -109 1166.79980469 -0.05859375 c 1,33,-1
 1067.80078125 0.0498046875 l 6,34,35
 840 0 840 0 752.857421875 102.387695312 c 0,36,37
 603 278 603 278 711.461914062 635.729492188 c 0,38,39
 758 789 758 789 828.877929688 867.330078125 c 0,40,41
 914 962 914 962 1025.48535156 964.024414062 c 8,9,10
EndSplineSet
EndChar

StartChar: arabic_gaf_bar
Encoding: 65549 -1 274
Width: 788
VWidth: 3142
GlyphClass: 2
Flags: W
LayerCount: 2
Fore
SplineSet
782.442166169 2098 m 6,0,-1
 753.061523438 1951.98828125 l 1,1,-1
 -3.693359375 1703.41601562 l 1,2,-1
 46.251953125 1877.67480469 l 1,3,-1
 761 2116.22437107 l 2,4,5
 787.916992188 2125.20800781 787.916992188 2125.20800781 782.442166169 2098 c 6,0,-1
EndSplineSet
EndChar

StartChar: guillemotleft
Encoding: 171 171 284
Width: 1546
VWidth: 3386
Flags: W
LayerCount: 2
Fore
SplineSet
478.000976562 -5.10546875 m 6,0,1
 132.000177297 471.919526075 132.000177297 471.919526075 131.873046875 529.623046875 c 4,2,3
 132.000745912 597.395872622 132.000745912 597.395872622 477.9453125 1074.90234375 c 6,4,-1
 496.909179688 1101.078125 l 5,5,-1
 835.384765625 1101.078125 l 5,6,-1
 738.821289062 961.859375 l 6,7,8
 466 569 466 569 465.729492188 529.146484375 c 4,9,10
 466.002909993 499.686456135 466.002909993 499.686456135 738.700195312 108.1015625 c 6,11,-1
 835.745117188 -31.251953125 l 5,12,-1
 496.965820312 -31.251953125 l 5,13,-1
 478.000976562 -5.10546875 l 6,0,1
1058.48632812 -5.0283203125 m 6,14,15
 713 472.742014766 713 472.742014766 713 529.596679688 c 4,16,17
 713 596.45189679 713 596.45189679 1058.42871094 1074.82128906 c 6,18,-1
 1077.38867188 1101.078125 l 5,19,-1
 1415.92773438 1101.078125 l 5,20,-1
 1319.35449219 961.858398438 l 6,21,22
 1046 568 1046 568 1046.20507812 534.200195312 c 4,23,24
 1045.99732287 500.566598901 1045.99732287 500.566598901 1319.24609375 108.095703125 c 6,25,-1
 1416.26367188 -31.251953125 l 5,26,-1
 1077.44921875 -31.251953125 l 5,27,-1
 1058.48632812 -5.0283203125 l 6,14,15
EndSplineSet
EndChar

StartChar: guillemotright
Encoding: 187 187 285
Width: 1546
VWidth: 3386
Flags: W
LayerCount: 2
Fore
SplineSet
1068.13574219 -5.10546875 m 6,0,1
 1049.17089844 -31.251953125 l 5,2,-1
 710.391601562 -31.251953125 l 5,3,-1
 807.436523438 108.1015625 l 6,4,5
 1080.13378906 499.686523438 1080.13378906 499.686523438 1080.40722656 529.146484375 c 4,6,7
 1080.13671875 569 1080.13671875 569 807.315429688 961.859375 c 6,8,-1
 710.751953125 1101.078125 l 5,9,-1
 1049.22753906 1101.078125 l 5,10,-1
 1068.19140625 1074.90234375 l 6,11,12
 1414.13574219 597.395507812 1414.13574219 597.395507812 1414.26367188 529.623046875 c 4,13,14
 1414.13671875 471.919921875 1414.13671875 471.919921875 1068.13574219 -5.10546875 c 6,0,1
487.650390625 -5.0283203125 m 6,15,-1
 468.6875 -31.251953125 l 5,16,-1
 129.873046875 -31.251953125 l 5,17,-1
 226.890625 108.095703125 l 6,18,19
 500.139648438 500.56640625 500.139648438 500.56640625 499.931640625 534.200195312 c 4,20,21
 500.13671875 568 500.13671875 568 226.782226562 961.858398438 c 6,22,-1
 130.208984375 1101.078125 l 5,23,-1
 468.748046875 1101.078125 l 5,24,-1
 487.708007812 1074.82128906 l 6,25,26
 833.13671875 596.452148438 833.13671875 596.452148438 833.13671875 529.596679688 c 4,27,28
 833.13671875 472.7421875 833.13671875 472.7421875 487.650390625 -5.0283203125 c 6,15,-1
EndSplineSet
EndChar

StartChar: exclam
Encoding: 33 33 294
Width: 808
VWidth: 9
Flags: W
LayerCount: 2
Fore
SplineSet
170.532226562 233.598632812 m 132,-1,1
 170.532226562 330.665039062 170.532226562 330.665039062 238.797851562 398.930664062 c 132,-1,2
 307.064453125 467.197265625 307.064453125 467.197265625 404.130859375 467.197265625 c 132,-1,3
 501.196289062 467.197265625 501.196289062 467.197265625 569.462890625 398.930664062 c 132,-1,4
 637.729492188 330.665039062 637.729492188 330.665039062 637.729492188 233.598632812 c 132,-1,5
 637.729492188 136.532226562 637.729492188 136.532226562 569.462890625 68.2666015625 c 132,-1,6
 501.196289062 0 501.196289062 0 404.130859375 0 c 132,-1,7
 307.064453125 0 307.064453125 0 238.797851562 68.2666015625 c 132,-1,0
 170.532226562 136.532226562 170.532226562 136.532226562 170.532226562 233.598632812 c 132,-1,1
539.580078125 733.473632812 m 2,8,9
 530.676757812 644.888671875 530.676757812 644.888671875 476.819335938 644.888671875 c 2,10,-1
 338.153320312 644.888671875 l 2,11,12
 287.561523438 645.000976562 287.561523438 645.000976562 277.521484375 733.686523438 c 2,13,-1
 200.193359375 1416.74511719 l 2,14,15
 174.047851562 1651.57226562 174.047851562 1651.57226562 398.501953125 1651.57226562 c 2,16,-1
 427.46484375 1651.57226562 l 2,17,18
 631.897460938 1652 631.897460938 1652 608.35546875 1417.76171875 c 2,19,-1
 539.580078125 733.473632812 l 2,8,9
EndSplineSet
EndChar

StartChar: period
Encoding: 46 46 295
Width: 808
VWidth: 3395
Flags: W
LayerCount: 2
Fore
SplineSet
170.46484375 233.598632812 m 128,-1,1
 170.46484375 330.665039062 170.46484375 330.665039062 238.731445312 398.930664062 c 128,-1,2
 306.997070312 467.197265625 306.997070312 467.197265625 404.063476562 467.197265625 c 128,-1,3
 501.12890625 467.197265625 501.12890625 467.197265625 569.395507812 398.930664062 c 128,-1,4
 637.662109375 330.665039062 637.662109375 330.665039062 637.662109375 233.598632812 c 128,-1,5
 637.662109375 136.532226562 637.662109375 136.532226562 569.395507812 68.2666015625 c 128,-1,6
 501.12890625 0 501.12890625 0 404.063476562 0 c 128,-1,7
 306.997070312 0 306.997070312 0 238.731445312 68.2666015625 c 128,-1,0
 170.46484375 136.532226562 170.46484375 136.532226562 170.46484375 233.598632812 c 128,-1,1
EndSplineSet
EndChar

StartChar: colon
Encoding: 58 58 296
Width: 808
VWidth: 3395
Flags: W
LayerCount: 2
Fore
SplineSet
170.797851562 1076.25976562 m 132,-1,1
 170.797851562 1173.32617188 170.797851562 1173.32617188 239.064453125 1241.59179688 c 132,-1,2
 307.331054688 1309.85839844 307.331054688 1309.85839844 404.396484375 1309.85839844 c 132,-1,3
 501.462890625 1309.85839844 501.462890625 1309.85839844 569.728515625 1241.59179688 c 132,-1,4
 637.995117188 1173.32617188 637.995117188 1173.32617188 637.995117188 1076.25976562 c 132,-1,5
 637.995117188 979.194335938 637.995117188 979.194335938 569.728515625 910.927734375 c 132,-1,6
 501.462890625 842.661132812 501.462890625 842.661132812 404.396484375 842.661132812 c 132,-1,7
 307.331054688 842.661132812 307.331054688 842.661132812 239.064453125 910.927734375 c 132,-1,0
 170.797851562 979.194335938 170.797851562 979.194335938 170.797851562 1076.25976562 c 132,-1,1
170.797851562 233.598632812 m 132,-1,9
 170.797851562 330.665039062 170.797851562 330.665039062 239.064453125 398.930664062 c 132,-1,10
 307.331054688 467.197265625 307.331054688 467.197265625 404.396484375 467.197265625 c 132,-1,11
 501.462890625 467.197265625 501.462890625 467.197265625 569.728515625 398.930664062 c 132,-1,12
 637.995117188 330.665039062 637.995117188 330.665039062 637.995117188 233.598632812 c 132,-1,13
 637.995117188 136.532226562 637.995117188 136.532226562 569.728515625 68.2666015625 c 132,-1,14
 501.462890625 0 501.462890625 0 404.396484375 0 c 132,-1,15
 307.331054688 0 307.331054688 0 239.064453125 68.2666015625 c 132,-1,8
 170.797851562 136.532226562 170.797851562 136.532226562 170.797851562 233.598632812 c 132,-1,9
EndSplineSet
EndChar

StartChar: uniFDFC
Encoding: 65020 65020 297
Width: 3084
VWidth: 3741
Flags: W
LayerCount: 2
Fore
SplineSet
2820.08007812 797.81640625 m 4,0,1
 2991 573 2991 573 2990.1796875 306.220703125 c 4,2,3
 2990 93 2990 93 2891.36132812 -72.7255859375 c 4,4,5
 2744 -321 2744 -321 2411 -425 c 4,6,7
 2382 -434 2382 -434 2373.19140625 -416.727539062 c 4,8,9
 2226 -150 2226 -150 2225.63183594 -146.634765625 c 4,10,11
 2221 -115 2221 -115 2267.59960938 -101.434570312 c 4,12,13
 2666 12 2666 12 2716.93847656 180.959960938 c 4,14,15
 2742 264 2742 264 2554.64355469 542.618164062 c 5,16,17
 2647 674 2647 674 2741.50878906 804.215820312 c 4,18,19
 2777 853 2777 853 2820.08007812 797.81640625 c 4,0,1
2163.78125 343.330078125 m 1,20,-1
 2334.44140625 172.669921875 l 1,21,-1
 2163.78125 2.0068359375 l 1,22,-1
 2005.01757812 160.7734375 l 1,23,-1
 1846.25292969 2.0068359375 l 1,24,-1
 1675.59277344 172.669921875 l 1,25,-1
 1846.25292969 343.330078125 l 1,26,-1
 2005.01757812 184.56640625 l 1,27,-1
 2163.78125 343.330078125 l 1,20,-1
2192.19824219 934.55078125 m 0,28,29
 2215 962 2215 962 2191.65380859 1009.79345703 c 0,30,31
 2167 1063 2167 1063 2141.37402344 1116.59960938 c 1,32,-1
 2302.74902344 1302.75195312 l 2,33,34
 2342 1348 2342 1348 2361.35351562 1308.83007812 c 0,35,36
 2455 1124 2455 1124 2455.37402344 934.73046875 c 0,37,38
 2457 687 2457 687 2333.91796875 560.921875 c 0,39,40
 2228.32394919 453.330078125 2228.32394919 453.330078125 2048.74414062 453.330078125 c 2,41,-1
 1930.55175781 453.330078125 l 2,42,43
 1707 453 1707 453 1610.23828125 553.057617188 c 0,44,45
 1502 666 1502 666 1507.39160156 1061.32714844 c 0,46,47
 1513 1425 1513 1425 1485.68164062 1539.97753906 c 1,48,-1
 1700.45703125 1685.32324219 l 2,49,50
 1767 1730 1767 1730 1778.73046875 1652.25585938 c 0,51,52
 1792 1570 1792 1570 1784.28808594 1327.8046875 c 0,53,54
 1772 958 1772 958 1821.34960938 903.616210938 c 0,55,56
 1848.36468863 873.594726562 1848.36468863 873.594726562 1981.109375 873.594726562 c 2,57,-1
 2045.78027344 873.594726562 l 2,58,59
 2143 874 2143 874 2192.19824219 934.55078125 c 0,28,29
1297.16699219 342.814453125 m 0,60,61
 1242.859375 -165.33203125 1242.859375 -165.33203125 731.185546875 -164.65625 c 0,62,63
 464.198242188 -164.265625 464.198242188 -164.265625 324.399414062 -11.0693359375 c 0,64,65
 200.732421875 123.732421875 200.732421875 123.732421875 200.3984375 372.264648438 c 0,66,67
 200.732421875 617.595703125 200.732421875 617.595703125 321.430664062 881.74609375 c 1,68,-1
 491.0546875 840.33203125 l 1,69,70
 376.731445312 477.86328125 376.731445312 477.86328125 487.17578125 345.802734375 c 0,71,72
 551.6640625 269.865234375 551.6640625 269.865234375 712.591796875 264.595703125 c 0,73,74
 910.061523438 258.131835938 910.061523438 258.131835938 988.994140625 332.797851562 c 0,75,76
 1043.39453125 383.998046875 1043.39453125 383.998046875 1040.38476562 483.935546875 c 0,77,78
 1017.79394531 1060.25976562 1017.79394531 1060.25976562 959.14453125 1496.48144531 c 1,79,-1
 1183.76074219 1665.36425781 l 2,80,81
 1207.66015625 1685.32324219 1207.66015625 1685.32324219 1210.859375 1686.38964844 c 0,82,83
 1243.92578125 1694.92285156 1243.92578125 1694.92285156 1246.24902344 1643.19921875 c 2,84,-1
 1299.40429688 594.002929688 l 2,85,86
 1308.71875 410.137695312 1308.71875 410.137695312 1297.16699219 342.814453125 c 0,60,61
EndSplineSet
EndChar

StartChar: uniFD3E
Encoding: 64830 64830 299
Width: 1503
VWidth: 10
Flags: W
LayerCount: 2
Fore
SplineSet
766.446289062 724.634765625 m 1,0,1
 724.526367188 719.336914062 724.526367188 719.336914062 724.526367188 682.715820312 c 0,2,3
 724.526367188 654.381835938 724.526367188 654.381835938 750.321289062 643.67578125 c 0,4,5
 757.262695312 640.795898438 757.262695312 640.795898438 766.153320312 640.795898438 c 128,-1,6
 775.043945312 640.795898438 775.043945312 640.795898438 782.482421875 643.885742188 c 1,7,8
 808.366210938 661.455078125 808.366210938 661.455078125 808.366210938 674.375 c 0,9,10
 808.366210938 724.634765625 808.366210938 724.634765625 766.446289062 724.634765625 c 1,0,1
875.163085938 871.985351562 m 0,11,12
 984.364257812 808.235351562 984.364257812 808.235351562 984.364257812 686.0078125 c 0,13,14
 984.364257812 592.506835938 984.364257812 592.506835938 920.510742188 528.653320312 c 128,-1,15
 856.657226562 464.796875 856.657226562 464.796875 766.446289062 464.796875 c 128,-1,16
 676.236328125 464.796875 676.236328125 464.796875 612.380859375 528.650390625 c 128,-1,17
 548.52734375 592.506835938 548.52734375 592.506835938 548.52734375 682.715820312 c 128,-1,18
 548.52734375 772.879882812 548.52734375 772.879882812 612.381835938 836.78125 c 128,-1,19
 676.237304688 900.633789062 676.237304688 900.633789062 751.159179688 900.633789062 c 128,-1,20
 826.080078125 900.633789062 826.080078125 900.633789062 875.163085938 871.985351562 c 0,11,12
717.962890625 265.889648438 m 2,21,22
 735.87890625 247.974609375 735.87890625 247.974609375 742.708007812 218.033203125 c 0,23,24
 785.061523438 33.06640625 785.061523438 33.06640625 910.032226562 -129.623046875 c 1,25,26
 841.594726562 51.19921875 841.594726562 51.19921875 812.442382812 212.288085938 c 0,27,28
 804.31640625 256.767578125 804.31640625 256.767578125 836.950195312 289.401367188 c 2,29,-1
 878.416992188 330.869140625 l 2,30,31
 904.916015625 356.642578125 904.916015625 356.642578125 940.643554688 356.642578125 c 2,32,-1
 1100.04980469 356.642578125 l 1,33,-1
 1100.04980469 1025.34277344 l 1,34,-1
 940.643554688 1025.34277344 l 1,35,36
 903.4609375 1027.19335938 903.4609375 1027.19335938 891.604492188 1038.78320312 c 0,37,38
 878.927734375 1050.66015625 878.927734375 1050.66015625 878.416992188 1051.1171875 c 2,39,-1
 833.907226562 1095.62890625 l 2,40,41
 802.127929688 1127.45996094 802.127929688 1127.45996094 809.237304688 1171.74121094 c 0,42,43
 840.528320312 1370.65820312 840.528320312 1370.65820312 923.590820312 1578.96777344 c 1,44,45
 775.461914062 1396.2578125 775.461914062 1396.2578125 731.265625 1151.12695312 c 0,46,47
 726.455078125 1124.58886719 726.455078125 1124.58886719 707 1105.13378906 c 2,48,-1
 652.983398438 1051.11816406 l 2,49,50
 627.475585938 1025.34277344 627.475585938 1025.34277344 590.7578125 1025.34277344 c 2,51,-1
 431.3515625 1025.34277344 l 1,52,-1
 431.3515625 865.935546875 l 2,53,54
 430.920898438 829.053710938 430.920898438 829.053710938 405.576171875 803.709960938 c 2,55,-1
 292.858398438 690.9921875 l 1,56,-1
 405.575195312 578.276367188 l 2,57,58
 431.3515625 552.102539062 431.3515625 552.102539062 431.3515625 516.05078125 c 2,59,-1
 431.3515625 356.642578125 l 1,60,-1
 590.7578125 356.642578125 l 1,61,62
 630.823242188 353.026367188 630.823242188 353.026367188 652.981445312 330.869140625 c 2,63,-1
 717.962890625 265.889648438 l 2,21,22
575.790039062 159.161132812 m 1,64,-1
 554.307617188 180.643554688 l 1,65,-1
 342.954101562 180.643554688 l 1,66,67
 310.3984375 181.33203125 310.3984375 181.33203125 283.048828125 206.01953125 c 0,68,69
 255.352539062 230.033203125 255.352539062 230.033203125 255.352539062 268.643554688 c 2,70,-1
 255.352539062 479.6015625 l 1,71,-1
 106.18359375 628.765625 l 2,72,73
 43.947265625 690.981445312 43.947265625 690.981445312 106.184570312 753.217773438 c 2,74,-1
 255.352539062 902.384765625 l 1,75,-1
 255.352539062 1113.34179688 l 2,76,77
 254.931640625 1140.25976562 254.931640625 1140.25976562 278.73828125 1170.23535156 c 0,78,79
 302.076171875 1201.34179688 302.076171875 1201.34179688 343.3515625 1201.34179688 c 2,80,-1
 554.307617188 1201.34179688 l 1,81,-1
 563.57421875 1210.609375 l 1,82,83
 685.862304688 1809.05566406 685.862304688 1809.05566406 1190.51367188 1956.65625 c 0,84,85
 1233.05859375 1969.0546875 1233.05859375 1969.0546875 1261.08300781 1943.61816406 c 0,86,87
 1290.65820312 1915.72167969 1290.65820312 1915.72167969 1290.67675781 1884.18554688 c 0,88,89
 1290.65820312 1851.72167969 1290.65820312 1851.72167969 1283.69824219 1814.58886719 c 1,90,91
 1069.86035156 1620.25683594 1069.86035156 1620.25683594 992.828125 1201.34179688 c 1,92,-1
 1188.04882812 1201.34179688 l 2,93,94
 1235.19238281 1201.05957031 1235.19238281 1201.05957031 1263.1015625 1158.93066406 c 0,95,96
 1276.04785156 1138.68847656 1276.04785156 1138.68847656 1276.04785156 1113.34179688 c 2,97,-1
 1276.04785156 268.643554688 l 2,98,99
 1275.74511719 222.702148438 1275.74511719 222.702148438 1223.17382812 187.854492188 c 0,100,101
 1213.30957031 180.643554688 1213.30957031 180.643554688 1188.04882812 180.643554688 c 2,102,-1
 997.223632812 180.643554688 l 1,103,104
 1075.19335938 -210.131835938 1075.19335938 -210.131835938 1271.86035156 -369.205078125 c 0,105,106
 1330.125 -415.997070312 1330.125 -415.997070312 1273.48925781 -478.422851562 c 0,107,108
 1254.39257812 -499.197265625 1254.39257812 -499.197265625 1204.29882812 -525.844726562 c 1,109,-1
 1191.8515625 -522.182617188 l 2,110,111
 706.12890625 -379.731445312 706.12890625 -379.731445312 575.790039062 159.161132812 c 1,64,-1
EndSplineSet
EndChar

StartChar: uniFD3F
Encoding: 64831 64831 300
Width: 1506
VWidth: 10
Flags: W
LayerCount: 2
Fore
SplineSet
739.35546875 724.634765625 m 132,-1,1
 697.435546875 724.634765625 697.435546875 724.634765625 697.435546875 675.663085938 c 4,2,3
 697.435546875 654.377929688 697.435546875 654.377929688 723.229492188 643.67578125 c 4,4,5
 730.172851562 640.795898438 730.172851562 640.795898438 743.41796875 640.795898438 c 132,-1,6
 756.6640625 640.795898438 756.6640625 640.795898438 768.96875 653.1015625 c 132,-1,7
 781.275390625 665.407226562 781.275390625 665.407226562 781.275390625 682.715820312 c 4,8,0
 781.275390625 724.634765625 781.275390625 724.634765625 739.35546875 724.634765625 c 132,-1,1
521.436523438 682.715820312 m 132,-1,10
 521.436523438 772.926757812 521.436523438 772.926757812 585.291015625 836.78125 c 132,-1,11
 649.145507812 900.633789062 649.145507812 900.633789062 739.35546875 900.633789062 c 4,12,13
 869.884765625 900.633789062 869.884765625 900.633789062 932.0546875 785.328125 c 4,14,15
 957.274414062 738.548828125 957.274414062 738.548828125 957.274414062 688.303710938 c 4,16,17
 957.274414062 592.504882812 957.274414062 592.504882812 893.420898438 528.653320312 c 132,-1,18
 829.565429688 464.796875 829.565429688 464.796875 739.35546875 464.796875 c 132,-1,19
 649.145507812 464.796875 649.145507812 464.796875 585.291992188 528.650390625 c 132,-1,9
 521.436523438 592.505859375 521.436523438 592.505859375 521.436523438 682.715820312 c 132,-1,10
764.233398438 223.072265625 m 4,20,21
 770.022460938 248.073242188 770.022460938 248.073242188 787.841796875 265.893554688 c 6,22,-1
 852.817382812 330.869140625 l 6,23,24
 879.31640625 356.642578125 879.31640625 356.642578125 915.04296875 356.642578125 c 6,25,-1
 1074.44921875 356.642578125 l 5,26,-1
 1074.44921875 516.05078125 l 6,27,28
 1074.12988281 552.180664062 1074.12988281 552.180664062 1100.22558594 578.276367188 c 6,29,-1
 1212.94238281 690.9921875 l 5,30,-1
 1100.22363281 803.709960938 l 6,31,32
 1074.44921875 829.537109375 1074.44921875 829.537109375 1074.44921875 865.935546875 c 6,33,-1
 1074.44921875 1025.34277344 l 5,34,-1
 915.04296875 1025.34277344 l 6,35,36
 878.875 1025.06054688 878.875 1025.06054688 852.817382812 1051.1171875 c 6,37,-1
 798.799804688 1105.13476562 l 6,38,39
 779.728515625 1124.25976562 779.728515625 1124.25976562 769.21875 1179.47265625 c 4,40,41
 727.461914062 1399.45800781 727.461914062 1399.45800781 582.23828125 1578.93945312 c 5,42,43
 661.329101562 1380.2578125 661.329101562 1380.2578125 696.563476562 1171.74316406 c 4,44,45
 703.956054688 1127.69335938 703.956054688 1127.69335938 671.893554688 1095.62988281 c 6,46,-1
 627.383789062 1051.11816406 l 6,47,48
 601.875 1025.34277344 601.875 1025.34277344 565.158203125 1025.34277344 c 6,49,-1
 405.751953125 1025.34277344 l 5,50,-1
 405.751953125 356.642578125 l 5,51,-1
 565.158203125 356.642578125 l 6,52,53
 601.989257812 356.260742188 601.989257812 356.260742188 627.381835938 330.869140625 c 6,54,-1
 668.852539062 289.399414062 l 6,55,56
 700.795898438 257.065429688 700.795898438 257.065429688 695.389648438 224.126953125 c 4,57,58
 666.662109375 57.599609375 666.662109375 57.599609375 595.721679688 -129.747070312 c 5,59,60
 718.928710938 28.7998046875 718.928710938 28.7998046875 764.233398438 223.072265625 c 4,20,21
301.501953125 -525.84375 m 5,61,62
 179.19921875 -461.864257812 179.19921875 -461.864257812 214.209960938 -392.828125 c 4,63,64
 220.798828125 -379.731445312 220.798828125 -379.731445312 233.942382812 -369.205078125 c 4,65,66
 429.864257812 -210.131835938 429.864257812 -210.131835938 508.577148438 180.643554688 c 5,67,-1
 317.751953125 180.643554688 l 6,68,69
 270.61328125 180.287109375 270.61328125 180.287109375 236.204101562 237.171875 c 4,70,71
 229.752929688 246.834960938 229.752929688 246.834960938 229.752929688 268.643554688 c 6,72,-1
 229.752929688 1113.34179688 l 6,73,74
 229.33203125 1176.52636719 229.33203125 1176.52636719 286.280273438 1194.88964844 c 4,75,76
 308.155273438 1201.34179688 308.155273438 1201.34179688 317.751953125 1201.34179688 c 6,77,-1
 512.973632812 1201.34179688 l 5,78,79
 436.263671875 1620.25683594 436.263671875 1620.25683594 222.1015625 1814.58984375 c 5,80,81
 201.598632812 1923.1875 201.598632812 1923.1875 260.162109375 1954.33886719 c 4,82,83
 284.797851562 1966.92089844 284.797851562 1966.92089844 315.296875 1956.65332031 c 4,84,85
 820.26171875 1804.7890625 820.26171875 1804.7890625 942.2265625 1210.61035156 c 5,86,-1
 951.494140625 1201.34179688 l 5,87,-1
 1162.44921875 1201.34179688 l 6,88,89
 1236.24414062 1201.05078125 1236.24414062 1201.05078125 1247.41113281 1134.98632812 c 4,90,91
 1250.44824219 1114.62890625 1250.44824219 1114.62890625 1250.44824219 1113.34179688 c 6,92,-1
 1250.44824219 902.384765625 l 5,93,-1
 1399.61816406 753.217773438 l 6,94,95
 1434.65722656 717.862304688 1434.65722656 717.862304688 1425.76757812 681.5859375 c 4,96,97
 1416.64257812 645.791992188 1416.64257812 645.791992188 1399.61621094 628.765625 c 6,98,-1
 1250.44824219 479.6015625 l 5,99,-1
 1250.44824219 268.643554688 l 6,100,101
 1250.14746094 222.018554688 1250.14746094 222.018554688 1193.92089844 187.094726562 c 4,102,103
 1184.54296875 180.643554688 1184.54296875 180.643554688 1162.44921875 180.643554688 c 6,104,-1
 951.494140625 180.643554688 l 5,105,-1
 930.010742188 159.16015625 l 5,106,107
 800.13671875 -379.14453125 800.13671875 -379.14453125 313.951171875 -522.180664062 c 6,108,-1
 301.501953125 -525.84375 l 5,61,62
EndSplineSet
EndChar

StartChar: NameMe.303
Encoding: 65560 -1 301
Width: 626
VWidth: 3713
Flags: W
AnchorPoint: "Anchor-7" 210.877 -228.763 basechar 0
LayerCount: 2
Fore
SplineSet
186.975585938 765.553710938 m 0,0,1
 164 1063 164 1063 129.866210938 1345.05859375 c 1,2,-1
 425.331054688 1545.45703125 l 6,3,4
 474.263234227 1579.18142282 474.263234227 1579.18142282 477.376953125 1507.05664062 c 6,5,-1
 515.860351562 615.64453125 l 2,6,7
 526 370 526 370 457.577148438 226.657226562 c 0,8,9
 348 0 348 0 10.892578125 0 c 2,10,-1
 -16.5361328125 0 l 1,11,-1
 -16.5361328125 494.930664062 l 1,12,-1
 16.53515625 494.930664062 l 2,13,14
 181 495 181 495 191.340820312 594.129882812 c 0,15,16
 196 639 196 639 186.975585938 765.553710938 c 0,0,1
EndSplineSet
EndChar

StartChar: NameMe.304
Encoding: 65561 -1 302
Width: 751
VWidth: 3713
Flags: W
LayerCount: 2
Fore
SplineSet
373.693359375 170.094726562 m 1,0,1
 249 0 249 0 35.2060546875 0 c 2,2,-1
 -16.7998046875 0 l 1,3,-1
 -16.7998046875 494.930664062 l 1,4,-1
 18.3955078125 494.930664062 l 6,5,6
 254.49521342 495.000441901 254.49521342 495.000441901 245.75390625 693.678710938 c 0,7,8
 242 779 242 779 199.208007812 1148.42871094 c 1,9,-1
 506 1354.9381194 l 2,10,11
 553.51953125 1386.67906809 553.51953125 1386.67906809 553.51953125 1332 c 2,12,-1
 553.51953125 727.0546875 l 2,13,14
 554 596 554 596 585.427734375 547.505859375 c 0,15,16
 621.046974498 494.930664062 621.046974498 494.930664062 726.537109375 494.930664062 c 2,17,-1
 768.138671875 494.930664062 l 1,18,-1
 768.138671875 0 l 1,19,-1
 716.1015625 0 l 2,20,21
 474 0 474 0 373.693359375 170.094726562 c 1,0,1
EndSplineSet
EndChar

StartChar: NameMe.306
Encoding: 65563 -1 304
Width: 664
VWidth: 3713
Flags: W
LayerCount: 2
Fore
SplineSet
469.012695312 1484.58203125 m 4,0,1
 484 1205 484 1205 470.032226562 872.086914062 c 0,2,3
 465 743 465 743 476.248046875 658.826171875 c 0,4,5
 487 573 487 573 509.68359375 540.286132812 c 0,6,7
 540.985351111 495.021183515 540.985351111 495.021183515 640.149414062 494.930664062 c 2,8,-1
 680.802734375 494.893554688 l 1,9,-1
 680.802734375 0 l 1,10,-1
 615.223632812 0 l 2,11,12
 384 0 384 0 304.986328125 69.1884765625 c 0,13,14
 148 205 148 205 152.533203125 590.065429688 c 0,15,16
 158.996032521 1129.66874188 158.996032521 1129.66874188 110.54296875 1317.32519531 c 2,17,-1
 107.322265625 1329.79882812 l 1,18,-1
 415 1511.07910156 l 6,19,20
 466 1541 466 1541 469.012695312 1484.58203125 c 4,0,1
EndSplineSet
EndChar

StartChar: uni06C1
Encoding: 1729 1729 306
Width: 1012
VWidth: 2424
Flags: W
AnchorPoint: "Anchor-7" 479.202 -199.801 basechar 0
AnchorPoint: "Anchor-10" 623.045 1189.49 basechar 0
LayerCount: 2
Fore
SplineSet
197 464 m 4,0,1
 399 855 399 855 680.095703125 825.981445312 c 4,2,3
 777 816 777 816 826.596679688 734.1171875 c 4,4,5
 869 665 869 665 881.745117188 564 c 4,6,7
 885 538 885 538 884.801757812 529.141601562 c 4,8,9
 885 510 885 510 894.3515625 503.544921875 c 4,10,11
 906.955078125 495.030273438 906.955078125 495.030273438 946.291992188 495.012695312 c 6,12,-1
 1034.2265625 494.97265625 l 5,13,-1
 1034.2265625 0 l 5,14,-1
 922.953125 0 l 6,15,16
 601 0 601 0 573 263.315429688 c 4,17,18
 569 301 569 301 570.150390625 320 c 4,19,20
 574 363 574 363 552 364.173828125 c 4,21,22
 537 365 537 365 524.237304688 338 c 4,23,24
 445 175 445 175 424.801757812 130.912109375 c 4,25,26
 362 -7 362 -7 298.522460938 -144.155273438 c 5,27,-1
 12.765625 4.259765625 l 5,28,29
 76 230 76 230 197 464 c 4,0,1
EndSplineSet
EndChar

StartChar: NameMe.65564
Encoding: 65564 -1 309
Width: 678
VWidth: 3745
Flags: W
LayerCount: 2
Fore
SplineSet
249.519516205 -34.3411985078 m 0,0,1
 395 -33 395 -33 450.605377501 34.3289956444 c 1,2,-1
 346.974152948 71.4620869111 l 1,3,4
 222 119 222 119 268.980047984 241.715874898 c 0,5,6
 332 406 332 406 459.206579901 457.370244785 c 0,7,8
 541 490 541 490 657.783011469 453.941446894 c 1,9,10
 652 388 652 388 627.07558916 285.689765813 c 1,11,-1
 590.719423298 288.72162838 l 2,12,13
 488 297 488 297 430.91801797 229.172899614 c 1,14,-1
 523.877335939 198.209566732 l 2,15,16
 628 164 628 164 597.529514811 22.5033489355 c 0,17,18
 583 -46 583 -46 551.65234375 -86.6318359375 c 0,19,20
 454 -215 454 -215 249.009765625 -214.874023438 c 0,21,22
 141 -215 141 -215 30.3125 -169.610351562 c 1,23,-1
 90.5068659642 6.45905189509 l 1,24,25
 176.168924983 -34.9984862791 176.168924983 -34.9984862791 249.519516205 -34.3411985078 c 0,0,1
EndSplineSet
EndChar
